<svg id="Layer_1" data-name="Layer 1" xmlns="http://www.w3.org/2000/svg" viewBox="0 0 493.5 323">
  <title>email_icon</title>
  <g id="Layer_2" data-name="Layer 2">
    <g id="Capa_1" data-name="Capa 1">
      <path d="M444.6,0H48.9A49,49,0,0,0,0,48.9V274.1A49,49,0,0,0,48.9,323H444.6a49,49,0,0,0,48.9-48.9V48.9A49,49,0,0,0,444.6,0Zm16.3,48.9V274.1a15.9,15.9,0,0,1-1.8,7.1L343.7,165.9,460.8,48.8ZM32.6,274.1V48.8L149.8,165.9,34.4,281.2A16,16,0,0,1,32.6,274.1Zm219.2-62.4a7.3,7.3,0,0,1-10.1,0L62.7,32.6H430.8Zm-79-22.7,45.8,45.8a39.7,39.7,0,0,0,56.1.1h.1L320.6,189,422.2,290.4H71.3Z" fill="#fff32c"/>
    </g>
  </g>
</svg>
