<svg xmlns="http://www.w3.org/2000/svg" viewBox="0 0 400.5 289.9">
  <title>initials</title>
  <g id="Layer_2" data-name="Layer 2">
    <g id="Layer_1-2" data-name="Layer 1">
      <g id="T">
        <path d="M106,253.8c.5,1.9.9,3.8,1.5,5.6,1.4,4.2-1.1,9.1-6.1,10.5-2.9.8-7.1-4.1-6-7.3s.4-7.2.2-10.8-.8-7-1.1-10.6c-.3-5.5-.5-11.1-.7-16.6-.1-2.5.3-4.9.2-7.4a15,15,0,0,0-.7-4.6,35.8,35.8,0,0,1-1.8-13.2c.1-2.6-.8-5.2-1.1-7.8s-.1-2.8-.2-4.1a85.3,85.3,0,0,0-.4-9.4c-.9-6.2-1.8-12.4-1.5-18.8.1-1.5-.7-3.1-.7-4.6s.3-5.9.4-8.8a11.9,11.9,0,0,0-.1-1.5,37.4,37.4,0,0,1-.4-5.3c.2-2.4.2-2.5-2.1-1.8s-3.3.4-4.7,1c-4.2,1.7-8.2,4-12.6,5.3-6.3,1.9-12.1,5-18.2,7.3l-19.8,7.6c-2.9,1.2-5.7,2.6-8.6,3.9a13.1,13.1,0,0,1-3.2,1.2,8.3,8.3,0,0,0-4.9,2.4c-2.2,2.2-7,1.7-9.1-.6a21.8,21.8,0,0,0-1.9-2,4,4,0,0,1-.6-5.6l.3-.4c2.9-7.4,9.4-5.8,15.1-6.4a8.2,8.2,0,0,0,3.8-1.1,17.7,17.7,0,0,1,8.5-3.4c1.3-.2,2.4-1.5,3.8-2.2a8.1,8.1,0,0,1,2.6-.6,10.9,10.9,0,0,0,2.6-.2c2.9-1.2,5.6-2.6,8.5-3.7s6.2-2,9.3-3.1c4.8-1.6,9.8-2.8,14.4-5.2s6.7-2.3,10.1-3.5c1.8-.7,3.6-1.6,5.4-2.3l8.5-3,13.6-4.6c3.5-1.3,6.9-2.8,10.4-4.1l20.4-7.5,14.2-5.3c2.1-.8,4-2.1,6.1-3,3.6-1.4,7.4-2.4,11-3.9,7.6-3,15.5-5.7,22.7-9.6,4.3-2.3,9.1-3,13.1-6s7.7-2.7,11.6-3.9l3.9-1.4c3.1-1,6.2-1.8,9.3-2.9s8.6-3.4,13-5,6.1-2.2,9.2-3.1,9.2-2.6,13.9-3.6,11-2,16.5-3.1h.2c1.6,0,5.5,3.2,6.3,5.3a4.3,4.3,0,0,1-1.8,5.2c-1.5,1-3.3,1.5-4.9,2.4a33.7,33.7,0,0,0-6.1,3.4,2.1,2.1,0,0,1-2.7.3l-3-1.6c-4-2.1-8-.5-11.9.4s-9.9,2.7-14.8,4.3S238,77.8,234.6,79h-.2c-4.8,1.6-9.6,3.1-14.3,4.8-6.5,2.4-13,5-19.5,7.6l-12.3,5c-3.1,1.3-6.2,2.8-9.4,4s-9.3,3.4-14,5a46.4,46.4,0,0,0-6.5,2.3,108.1,108.1,0,0,1-14.3,5.7c-2.6.9-4.8,3.2-8,2.2-.5-.2-1.2.7-1.9,1l-5.4,2.7c-.8.4-1.8.4-1.3-1s0-1.2-.5-.7-3.5-.1-1.7,2.4l-.8.5c-5.5,2.2-11.1,4.2-16.5,6.5-3.9,1.7-7.7,3.7-11.6,5.6l-4.4,2c-1.1.6-2.2,1.2-.3,2.3a2.1,2.1,0,0,1,.1,1.8c-1.6,1-1.3,2.3-1,3.9.6,4.2,1,8.4,1.6,12.6.3,2.3,1.1,4.6,1.6,6.9s.5,3.2.8,4.8.9,4.8,1.2,7.3.8,7.7,1.4,11.6c.8,5.5,1.7,10.9,2.6,16.4.5,3.2,1.1,6.5,1.5,9.7a17.4,17.4,0,0,1-.1,4.4,8.7,8.7,0,0,0,.5,5c.8,1.7.5,3.9.7,5.9,0,.2-.3.6-.2.7,2.4,2.1-.2,5.3,1.7,7.5a3.7,3.7,0,0,1,.6,2.1c.1,2.9,0,5.8.2,8.6a21.1,21.1,0,0,0,1.2,3.9c.3,1.1.5,2.2.7,3.2Z" stroke="#fff32c" fill="#fff32c" stroke-miterlimit="10" stroke-width="2"/>
      </g>
      <g id="S">
        <path d="M338,222c1.1,2.2.6,4.3-.4,6.3a2.9,2.9,0,0,0-.3.6c-1,4.8-2.2,9.6-3,14.5a40.8,40.8,0,0,0,.3,11.9,46.3,46.3,0,0,0,3.9,13.2c2.5,5.4,6.6,9.5,13.8,10,3.7.3,7,.3,10.2-1.2a8.6,8.6,0,0,0,2.9-2.1c2.3-2.9,4.6-5.7,5.9-9.4s2.9-6.3,4.2-9.5c2.6-6.3,3.3-12.9,3.7-19.5a142.4,142.4,0,0,0,.2-14.3,89.6,89.6,0,0,0-1.4-12.4c-.9-4.8-2.4-9.6-3.2-14.4a18.3,18.3,0,0,0-2-6.5,29.7,29.7,0,0,1-3.5-11.1,19.5,19.5,0,0,0-1.9-5.2c-3.9-8.7-7.9-17.3-11.6-26.1-1.5-3.6-2.4-7.4-3.6-11.1-.2-.5-.2-1.2-.6-1.5-2.1-1.6-2.1-4.1-2.9-6.2s-1.1-3.8-1.9-5.7-2.1-5-3.3-7.4a21.4,21.4,0,0,0-2.2-2.9,11,11,0,0,1-1.6-2.3c-.9-2.3-1.7-4.7-2.5-7l-.4-1.1c-2.3-4.5-4.7-8.9-6.9-13.5s-3.2-7.7-5.1-11.4-4.3-7.2-6.4-10.8-2.4-4.6-3.5-6.9-1.8-5-3.3-7.1-3.1-6.3-3.7-9.6c-1-5-3.5-9.3-6-13.8a12.8,12.8,0,0,1-1.6-8.7c.3-1.8-.2-3.8-.1-5.7a6.2,6.2,0,0,1,.7-2.5,15.2,15.2,0,0,1,2.1-3.4A27.2,27.2,0,0,1,307,4.7c1.9-1.4,3.9-2.5,6.6-2.4S317,2,318.8,2s5.4.1,7.8,1.6a5.9,5.9,0,0,0,2.7.9c5,.2,9.1,2.4,13,5s9.4,6.4,13.9,9.8a48,48,0,0,1,5,5l1.8,1.6c2.3,1.8,5.4,3.1,6.6,5.4S374,36,376,38.4s5.1,4.8,7.1,7.5,3,2.2,4.4,3.4a34.2,34.2,0,0,1,4,4.8c.3.4.6,1,.9,1,3,.3,3.7,2.7,5.1,4.5s.6,5.8-2.8,6.5-5.6-.8-7.6-2.8-3.7-3.9-5.6-5.8c-.2-.2-.4-.6-.7-.6-3.3-.6-4.8-3.4-6.7-5.4-4-4.1-7.4-8.8-11.2-13-2-2.3-4.4-4.3-6.7-6.4a44.9,44.9,0,0,0-4-3.7c-3.7-2.7-7.8-5-11.1-8a27.8,27.8,0,0,0-9.7-5.6,88.4,88.4,0,0,0-9.6-2.6c-3.6-.8-6.7.5-9.5,2.3-1.2.8-1.8,2.6-2.1,4a42.8,42.8,0,0,0-.7,7.8c0,1.1,1.1,2.2,1.1,3.2-.1,4.7,3.1,8.2,4.6,12.3.8,2.4,1.6,4.8,2.6,7.2s3.4,7.1,5,10.7c.9,1.9,1.5,3.9,2.5,5.7,1.9,3.5,4.1,6.8,6,10.3a29.5,29.5,0,0,1,1.5,4.7,19.2,19.2,0,0,0,1.5,4c1.6,2.7,4.1,4.9,4.4,8.3.1.9.9,1.8,1.3,2.7,2.9,6.1,5.8,12.2,8.7,18.3a28.8,28.8,0,0,0,3.4,5.3,14,14,0,0,1,2.6,5.6,73.5,73.5,0,0,0,3.1,8.1c.1.2.3.4.3.6-.9,3.4,2,5.5,3.2,8.1s2.9,6.5,4.4,9.7a4.8,4.8,0,0,0,1,1.8c2.7,2.2,3.7,5.2,4.6,8.2s1.2,5,2,7.5a19.8,19.8,0,0,0,2.1,4.3,47.6,47.6,0,0,1,5.6,14c.6,2.4,1.8,4.6,2.7,6.9a31.5,31.5,0,0,1,.8,3.1c1.1,4.2,2.5,8.4,3.3,12.7s2.1,9.7,1.8,14.4c-.5,7.7-.2,15.4-2.3,23-1.1,4.1-1.3,8.5-2.3,12.7a25.9,25.9,0,0,1-2.4,5.5c-2.1,4.2-4,8.6-6.4,12.7-1,1.7-2.9,3-4.5,4.4a43.6,43.6,0,0,1-3.8,3.2,12.5,12.5,0,0,1-8.3,2.3c-4.2-.2-8.4,0-12.5-.6a19.3,19.3,0,0,1-11-5.2c-1.8-1.8-4-3.2-5.4-5.2s-3.7-5.1-4.2-8.3c-.3-1.7-1.4-3.3-1.6-5-.5-3.9-.7-7.9-.9-11.8a59.1,59.1,0,0,1,0-7.1,11.1,11.1,0,0,1,1.2-3.1,7.3,7.3,0,0,0,.5-1c.6-2.5.9-5.1,1.7-7.5a30.4,30.4,0,0,1,9.6-15.2c3.4-2.8,6.6-5.9,9.9-8.8.3-.3,1-.3,1.5-.4s.4,1.1.2,1.4l-8.8,11A7.4,7.4,0,0,1,338,222Z" stroke="#fff32c" fill="#fff32c" stroke-miterlimit="10" stroke-width="4"/>
      </g>
    </g>
  </g>
</svg>
