<svg xmlns="http://www.w3.org/2000/svg" viewBox="0 0 96 96">
  <title>instagram_logo</title>
  <g id="Layer_2" data-name="Layer 2">
    <g id="insta">
      <path d="M48,0C35,0,33.3.1,28.2.3A35.2,35.2,0,0,0,16.6,2.5,23.5,23.5,0,0,0,8.1,8.1a23.6,23.6,0,0,0-5.5,8.5A35.1,35.1,0,0,0,.3,28.2C.1,33.3,0,35,0,48S.1,62.7.3,67.8A35.3,35.3,0,0,0,2.5,79.4a23.5,23.5,0,0,0,5.5,8.5,23.5,23.5,0,0,0,8.5,5.5,35.3,35.3,0,0,0,11.7,2.2c5.1.2,6.8.3,19.8.3s14.7-.1,19.8-.3a35.3,35.3,0,0,0,11.7-2.2,24.6,24.6,0,0,0,14-14,35.6,35.6,0,0,0,2.2-11.7c.2-5.1.3-6.8.3-19.8s-.1-14.7-.3-19.8a35.6,35.6,0,0,0-2.2-11.7,23.6,23.6,0,0,0-5.5-8.5,23.5,23.5,0,0,0-8.5-5.5A35.3,35.3,0,0,0,67.8.3C62.7.1,61,0,48,0ZM43.7,8.7H48c12.8,0,14.3,0,19.4.3a26.6,26.6,0,0,1,8.9,1.7,14.8,14.8,0,0,1,5.5,3.6,14.9,14.9,0,0,1,3.6,5.5,26.5,26.5,0,0,1,1.7,8.9c.2,5.1.3,6.6.3,19.4s-.1,14.3-.3,19.4a26.5,26.5,0,0,1-1.7,8.9,15.9,15.9,0,0,1-9.1,9.1A26.5,26.5,0,0,1,67.4,87c-5.1.2-6.6.3-19.4.3s-14.3-.1-19.4-.3a26.6,26.6,0,0,1-8.9-1.7,14.9,14.9,0,0,1-5.5-3.6,14.9,14.9,0,0,1-3.6-5.5,26.5,26.5,0,0,1-1.7-8.9c-.2-5.1-.3-6.6-.3-19.4s0-14.3.3-19.4a26.6,26.6,0,0,1,1.7-8.9,14.9,14.9,0,0,1,3.6-5.5,14.9,14.9,0,0,1,5.5-3.6,26.5,26.5,0,0,1,8.9-1.7c4.4-.2,6.1-.3,15.1-.3Zm29.9,8a5.8,5.8,0,1,0,5.8,5.8,5.8,5.8,0,0,0-5.8-5.8ZM48,23.4A24.6,24.6,0,1,0,72.7,48,24.7,24.7,0,0,0,48,23.4ZM48,32A16,16,0,1,1,32,48,16,16,0,0,1,48,32Z" fill="#fff32c"/>
    </g>
  </g>
</svg>
