<svg id="Layer_1" data-name="Layer 1" xmlns="http://www.w3.org/2000/svg" viewBox="0 0 877.8 76.5">
  <title>stand_out</title>
  <g>
    <path d="M863.8,497.1a8.1,8.1,0,0,0,.5-1.4q.8-9.1,1.6-18.2a7.8,7.8,0,0,1,.2-1.5c.2-.8.7-1.7,1.7-1.6a3.6,3.6,0,0,1,2.3.7,6.6,6.6,0,0,1,1.8,5.6c-.3,3.7-.5,7.4-.8,11.1-.1,1.4-.1,2.7,1,3.7a3.3,3.3,0,0,0,1,.3l21.8-.4a2.9,2.9,0,0,0,.9-.4c1-1.3,1-2.8,1.1-4.4.3-3.7.5-7.4.9-11.1a25,25,0,0,0-1.4-11.7c.5-1.5,1.3-2.4,2.5-2.6a5.5,5.5,0,0,1,2.9.6c3.2,1.5,3.9,3,3.6,6.5-.5,7.1-1,14.1-1.5,21.2-.3,4.5-.8,9.1-1.2,13.6a4.7,4.7,0,0,0,0,2,2.2,2.2,0,0,0,1.3,1.3,6.3,6.3,0,0,0,2.5-.2c1.5-.3,2.5.4,3.6,1.4a13.7,13.7,0,0,1,3.6,8.2,11.4,11.4,0,0,0,3.4,6.6,5.3,5.3,0,0,0,5.1,1.6,5.5,5.5,0,0,0,4.5-3.4c-.6-1.8-1.3-3.9-1.8-6-1.1-4.6-1-9.1,1.7-13.2a24.7,24.7,0,0,1,4.1-4.4,2.6,2.6,0,0,1,3.3,0c2.3,1.5,3.3,3.7,3.8,6.3a33.6,33.6,0,0,1,.1,11.6c-.3,1.8-.6,3.7-1,5.8a10.9,10.9,0,0,0,2.5,1.3,11.4,11.4,0,0,0,9.4-2c3,1.3,3,1.3,4.6,3.8-.5,1.9-.8,4.1-2.8,5.1a12,12,0,0,1-7.8,1.4c-1.8-.3-3.6-.8-5.4-1.3a8,8,0,0,0-6.3.8,16.3,16.3,0,0,1-5.6,2.2,13.6,13.6,0,0,1-12.3-4.5,39.4,39.4,0,0,1-3-4l-2.1-3.1a2,2,0,0,0-2.3,1.1c-.7,1.2-1.2,2.4-2,3.5a17,17,0,0,1-2.5,3.1,3.7,3.7,0,0,1-5-.2l-1.7-1.6a13.6,13.6,0,0,1-.7-5.7c.4-4.5.7-9.1,1-13.6.1-2.2.2-4.4.3-6.8a9.7,9.7,0,0,0-2.8-.9,98.1,98.1,0,0,0-10.1.2,79.8,79.8,0,0,0-9.5,1.6,2.8,2.8,0,0,0-1.7,1.7,10.8,10.8,0,0,0-.4,3.5c0,5.6.2,11.1.2,16.7,0,2.2-.2,4.4-.3,6.5a2.1,2.1,0,0,1-2.8.6,5.3,5.3,0,0,1-3.9-4.8c-.1-2.2.1-4.4.2-6.6a35.3,35.3,0,0,0,.1-4.5,11.6,11.6,0,0,1,0-4.5c.5-1.8-.3-3.6-.6-5.7a11.1,11.1,0,0,0-3,0c-1.6.5-3.1,1.3-4.7,1.9a5.2,5.2,0,0,1-7.3-4.5c-.1-.5,0-1,0-1.5a3,3,0,0,1,2.1-3.1c1.4-.5,2.9-.8,4.4-1.1L862,498A11.7,11.7,0,0,0,863.8,497.1Z" transform="translate(-312.1 -462.2)" fill="#e64c4e" stroke="#e64c4e" stroke-miterlimit="10"/>
    <path d="M923.3,536.8a14.3,14.3,0,0,1-10.6-4.9,26.9,26.9,0,0,1-2.4-3.1l-.7-1-1.6-2.3-.4-.7c-.8-.1-1.1.3-1.5.9l-.8,1.5a22.3,22.3,0,0,1-1.2,2,17.5,17.5,0,0,1-2.6,3.2,4.3,4.3,0,0,1-5.7-.2l-1.3-1.2-.5-.5h0a14.2,14.2,0,0,1-.7-5.9c.4-4.3.6-8.7.9-12.9v-.7c.1-1.5.2-3,.2-4.5v-1.9l-.6-.3a4.6,4.6,0,0,0-1.6-.5,96.9,96.9,0,0,0-10.1.2,80.1,80.1,0,0,0-9.4,1.6,2.3,2.3,0,0,0-1.3,1.3,10.3,10.3,0,0,0-.4,3.3c0,2.7.1,5.3.1,8s.1,5.8.1,8.7-.1,3-.2,4.5-.1,1.3-.1,2v.2h-.1a2.7,2.7,0,0,1-3.4.8,5.9,5.9,0,0,1-4.2-5.3,40.6,40.6,0,0,1,.1-4.5c0-.7.1-1.4.1-2.1s0-.9.1-1.3a20.4,20.4,0,0,0,0-3.1v-.6a10.4,10.4,0,0,1,.1-4.1,7.3,7.3,0,0,0-.2-3.6l-.3-1.4h-.6a5.1,5.1,0,0,0-1.8.1l-2.8,1.1-1.9.8a5.9,5.9,0,0,1-5.3-.4,6,6,0,0,1-2.8-4.6,7.1,7.1,0,0,1,0-1c0-.2,0-.4,0-.6a3.5,3.5,0,0,1,2.5-3.6l3.3-.9,1.2-.3,2.3-.6,4.6-1.1,1.1-.5.4-.2.2-.5.2-.6,1.2-13.3.4-4.9v-.4a5.3,5.3,0,0,1,.2-1.2c.5-1.8,1.6-2,2.2-2a4.2,4.2,0,0,1,2.6.9,7,7,0,0,1,2,6c-.2,1.8-.3,3.6-.4,5.5s-.3,3.8-.4,5.6-.1,2.4.8,3.2h.7l21.8-.4.4-.2h.2a6.5,6.5,0,0,0,.9-3.5v-.5c.1-1.3.2-2.6.3-3.9s.3-4.8.7-7.3a24.3,24.3,0,0,0-1.4-11.4v-.3c.7-2.2,2-2.8,2.9-2.9a5.9,5.9,0,0,1,3.2.6c3.3,1.6,4.2,3.2,3.9,7s-.4,6.1-.6,9.1-.6,8-.9,12.1-.5,5.9-.8,8.7l-.5,4.9v.5a3,3,0,0,0,0,1.3,1.8,1.8,0,0,0,1,.9,5.9,5.9,0,0,0,2.3-.2,4.2,4.2,0,0,1,4,1.6,14.2,14.2,0,0,1,3.8,8.5,10.9,10.9,0,0,0,3.2,6.3,4.7,4.7,0,0,0,4.6,1.4,5,5,0,0,0,4-2.9l-.5-1.5c-.5-1.4-.9-2.8-1.3-4.3-1.3-5.4-.7-9.9,1.8-13.6a25.3,25.3,0,0,1,4.2-4.5,3.1,3.1,0,0,1,3.9-.1,9.7,9.7,0,0,1,4,6.6,34,34,0,0,1,.1,11.8c-.2,1.2-.4,2.5-.6,3.8l-.3,1.6.4.3a5.6,5.6,0,0,0,1.6.8,10.8,10.8,0,0,0,9-1.9l.2-.2h.3c3.1,1.3,3.2,1.4,4.8,4v.2l-.2.9c-.4,1.7-.9,3.7-2.9,4.8a12.5,12.5,0,0,1-8.2,1.4l-4-.9-1.4-.4a7.5,7.5,0,0,0-5.9.7,16.6,16.6,0,0,1-5.8,2.3Zm-15.9-13h.8l.7,1,1.6,2.3.7,1a26.3,26.3,0,0,0,2.3,2.9,13,13,0,0,0,11.8,4.4,15.6,15.6,0,0,0,5.4-2.1,8.5,8.5,0,0,1,6.7-.9l1.4.4,3.9.9a11.4,11.4,0,0,0,7.5-1.3c1.5-.8,1.9-2.4,2.4-4.1V528c-1.3-2.1-1.4-2.2-3.9-3.3a11.7,11.7,0,0,1-9.6,1.9,6.4,6.4,0,0,1-1.9-.9l-.7-.4-.3-.2.4-2.4c.2-1.3.4-2.5.6-3.8a33,33,0,0,0-.1-11.4c-.6-2.9-1.7-4.7-3.6-6a2.1,2.1,0,0,0-2.7,0,24.3,24.3,0,0,0-4,4.3c-2.4,3.5-2.9,7.6-1.7,12.7.4,1.4.8,2.8,1.3,4.2l.6,1.7v.4a6.1,6.1,0,0,1-4.9,3.7,5.8,5.8,0,0,1-5.6-1.7,11.9,11.9,0,0,1-3.5-6.9,13.1,13.1,0,0,0-3.5-7.9c-1-1-1.8-1.5-3.1-1.3a6.9,6.9,0,0,1-2.7.2,2.8,2.8,0,0,1-1.7-1.6,3.8,3.8,0,0,1-.1-1.8v-.4l.5-4.9c.3-2.9.5-5.8.8-8.7s.6-8,.9-12,.4-6.1.6-9.1-.4-4.5-3.3-5.9a4.9,4.9,0,0,0-2.6-.5c-.9.1-1.6.8-2,2a25.3,25.3,0,0,1,1.4,11.7c-.3,2.4-.5,4.8-.6,7.2s-.2,2.6-.3,3.9v.5a7.2,7.2,0,0,1-1.2,4.1h-.5a2,2,0,0,1-.9.3l-21.8.4-.9-.2h-.5c-1.3-1.1-1.3-2.6-1.2-4.1s.3-3.7.4-5.6.3-3.7.4-5.5a6,6,0,0,0-1.6-5.2,3.1,3.1,0,0,0-1.9-.6c-.5,0-.9.4-1.2,1.3a4.5,4.5,0,0,0-.1,1v.4l-.4,4.9-1.2,13.3a2.9,2.9,0,0,1-.3.9l-.3.7v.2h-.2l-.6.3-1.4.6-4.6,1.1-2.3.6-1.2.3-3.1.8a2.4,2.4,0,0,0-1.8,2.6c0,.2,0,.4,0,.6a6.1,6.1,0,0,0,0,.8,5,5,0,0,0,2.3,3.8,4.8,4.8,0,0,0,4.3.3l1.8-.8,2.9-1.2a5.9,5.9,0,0,1,2.2-.1h1.5v.5c.1.6.2,1.2.4,1.8a8.2,8.2,0,0,1,.2,4.1,9.4,9.4,0,0,0-.1,3.7v.6a21,21,0,0,1,0,3.3c0,.4,0,.9-.1,1.3s-.1,1.4-.1,2.1a40.1,40.1,0,0,0-.1,4.4,4.9,4.9,0,0,0,3.5,4.4c1,.4,1.6.3,2.1-.3v-1.8c.1-1.5.2-3,.2-4.4s-.1-5.8-.1-8.7-.1-5.3-.1-8a11.2,11.2,0,0,1,.4-3.7,3.3,3.3,0,0,1,2.1-2,80.9,80.9,0,0,1,9.5-1.6,100.1,100.1,0,0,1,10.2-.2,5.4,5.4,0,0,1,2.1.6l.9.4h.4v2.7c-.1,1.6-.1,3.1-.2,4.5v.7c-.3,4.2-.5,8.6-.9,12.9a13.2,13.2,0,0,0,.6,5.4l.3.3,1.2,1.1a3.2,3.2,0,0,0,4.3.2,16.6,16.6,0,0,0,2.4-3,21.1,21.1,0,0,0,1.1-1.9l.9-1.6A2.5,2.5,0,0,1,907.4,523.9Z" transform="translate(-312.1 -462.2)" fill="#e64c4e" stroke="#e64c4e" stroke-miterlimit="10"/>
  </g>
  <g>
    <path d="M680.3,506.8c3.2.7,5.8-.3,8.4-.6s4.7-.7,7-.8a6.6,6.6,0,0,1,6.5,4.6,3.7,3.7,0,0,1,.2,1.5,10,10,0,0,1-.4,1.7c-6.3.6-12.7,1.2-18.8,3.6a5.4,5.4,0,0,0-1.2,1c-.6,2-.1,4-.1,6s.1,5.7-.1,8.6-2.6,3.2-4.5,1.7a6.3,6.3,0,0,1-2.7-4.1,42.7,42.7,0,0,1-.4-5c0-1.7.3-3.4-.5-5s-3.1-1.2-4.7-1.4c-3.2-.6-5-2.6-6.1-5.4a2.3,2.3,0,0,1,2.2-3.2h3.5l3-.3a4.6,4.6,0,0,0,1.1-.6c.3-1.7-.3-3.5-.5-5.3a36.5,36.5,0,0,0-1.1-5.5c-1.7-6-3.5-12-5-18a69.1,69.1,0,0,1-1.5-10c-.2-2.4,1.1-4.2,3.3-5.1a18.6,18.6,0,0,1,8.4-1.3c5.6.3,11.1,1.2,16.6,1.9a26,26,0,0,1,7.8,2.1,9,9,0,0,1,5,6,2.5,2.5,0,0,1-.5,1.8c-.2.3-.9.3-1.4.4h-.5c-4.8-2.4-10.1-2.5-15.3-2.9-2.5-.2-5-.6-7.6-.6a28.8,28.8,0,0,0-5.5.4,2.5,2.5,0,0,0-2.2,2.9,28.7,28.7,0,0,0,1.1,7c1.2,3.2,1.7,6.5,2.6,9.8S679,501.8,680.3,506.8Z" transform="translate(-312.1 -462.2)" fill="#e64c4e" stroke="#e64c4e" stroke-miterlimit="10"/>
    <path d="M679.4,535.3a3.7,3.7,0,0,1-2.3-.9,6.9,6.9,0,0,1-2.9-4.5v-.8a34.8,34.8,0,0,1-.3-4.3c0-.3,0-.7,0-1a8,8,0,0,0-.4-3.7,4.7,4.7,0,0,0-3.1-1.1L669,519c-3-.5-5.2-2.4-6.5-5.8a2.8,2.8,0,0,1,.2-2.6,3,3,0,0,1,2.4-1.4h3.6l3-.3.4-.2.3-.2a10.8,10.8,0,0,0-.3-3.2c-.1-.6-.2-1.1-.3-1.7a36.1,36.1,0,0,0-1.1-5.4l-1.9-6.8c-1.1-3.7-2.2-7.5-3.1-11.3a69.8,69.8,0,0,1-1.5-10.1c-.2-2.5,1.1-4.5,3.7-5.7a19.1,19.1,0,0,1,8.7-1.4c4.5.2,9.1.9,13.5,1.5l3.2.4a26.9,26.9,0,0,1,7.9,2.1,9.5,9.5,0,0,1,5.3,6.3,2.9,2.9,0,0,1-.5,2.2,1.8,1.8,0,0,1-1.3.5h-1.2c-4.2-2.1-8.8-2.4-13.2-2.7h-1.9l-2.9-.3-4.6-.4a28.3,28.3,0,0,0-5.4.4,2,2,0,0,0-1.8,2.3v1.1a23.2,23.2,0,0,0,1,5.8,54.5,54.5,0,0,1,1.8,6.5c.3,1.1.5,2.2.8,3.3l2.6,10,1.1,4.2a15.5,15.5,0,0,0,5.8-.3l2.2-.4,2-.3a49.2,49.2,0,0,1,5.1-.5,7.1,7.1,0,0,1,7.1,5,4.3,4.3,0,0,1,.2,1.7,5,5,0,0,1-.3,1.2l-.2.6v.4h-1c-6,.6-12.2,1.2-17.9,3.5l-.6.5-.3.3a10.5,10.5,0,0,0-.1,3.8c.1.6.1,1.3.1,2s0,1.7,0,2.5,0,4.1-.1,6.1a3.1,3.1,0,0,1-1.8,2.7Zm-13.4-25h-.9a2,2,0,0,0-1.6.9,1.7,1.7,0,0,0-.1,1.6c1.2,3,3,4.6,5.7,5.1h1.1a5.6,5.6,0,0,1,3.9,1.5h.1a8.8,8.8,0,0,1,.6,4.3c0,.3,0,.6,0,1a34.2,34.2,0,0,0,.3,4.1v.8a5.9,5.9,0,0,0,2.5,3.8,2.4,2.4,0,0,0,2.5.5,2,2,0,0,0,1.2-1.8c.1-2,.1-4,.1-6s0-1.7,0-2.6,0-1.3-.1-1.9a11.1,11.1,0,0,1,.2-4.3h.2l.4-.3a3.1,3.1,0,0,1,1-.7c5.9-2.4,12.2-3,18.2-3.6h.3v-.3a4.2,4.2,0,0,0,.2-.9,3.3,3.3,0,0,0-.1-1.3,6.1,6.1,0,0,0-6-4.3,48.5,48.5,0,0,0-4.9.5l-2,.3-2.1.4a15.8,15.8,0,0,1-6.5.3h-.3l-1.2-4.9-2.6-9.9c-.3-1.1-.5-2.2-.8-3.3a53.5,53.5,0,0,0-1.8-6.4,24,24,0,0,1-1.1-6v-1a3,3,0,0,1,2.7-3.5,29.4,29.4,0,0,1,5.6-.4l4.7.4,2.9.3h1.9c4.6.3,9.3.6,13.6,2.8H705a2,2,0,0,0,.4-1.3,8.4,8.4,0,0,0-4.7-5.7,25.9,25.9,0,0,0-7.6-2l-3.2-.4c-4.4-.6-8.9-1.2-13.4-1.5a17.8,17.8,0,0,0-8.2,1.3,4.4,4.4,0,0,0-3,4.6,68.9,68.9,0,0,0,1.5,9.9c.9,3.8,2,7.6,3.1,11.2l1.9,6.8a37.1,37.1,0,0,1,1.1,5.5c.1.5.2,1.1.3,1.6a10.8,10.8,0,0,1,.2,3.8v.2H673l-.5.3-.8.4-3.1.3H666Z" transform="translate(-312.1 -462.2)" fill="#e64c4e" stroke="#e64c4e" stroke-miterlimit="10"/>
  </g>
  <g>
    <path d="M1025.2,526c1.2-3.1,2.1-5.4,2.9-7.8a4.3,4.3,0,0,0,.2-2c-.4-2.6.7-5,.8-7.5a3.7,3.7,0,0,1,1.8-2.9,11.3,11.3,0,0,1,7-2.4c4,.1,8.1,0,12.1,1.1a13.4,13.4,0,0,1,6,3.6,2.7,2.7,0,0,1,.9,2.7,3.4,3.4,0,0,1-3,2.3,15.2,15.2,0,0,1-2.5-.5,23,23,0,0,0-11.5.7,4.9,4.9,0,0,0-1,.7c-.2.8-.6,1.7-.8,2.7l-3.1,12.3a2.8,2.8,0,0,1-4.3,2c-1.2-.6-2.3-1.4-3.3-2.1l-.6.2c-1.8,3-4.7,3.9-7.9,4.6a42.1,42.1,0,0,1-17.1.1c-5.3-1-8.8-4.6-9.4-9.8a19.2,19.2,0,0,1,.3-7,109.8,109.8,0,0,1,4-10.9,9.4,9.4,0,0,1,1.3-2.1c5.3-3.9,9.2-3.9,14.8-2.6a3.5,3.5,0,0,1,1.8,2.9c0,1.4-7,2.7-8,3.8-3.8,4.3-5.7,9.4-6.8,15a2.5,2.5,0,0,0,2.1,3,7,7,0,0,0,2,.3,114.2,114.2,0,0,0,12.6-1.1C1019.5,524.7,1022.3,524,1025.2,526Z" transform="translate(-312.1 -462.2)" fill="#e64c4e" stroke="#e64c4e" stroke-miterlimit="10"/>
    <path d="M1010.1,535.1a43.1,43.1,0,0,1-8.3-.8c-5.5-1.1-9.2-4.9-9.8-10.3a19.4,19.4,0,0,1,.3-7.2,77.2,77.2,0,0,1,3-8.5l1-2.5a9.5,9.5,0,0,1,1.4-2.2l.2-.2c5.4-3.9,9.5-4,15.2-2.7h.1a4,4,0,0,1,2.1,3.4c0,1.1-1.8,1.8-4.8,2.8a13.4,13.4,0,0,0-3.3,1.3c-3.3,3.7-5.5,8.4-6.7,14.7a1.9,1.9,0,0,0,1.7,2.3h.3a5.3,5.3,0,0,0,1.5.2l3.3-.2a73.5,73.5,0,0,0,9.2-.9h.5c2.7-.5,5.4-1,8.2.6l.7-1.9,1.9-5.3a3.8,3.8,0,0,0,.2-1.7,14.1,14.1,0,0,1,.4-4.8,20.8,20.8,0,0,0,.4-2.8,4.3,4.3,0,0,1,2-3.3,12,12,0,0,1,7.3-2.5h2.2a36.9,36.9,0,0,1,9.9,1.1,13.8,13.8,0,0,1,6.2,3.7,3.2,3.2,0,0,1,1,3.2,3.9,3.9,0,0,1-3.5,2.7l-1.9-.3h-.6a22.3,22.3,0,0,0-11.2.6l-.4.3-.3.3-.2.6c-.2.6-.4,1.2-.6,1.9l-1.5,6-1.6,6.3a3.3,3.3,0,0,1-5,2.3l-2.4-1.4-.8-.5h-.1c-2,3.2-5.3,4.1-8.2,4.8A42.9,42.9,0,0,1,1010.1,535.1Zm-11.7-30.9a8.7,8.7,0,0,0-1.2,2l-1,2.5a76.4,76.4,0,0,0-3,8.3,18.3,18.3,0,0,0-.2,6.8c.6,4.9,3.9,8.3,9,9.4a41.3,41.3,0,0,0,16.8-.1c3.5-.7,6-1.7,7.6-4.4a.9.9,0,0,1,.6-.4h.6l1,.6,2.3,1.4a2.2,2.2,0,0,0,3.5-1.6l1.6-6.2,1.5-6c.2-.7.4-1.4.6-2l.2-.7v-.2h.1l.4-.3.8-.5a23.4,23.4,0,0,1,11.7-.7l.7.2,1.7.3a2.9,2.9,0,0,0,2.5-1.9,2.1,2.1,0,0,0-.8-2.2,12.8,12.8,0,0,0-5.8-3.4,36.1,36.1,0,0,0-9.7-1.1h-2.3a10.8,10.8,0,0,0-6.7,2.3,3.2,3.2,0,0,0-1.5,2.5,21.9,21.9,0,0,1-.4,3,13,13,0,0,0-.4,4.5,4.8,4.8,0,0,1-.3,2.2l-2,5.3-1.2,3.1-.6-.4c-2.6-1.8-5.1-1.3-7.9-.8h-.5a74.4,74.4,0,0,1-9.3.9l-3.3.2a6.1,6.1,0,0,1-1.9-.3h-.3a3,3,0,0,1-2.5-3.6c1.3-6.5,3.5-11.4,6.9-15.2.5-.5,1.7-1,3.7-1.6s3.9-1.3,4.1-1.8a3,3,0,0,0-1.4-2.4C1007.1,500.6,1003.4,500.6,998.4,504.3Z" transform="translate(-312.1 -462.2)" fill="#e64c4e" stroke="#e64c4e" stroke-miterlimit="10"/>
  </g>
  <g>
    <path d="M1090.9,507.9c1.6-1.3,3.1-1.6,4.5-.8a5.8,5.8,0,0,1,3.1,4.8c.1,2,0,4,0,5.9a10.3,10.3,0,0,0,.2,1.6,1.3,1.3,0,0,0,1.8-.5c1.1-1.8,2.1-3.7,3.1-5.6a4.6,4.6,0,0,1,4-2.9c3.1,2.5,4.7,5.6,4,9.8-.2,1-.5,2.2.8,2.7s1.6-.6,2.2-1.3a14.1,14.1,0,0,0,4-9.9c0-2.4,0-4.9.1-7.3a27.4,27.4,0,0,1,.4-3c1.9-1,3.1-.5,4.2.9a12.6,12.6,0,0,1,2.1,5c1.2,6.6.7,13-2.9,18.9a15.1,15.1,0,0,1-4.9,4.7c-2.5,1.6-4.3,1.5-6.7-.3l-4.8-3.8-1.7,1.4-4.6,3.7a3.7,3.7,0,0,1-4.3.1,8.7,8.7,0,0,1-4.7-6.4,33.9,33.9,0,0,1-.4-5.5c0-3.6.1-7.3.2-10.9A9.4,9.4,0,0,1,1090.9,507.9Z" transform="translate(-312.1 -462.2)" fill="#e64c4e" stroke="#e64c4e" stroke-miterlimit="10"/>
    <path d="M1097.7,533.3a5,5,0,0,1-2.4-.7,9.1,9.1,0,0,1-4.9-6.7,34.3,34.3,0,0,1-.5-5.5c0-3,.1-6,.2-8.9v-2.1a4.6,4.6,0,0,1,.2-1v-.7h.1c1.8-1.5,3.5-1.8,5-.8a6.3,6.3,0,0,1,3.3,5.2c0,1.2,0,2.4,0,3.6s0,1.6,0,2.4a5.7,5.7,0,0,0,.1,1.1v.2a.7.7,0,0,0,.9-.3c1.1-1.8,2.1-3.7,3.1-5.5a5,5,0,0,1,4.4-3.1h.3c3.5,2.9,4.9,6.2,4.2,10.3v.3c-.2,1.1-.2,1.7.6,1.9s.8-.1,1.3-.7l.4-.4a13.6,13.6,0,0,0,3.8-9.6v-1.8c0-1.8,0-3.7.1-5.6a16.2,16.2,0,0,1,.3-2.2v-1.1h.2c2-1,3.6-.7,4.8,1a13.1,13.1,0,0,1,2.2,5.2c1.4,7.5.4,13.8-3,19.2a15.5,15.5,0,0,1-5,4.9c-2.6,1.7-4.7,1.6-7.2-.3l-3.2-2.6-1.2-1-.2.2-1.2,1-1.2.9-3.5,2.8A4,4,0,0,1,1097.7,533.3Zm-6.4-25.1v.4a3.9,3.9,0,0,0-.2.8v2.1c-.1,2.9-.2,5.9-.2,8.9a33.4,33.4,0,0,0,.4,5.4,8.2,8.2,0,0,0,4.4,6,3.3,3.3,0,0,0,3.8-.1l3.4-2.7,1.2-.9,1.1-1,.8-.7.3.2,1.6,1.3,3.2,2.5c2.2,1.7,3.8,1.8,6.1.3a14.6,14.6,0,0,0,4.7-4.6c3.3-5.3,4.2-11.3,2.9-18.5a12.2,12.2,0,0,0-2-4.8,2.3,2.3,0,0,0-3.3-.9v.6a15.1,15.1,0,0,0-.3,2c-.1,1.8-.1,3.7-.1,5.5v1.8a14.7,14.7,0,0,1-4.1,10.2l-.3.4c-.5.6-1.2,1.4-2.4,1s-1.4-2-1.2-3v-.3c.6-3.6-.6-6.7-3.7-9.3a4.1,4.1,0,0,0-3.4,2.6c-.9,1.9-2,3.8-3.1,5.6a1.7,1.7,0,0,1-2.4.7h-.2v-.7a6.5,6.5,0,0,1-.2-1.2c0-.8,0-1.6,0-2.4s0-2.4,0-3.5a5.4,5.4,0,0,0-2.9-4.4C1094,506.8,1092.7,507,1091.3,508.1Z" transform="translate(-312.1 -462.2)" fill="#e64c4e" stroke="#e64c4e" stroke-miterlimit="10"/>
  </g>
  <g>
    <path d="M357.4,499.4c-1.3,2.7-1.1,5.5-.8,8.4s.6,4,.7,6c.2,4.1,1.1,8,1.7,12.1l4,1.2a6.8,6.8,0,0,1,.2,5c-.7,2.6-2.9,3.5-5.5,4.1a9.4,9.4,0,0,1-4.3-5.8,75,75,0,0,1-1.8-8.9,96.4,96.4,0,0,1-1.1-14.1,35.1,35.1,0,0,0-.5-4.2l-2.6-.4a6.4,6.4,0,0,1-5.1-7.9,4.6,4.6,0,0,1,1.9-2.2,8.2,8.2,0,0,1,2.4-.7c2.2-.7,2.7-1.4,2.2-3.7s-1.4-4.9-2-7.3,0-4.2,2.2-5.7a2.8,2.8,0,0,1,3.7.2,6.1,6.1,0,0,1,2.1,5.9,13.7,13.7,0,0,0,.8,6.7c1,1.1,2,.8,3,.7l21.6-2.9a7.8,7.8,0,0,1,6.5,2c2.2,1.9,1.2,4.8-1.2,5.7a10,10,0,0,1-2,.4L365,496.5A16.4,16.4,0,0,0,357.4,499.4Z" transform="translate(-312.1 -462.2)" fill="#e64c4e" stroke="#e64c4e" stroke-miterlimit="10"/>
    <path d="M357.6,536.7h-.2a9.9,9.9,0,0,1-4.5-6.1,76.2,76.2,0,0,1-1.8-9,96.2,96.2,0,0,1-1.1-14.1,17.3,17.3,0,0,0-.3-2.6l-.2-1h-.5l-1.7-.3a7.3,7.3,0,0,1-4.7-3.2,7,7,0,0,1-.8-5.4,5.1,5.1,0,0,1,2.1-2.5,4.4,4.4,0,0,1,1.8-.6l.8-.2c2-.6,2.3-1.1,1.9-3.1s-.7-2.9-1.2-4.4l-.8-2.9c-.7-2.7,0-4.6,2.4-6.3a3.3,3.3,0,0,1,4.4.2,6.7,6.7,0,0,1,2.3,6.4,13,13,0,0,0,.7,6.3,2.2,2.2,0,0,0,2.3.5h.2l13.1-1.8,8.4-1.1a8.3,8.3,0,0,1,7,2.2,3.8,3.8,0,0,1,1.3,3.5,4.1,4.1,0,0,1-2.7,3l-1.6.3h-.5l-6.3.9-12.2,1.9a16.2,16.2,0,0,0-7.3,2.6c-1.2,2.5-1,5.3-.7,8l.2,1.9c.2,1.3.4,2.7.4,4.1a64,64,0,0,0,1,8c.2,1.2.4,2.4.6,3.6l3.9,1.2v.2a7.4,7.4,0,0,1,.3,5.4c-.7,3-3.3,3.9-5.9,4.5Zm-6.8-61.6a2.6,2.6,0,0,0-1.5.5c-2,1.4-2.5,2.9-2,5.1l.8,2.9c.4,1.4.9,2.9,1.2,4.4s0,3.5-2.6,4.3l-.9.2a3.7,3.7,0,0,0-1.4.5,4.1,4.1,0,0,0-1.7,1.9,5.9,5.9,0,0,0,.7,4.6,6.3,6.3,0,0,0,4.1,2.7l1.6.3h1.3v.4l.2,1.4a18,18,0,0,1,.3,2.8,95.3,95.3,0,0,0,1.1,14,75.4,75.4,0,0,0,1.7,8.8,8.8,8.8,0,0,0,3.9,5.3c2.6-.6,4.4-1.5,4.9-3.7a6.5,6.5,0,0,0-.1-4.4l-4.1-1.3v-.3c-.2-1.3-.4-2.6-.6-3.9a65.7,65.7,0,0,1-1-8.2c-.1-1.3-.2-2.7-.4-4l-.2-1.9c-.3-2.8-.5-5.8.8-8.7h.2A17,17,0,0,1,365,496l12.2-1.9,6.8-1,1.4-.3a3.1,3.1,0,0,0,2-2.2,2.7,2.7,0,0,0-1-2.5,7.2,7.2,0,0,0-6.1-1.9l-8.4,1.1-13.1,1.8h-.2a3.2,3.2,0,0,1-3.3-.9h-.1a14.1,14.1,0,0,1-.8-6.9,5.6,5.6,0,0,0-1.9-5.4A2.3,2.3,0,0,0,350.8,475.1Z" transform="translate(-312.1 -462.2)" fill="#e64c4e" stroke="#e64c4e" stroke-miterlimit="10"/>
  </g>
  <g>
    <path d="M795,516c-2.5,1.6-3.5,8.1-4.5,9.9a12.7,12.7,0,0,1-3.3,3.8,4.5,4.5,0,0,1-5.6.5c-1.9-1.1-3.7-8.8-4.9-10.7s-1.4-1.8-2.2-2.8c-2.3,2.4-2.3,13.9-4.9,15.8a7.8,7.8,0,0,1-5.2-1.3c-1.5-.8-2.6-3.7-2.7-5.6s-.2-9.9-.2-12.6.9-1.9,2.4-2h2.7l1.4-3.7c1.3-3.9,5.1-4.8,7.8-1.8a18,18,0,0,1,4.3,6.7,2.8,2.8,0,0,0,2.1,2.3,6.8,6.8,0,0,0,1.2-1.3,14.7,14.7,0,0,0,1.3-2.8c1.3-4.1,4.2-5.9,8.4-5.8,4.9,2.1,8,6,10.1,10.7s3.2,13.3,5.3,18.4a2.7,2.7,0,0,1-.5,2.8,2.6,2.6,0,0,1-2.7.9c-2-.5-4-1.3-4.9-3.2s-2-3.4-2.3-6.3S796.3,518.8,795,516Z" transform="translate(-312.1 -462.2)" fill="#e64c4e" stroke="#e64c4e" stroke-miterlimit="10"/>
    <path d="M805.8,538.3h-.9c-2.7-.6-4.4-1.8-5.3-3.5s.5.5.2.1a17.3,17.3,0,0,1-2.6-6.6c-.2-2.1-1.2-8.6-2.2-10.8l-.3-.5c-2,1.5-2.9,7.6-3.8,9.3h-.1a13.1,13.1,0,0,1-3.4,3.9,5,5,0,0,1-6.2.5c-1.7-1-3.7-8.8-5.1-10.9l-1.4-1.8-.4-.4a13.6,13.6,0,0,0-1.6,3.1c-.7,1.6-1.4,11.2-3,12.4h-.2a8.2,8.2,0,0,1-5.6-1.3c-1.8-1-2.8-4.1-2.9-6s-.2-10.2-.2-12.6,1.1-2.5,2.9-2.5h2.3l.3-.8.9-2.6a5.4,5.4,0,0,1,3.9-3.8,5.1,5.1,0,0,1,4.8,1.9,18.4,18.4,0,0,1,4.4,6.9c.3.9.5,1.5,1.4,1.9h.1a3.7,3.7,0,0,0,.7-.8,14.1,14.1,0,0,0,1.2-2.7c1.4-4.1,4.4-6.2,8.9-6.2h.2c4.6,2,8,5.6,10.4,11,1.6,3.5,3,11.7,4.4,15.2.6,1.6.2,1.6.9,3.2a3.2,3.2,0,0,1-.6,3.4A3,3,0,0,1,805.8,538.3Zm-10.6-23.1.8,1.7c1.1,2.3,2.1,8.9,2.3,11.2a16.3,16.3,0,0,0,2.4,6.2c.3.5-.5-.5-.2,0s2.3,2.4,4.6,2.9a2,2,0,0,0,2.2-.7,2.2,2.2,0,0,0,.4-2.3c-.6-1.6-.3-1.6-.9-3.2-1.4-3.5-2.9-11.7-4.4-15.2-2.2-5.1-5.4-8.5-9.7-10.4h-.1c-4,0-6.6,1.8-7.8,5.4a15.3,15.3,0,0,1-1.3,2.9,4.6,4.6,0,0,1-.9,1.1l-.3.3-.2.2h-.3a3.3,3.3,0,0,1-2.5-2.7,17.5,17.5,0,0,0-4.2-6.5,4.1,4.1,0,0,0-3.8-1.5,4.4,4.4,0,0,0-3.1,3.2l-.9,2.6-.6,1.5h-3.1c-1.7,0-1.9.8-1.9,1.4,0,2.4.1,9.5.2,12.5s.9,4.3,2.4,5.1a7.5,7.5,0,0,0,4.8,1.3c1.3-1,1.9-10.4,2.5-11.8a12.5,12.5,0,0,1,2.2-3.8l.4-.4.4.5.8.9a20.2,20.2,0,0,1,1.5,1.9c1.1,1.7,2.7,9.3,4.8,10.5a4,4,0,0,0,5-.4,12.1,12.1,0,0,0,3.1-3.6h.1c1-1.9,2.1-8.3,4.7-10Z" transform="translate(-312.1 -462.2)" fill="#e64c4e" stroke="#e64c4e" stroke-miterlimit="10"/>
  </g>
  <g>
    <path d="M586.6,513.2c-.8-.5-1.2-.9-1.7-.9-2.8-.2-4.5-2.2-6.4-3.9s-1.1-5.2,1.6-6a19.2,19.2,0,0,1,3.3-.4l2.3-.2c1.7-3.2-.2-13.8,1.7-17.3l1.6-1,2.3-.9c2.3,1.2,3.8,2.9,3.9,5.5,0,.7-.2,8.5-.3,9.3s-.5,1.5-.7,2.2a9.1,9.1,0,0,0,.1,1.9c1.7,1.1,3.5.6,5.2.4l14.1-2.3h1.9c4.4,3.2,4.4,3.3,2.9,7.3a118.7,118.7,0,0,1-17,3.9,19.2,19.2,0,0,0-2.4.2c-3.4,1-5.3,1.3-5.1,6.5s.5,8.5.5,12.8a16.5,16.5,0,0,1,0,1.9c-.2,1.7-2.3,2.8-3.6,1.8s-4.5-3.5-4.3-6.9.1-5.7.1-8.5S586.6,515.1,586.6,513.2Z" transform="translate(-312.1 -462.2)" fill="#e64c4e" stroke="#e64c4e" stroke-miterlimit="10"/>
    <path d="M591.9,534.9a2.2,2.2,0,0,1-1.5-.5l-.4-.4c-2.1-1.7-4.2-3.5-4-6.9s.1-4.1.1-6.1,0-1.6,0-2.4,0-2.3,0-3.6v-1.5l-.5-.3-.7-.4c-2.5-.2-4.1-1.7-5.7-3.1l-1-.9a3.7,3.7,0,0,1-1.2-3.7,4.2,4.2,0,0,1,3-3.2,11.3,11.3,0,0,1,2.4-.3h3.1a9.8,9.8,0,0,0,.6-4.5c0-1.8-.1-10.7.9-12.6h.1l.3-.2,1.4-.8,1.6-.6.7-.3h.4c2.7,1.4,4.1,3.3,4.2,5.9,0,.8-.1,8.5-.3,9.2v.2l-.3,1a7.4,7.4,0,0,0-.3,1.2,4.6,4.6,0,0,0,0,1.2v.3a5.6,5.6,0,0,0,4,.3h.6l8.7-1.4,5.3-.9h2.2c4.5,3.4,4.7,3.7,3.1,7.9v.2h-.2a119.5,119.5,0,0,1-17.1,3.9h-2.8c-3.1.9-4.5,1.3-4.3,5.8.1,1.4.1,2.9.2,4.3s.3,5.6.3,8.4v.3a13.4,13.4,0,0,1,0,1.6,3,3,0,0,1-1.9,2.4Zm-4.1-50c-.8,1.6-.8,10.3-.8,12a10.2,10.2,0,0,1-.8,5.2v.2h-3.6a10.4,10.4,0,0,0-2.2.3,3.2,3.2,0,0,0-2.3,2.4,2.7,2.7,0,0,0,.9,2.7l1,.9c1.5,1.4,2.9,2.7,5.1,2.8a2.4,2.4,0,0,1,1.1.5l.7.4h.3V515c0,1.2,0,2.4,0,3.6s0,1.6,0,2.4,0,4.1-.1,6.1,1.7,4.5,3.7,6.1l.4.4a1.4,1.4,0,0,0,1.5.1,2,2,0,0,0,1.3-1.6,12.5,12.5,0,0,0,0-1.5v-.3c0-2.8-.2-5.6-.3-8.4s-.2-2.9-.2-4.4c-.2-5.3,1.9-5.9,5-6.8h.4l1.5-.2h.9a118.6,118.6,0,0,0,16.7-3.8c1.3-3.4,1.2-3.5-2.7-6.4h-1.6l-5.3.9-8.7,1.4h-.6c-1.5.3-3.2.5-4.9-.6h-.2v-.8a5.4,5.4,0,0,1,0-1.4,8.2,8.2,0,0,1,.4-1.3l.3-.9v-.2c.2-.7.3-8.3.3-9-.1-2.2-1.2-3.8-3.5-5l-.5.2-1.5.6-1.3.8Z" transform="translate(-312.1 -462.2)" fill="#e64c4e" stroke="#e64c4e" stroke-miterlimit="10"/>
  </g>
  <g>
    <path d="M336.7,509.4c-.7.8-1.5,1.4-2.6,1.1s-2.9-.6-4.1-1.7-2.3-2-3.9-2-.2,1.3.1,1.7c1.5,2.6,3.2,5.1,4.7,7.8s2.4,4.5,3.5,6.7a12.5,12.5,0,0,1,.8,6.9,3.7,3.7,0,0,1-2.7,3.3,16,16,0,0,1-10.4.2c-2.9-1-4.5-3.5-5.7-6.1-.4-.7.1-1.9.1-2.7,1.6-.8,2.9-.9,4.1-.2a7.9,7.9,0,0,0,4.3,1.1c1.4-.1,2.4-1.1,1.9-2.3a27.4,27.4,0,0,0-2-5.1,46.1,46.1,0,0,0-4.3-6.2c-3.5-4.2-5.5-9.2-7.1-14.4a3.1,3.1,0,0,1,0-.6,4.6,4.6,0,0,1,2.9-3.1,5.6,5.6,0,0,1,4.4-.1,43.5,43.5,0,0,1,15.1,9.9C337.2,505.2,337.1,507.3,336.7,509.4Z" transform="translate(-312.1 -462.2)" fill="#e64c4e" stroke="#e64c4e" stroke-miterlimit="10"/>
    <path d="M326.5,534.8a14.5,14.5,0,0,1-4.8-.8c-3.1-1.1-4.7-3.7-6-6.3a3.5,3.5,0,0,1,0-2.2,6.7,6.7,0,0,0,.1-.7v-.3h.3c1.8-.9,3.3-1,4.6-.2a7.3,7.3,0,0,0,4.1,1,1.7,1.7,0,0,0,1.4-.7,1,1,0,0,0,.1-.9l-.3-.8a22.4,22.4,0,0,0-1.7-4.3,45.6,45.6,0,0,0-4.3-6.1c-3.8-4.6-5.8-9.9-7.2-14.5a1.7,1.7,0,0,1-.1-.5V497h0a5.1,5.1,0,0,1,3.2-3.5,6.1,6.1,0,0,1,4.9-.1,44.1,44.1,0,0,1,15.3,10c1.9,1.9,1.6,4.4,1.2,6.2h-.1a3,3,0,0,1-3.2,1.2l-.8-.2a7.5,7.5,0,0,1-3.5-1.6c-1.1-1-2.1-1.8-3.4-1.8s-.1.2.2.7l.2.3,2.1,3.4,2.7,4.4c1.2,2.1,2.3,4.3,3.3,6.5l.2.3a13,13,0,0,1,.8,7.2,4.3,4.3,0,0,1-3.1,3.8A19.2,19.2,0,0,1,326.5,534.8Zm-9.8-9.7v.6a2.9,2.9,0,0,0-.1,1.5c1.4,2.8,2.8,4.9,5.4,5.8a15.4,15.4,0,0,0,10.1-.2,3.2,3.2,0,0,0,2.4-2.9c.3-2.6.2-4.7-.7-6.7l-.2-.3c-1-2.1-2.1-4.3-3.3-6.4l-2.6-4.3-2.1-3.4v-.2a1.4,1.4,0,0,1,.2-2.2h.3c1.8-.1,3.1,1,4.3,2.1a6.6,6.6,0,0,0,3.1,1.4l.9.2c.8.2,1.3-.1,2-.8.5-2.4.2-3.9-.9-5a43.1,43.1,0,0,0-14.9-9.7,5.1,5.1,0,0,0-4,.1,4.1,4.1,0,0,0-2.6,2.7v.2a1.2,1.2,0,0,0,0,.2c1.4,4.5,3.3,9.7,7,14.2a46.8,46.8,0,0,1,4.4,6.2,23.2,23.2,0,0,1,1.8,4.5l.2.7a2.1,2.1,0,0,1-.2,1.9,2.8,2.8,0,0,1-2.2,1.1,8.5,8.5,0,0,1-4.6-1.2A3.5,3.5,0,0,0,316.8,525.1Z" transform="translate(-312.1 -462.2)" fill="#e64c4e" stroke="#e64c4e" stroke-miterlimit="10"/>
  </g>
  <g>
    <path d="M569.4,528.3c-1.5.8-2.5,4.2-3.4,4.8a9,9,0,0,1-4.6,1.1,8.4,8.4,0,0,1-7.1-3.1,29.9,29.9,0,0,1-6.8-19.7,7.2,7.2,0,0,1,.4-2.3c.5-1.2,1.1-2.4,2.5-2.6a4.1,4.1,0,0,1,4.2,1.7,7.5,7.5,0,0,1,1.4,5.4,28.8,28.8,0,0,0-.1,5.7,7.9,7.9,0,0,0,.8,2.7c1.3,3,3.4,3.5,6.1,1.6a15.3,15.3,0,0,0,2.7-2.6c1.6-1.9,3.1-8.5,4.7-10.4a3.1,3.1,0,0,1,4.3-.3,6,6,0,0,1,2.3,4,125,125,0,0,1,.6,17.1,5.1,5.1,0,0,1-.3,1.4,2.5,2.5,0,0,1-2,1.8,2.5,2.5,0,0,1-2.5-1.1C571.4,531.9,570.5,530.2,569.4,528.3Z" transform="translate(-312.1 -462.2)" fill="#e64c4e" stroke="#e64c4e" stroke-miterlimit="10"/>
    <path d="M574.6,535a2.9,2.9,0,0,1-2.5-1.3l-2.1-3.5-.7-1.3-.9.5c-.8.4-1.4,3.7-2.1,4.1a9.5,9.5,0,0,1-4.8,1.2,8.9,8.9,0,0,1-7.5-3.3,30.2,30.2,0,0,1-6.9-20,7.6,7.6,0,0,1,.4-2.5c.4-.9,1-2.7,2.9-2.9s3.7.4,4.6,1.9a8.1,8.1,0,0,1,1.5,5.7,28.4,28.4,0,0,0-.1,5.6,7.2,7.2,0,0,0,.7,2.5,3.8,3.8,0,0,0,2.2,2.4,3.8,3.8,0,0,0,3.1-1,14.7,14.7,0,0,0,2.7-2.5c1-1.2,1.9-6.9,2.8-8.1l1.8-2.3a3.3,3.3,0,0,1,2.3-1.2,3.6,3.6,0,0,1,2.7.8,6.5,6.5,0,0,1,2.4,4.4v1.3a117.1,117.1,0,0,1,.5,15.9,5.6,5.6,0,0,1-.3,1.5A3,3,0,0,1,575,535Zm-4.9-7.4.2.4,1,1.7,2,3.4a2,2,0,0,0,2,.8,2,2,0,0,0,1.6-1.4,4.6,4.6,0,0,0,.3-1.2,116.5,116.5,0,0,0-.5-15.8v-1.3a5.5,5.5,0,0,0-2.1-3.7,2.6,2.6,0,0,0-2-.6,2.3,2.3,0,0,0-1.6.8l-1.8,2.3c-.9,1.2-1.9,6.9-2.9,8.1a15.8,15.8,0,0,1-2.8,2.7,4.7,4.7,0,0,1-4,1.1,4.7,4.7,0,0,1-2.8-2.9,8.2,8.2,0,0,1-.8-2.9,29.2,29.2,0,0,1,.1-5.8,6.9,6.9,0,0,0-1.3-5c-.7-1.1-1.9-1.6-3.7-1.4s-1.6.9-2.1,2.2a6.8,6.8,0,0,0-.3,2.2,29.2,29.2,0,0,0,6.7,19.4,8,8,0,0,0,6.7,2.9,8.4,8.4,0,0,0,4.3-1c.6-.4,1.3-3.7,2.1-4.1l1.3-.7Z" transform="translate(-312.1 -462.2)" fill="#e64c4e" stroke="#e64c4e" stroke-miterlimit="10"/>
  </g>
  <g>
    <path d="M405.4,508.6a27.1,27.1,0,0,0,8-4c2.1-1.5,4.7-1.1,6.8.3,6.7,4.5,9.3,19.3,9.7,27a4.1,4.1,0,0,1-.2,1.1,1.9,1.9,0,0,1-2.2,1.1,6.5,6.5,0,0,1-3.4-3.5c-1.1-2.5-2.5-13-5-14.9-.7.7-3.5.2-3.8.9s.6,12.4-.1,14.1a4.1,4.1,0,0,1-6.9,1.1c-2-2.5-3.4-13.2-3-16.7A52,52,0,0,0,405.4,508.6Z" transform="translate(-312.1 -462.2)" fill="#e64c4e" stroke="#e64c4e" stroke-miterlimit="10"/>
    <path d="M428,534.8h-.7a7.1,7.1,0,0,1-3.7-3.8c-1.2-2.6-2.9-13.6-5-15.4l-.3.3c-.4.4-2.3.7-2.5,1.1s-.4,11-.8,12,1,1.4.7,2.1a4.7,4.7,0,0,1-3.7,2.8,4.5,4.5,0,0,1-4.1-1.6c-1.7-2.1-3.6-13.1-3.1-17.1a27.2,27.2,0,0,0,.1-4.4c0-.7,0-1.4,0-2.2v-.4h.4a26.4,26.4,0,0,0,7.9-3.9c2.1-1.5,4.9-1.4,7.5.3,6.2,4.2,9.5,18.6,10,27.5a3.2,3.2,0,0,1-.1,1v.3a2.1,2.1,0,0,1-1.2,1.3Zm-9.5-20.9.9,1.3c2.7,2.1,4.1,12.6,5.2,15.1a6,6,0,0,0,3.1,3.2,1.2,1.2,0,0,0,.9-.1,1,1,0,0,0,.5-.5v-.3a2.3,2.3,0,0,0,.1-.6c-.5-8.5-3.6-22.6-9.5-26.6-2.2-1.5-4.5-1.6-6.1-.3A27.2,27.2,0,0,1,406,509c0,.6,0,1.2,0,1.7a28,28,0,0,1-.1,4.6c-.4,2.8.5,13.3,2.9,16.2a3.3,3.3,0,0,0,3.1,1.1,3.6,3.6,0,0,0,2.8-2.1l.8-2c.4-1-.7-10.1-.2-11.1a15.2,15.2,0,0,1,2.3-2.5l.6-.6Z" transform="translate(-312.1 -462.2)" fill="#e64c4e" stroke="#e64c4e" stroke-miterlimit="10"/>
  </g>
  <g>
    <path d="M718.3,516.2c-.6,2.2-.6,9.7.4,11.6a6.7,6.7,0,0,1,.5,4.9,2.3,2.3,0,0,1-3.2,1.4,9.6,9.6,0,0,1-3.7-4c-1.3-2.7-2.8-10.9-4.3-13.5s-.6-5.6.5-8.2a2.6,2.6,0,0,1,1.6-1.2,15,15,0,0,1,3.5-.5c1.3-.1,2.7.3,4,.1,2.9-.4,5.3.7,7.8,2.3l1.3,4.5C724.5,516.7,721.1,514.8,718.3,516.2Z" transform="translate(-312.1 -462.2)" fill="#e64c4e" stroke="#e64c4e" stroke-miterlimit="10"/>
    <path d="M717,534.9a2.5,2.5,0,0,1-1.3-.4,10.1,10.1,0,0,1-3.9-4.2c-1.3-2.7-2.8-10.9-4.3-13.5s-.7-5.8.4-8.7a3,3,0,0,1,1.9-1.5,15.4,15.4,0,0,1,3.6-.6h1.8a9.8,9.8,0,0,0,2.2,0c3.3-.4,5.9.9,8.2,2.4h.2l1.4,4.9v.2c-1.5,2.2-3.5,2.3-5.4,2.4a8.5,8.5,0,0,0-2.9.4c-.5,2.2-.4,9.3.4,11a7.3,7.3,0,0,1,.5,5.3,2.9,2.9,0,0,1-1.7,1.9Zm-3.2-27.8h-.3a14.6,14.6,0,0,0-3.3.5,2.1,2.1,0,0,0-1.2.9c-1.1,2.6-1.9,5.2-.5,7.8s2.9,10.8,4.3,13.6a9.1,9.1,0,0,0,3.5,3.8,1.5,1.5,0,0,0,1.4.1,1.8,1.8,0,0,0,1.1-1.2,6.2,6.2,0,0,0-.4-4.6c-1-1.9-1.1-9.4-.5-12v-.2h.2a8.7,8.7,0,0,1,3.6-.6c1.7-.1,3.2-.1,4.4-1.7l-1.2-4c-2.1-1.3-4.4-2.5-7.3-2.1a10.7,10.7,0,0,1-2.4,0Z" transform="translate(-312.1 -462.2)" fill="#e64c4e" stroke="#e64c4e" stroke-miterlimit="10"/>
  </g>
  <g>
    <path d="M1188.9,528.8a2.2,2.2,0,0,1-3.5,2,20.4,20.4,0,0,1-3.8-3.2,3,3,0,0,1-.2-4.1,3.6,3.6,0,0,1,4.5-1.2,5.9,5.9,0,0,1,1.9,1.6A9.9,9.9,0,0,1,1188.9,528.8Z" transform="translate(-312.1 -462.2)" fill="#e64c4e" stroke="#e64c4e" stroke-miterlimit="10"/>
    <path d="M1186.8,531.7a3,3,0,0,1-1.6-.5,20.7,20.7,0,0,1-3.9-3.3,3.5,3.5,0,0,1-.3-4.8,4.1,4.1,0,0,1,5.2-1.3,6.4,6.4,0,0,1,2,1.8,10.3,10.3,0,0,1,1.3,5.1h0a3,3,0,0,1-1.5,2.6A2.6,2.6,0,0,1,1186.8,531.7Zm-2.4-9.2a3.5,3.5,0,0,0-2.6,1.4,2.4,2.4,0,0,0,.2,3.4,19.7,19.7,0,0,0,3.7,3.1,1.7,1.7,0,0,0,1.8.1,2,2,0,0,0,.9-1.7,9.4,9.4,0,0,0-1.1-4.5,5.4,5.4,0,0,0-1.7-1.5A2.6,2.6,0,0,0,1184.4,522.5Z" transform="translate(-312.1 -462.2)" fill="#e64c4e" stroke="#e64c4e" stroke-miterlimit="10"/>
  </g>
  <path d="M1151.5,509.9l-1.2-1.3-2.5-2.9a10.6,10.6,0,0,0-3.8-2.9,3.5,3.5,0,0,0-1.5-.4,2.7,2.7,0,0,0-1.7.6,10.2,10.2,0,0,0-2.6,2.7c-2.6,4.8-5.2,10.6-4.3,17.5a13.1,13.1,0,0,0,3.8,7.6,4.6,4.6,0,0,0,3.2,1.5c3.7.2,7.6.3,11.3-.9l2-.8a19.3,19.3,0,0,1,6.3-1.6c1.2,0,1.7-1.3,1.9-2.4a4.7,4.7,0,0,0-1.3-3.8,7,7,0,0,1-1.4-5.6,59.4,59.4,0,0,0,.7-12v-1.6c-.1-1.6-.3-3.3-.3-4.9q-.3-5.9-.5-11.7t-.5-12a49.7,49.7,0,0,0-.5-5c-.5-3.2-2.4-5.5-5.8-7.1h-1.4a3.3,3.3,0,0,0-.5,3.2c1.4,3.5,1.6,7.2,1.8,10.7.1,1.1.1,2.2.2,3.4.2,2.7.3,5.5.4,8.1a102.5,102.5,0,0,0,.6,10.5,39.2,39.2,0,0,1,.1,6.3c0,.6,0,1.2-.1,1.9a3.2,3.2,0,0,1-1.8,3l-.4.2Zm-1.3,12.7a3.7,3.7,0,0,1-3,1.6l-1,.2-1.5.2a2.9,2.9,0,0,1-2.2-.8,4.1,4.1,0,0,1-.7-4l.3-1.2a9.4,9.4,0,0,1,2.7-5.5l.4-.4.4.5c2.2,2.9,4.2,5.6,4.7,9.1v.4Z" transform="translate(-312.1 -462.2)" fill="#e64c4e" stroke="#e64c4e" stroke-miterlimit="10"/>
  <path d="M461.2,527.8v-.2c0-5.6-1.6-13.2-2.8-18.6v-.3l-1.3-6.4c-1.1-5.4-2.2-10.9-3.7-16.2a32.8,32.8,0,0,1-.7-3.6,29.6,29.6,0,0,0-.8-3.8,54.2,54.2,0,0,1-2.2-10.4,3.8,3.8,0,0,0-.2-.9c-.6-1.8-3.2-3.1-5.2-2.7a1.2,1.2,0,0,0-.8.6,4.9,4.9,0,0,0-.3,3.6l.4,1.3.3,1,.5,1.7c.5,1.5.9,3.1,1.3,4.7,1.6,6.6,3,12.5,4.3,18.2.7,3.2,1.3,6.6,1.8,9.4a4.7,4.7,0,0,1-.1,1.6c-.1.4-.1.8-.2,1.4v1l-2.3-2.1-2.1-1.8c-1.7-1.5-2.9-2.4-4.2-2.4s-2.6.8-4.5,2.7a9.7,9.7,0,0,0-1.8,2.2c-4.1,8-3.6,17,.6,23.5,2.7,4.1,4.9,5.1,9.1,4a15.3,15.3,0,0,0,4.5-2.4h.1a11.3,11.3,0,0,0,1.8-1.7l1.1-1.1a1.8,1.8,0,0,1,.9-.4h.6l3.3,1.6C461.2,529.7,461.2,529.7,461.2,527.8Zm-9.9-2.9a24.7,24.7,0,0,1-8,2.3H443c-2-1.3-1.8-3.2-1.7-4.6s0-7.1,2.5-8.9h.4c1.9.3,2.9,1.4,4,2.8s2.7,5.2,3.4,8.1v.4Z" transform="translate(-312.1 -462.2)" fill="#e64c4e" stroke="#e64c4e" stroke-miterlimit="10"/>
  <path d="M534.1,505.8c-1.3-.5-2.3,0-3.4.5l-.5.2-.8.2-.7.2h-.4l-1.2-.6a16.5,16.5,0,0,0-2.4-1.2,20.5,20.5,0,0,0-4.3-1h-.5a4.8,4.8,0,0,0-2.9,1.1c-3.7,2.8-4.9,8-4.3,11.6s2.9,8.9,6.8,12.9a20.4,20.4,0,0,0,7.2,5.1,8.8,8.8,0,0,0,9.9-2.7c4.9-6,5.7-16,1.8-22.7A7.7,7.7,0,0,0,534.1,505.8Zm-1.2,16.1a10.5,10.5,0,0,1-2.5,3.3,4.5,4.5,0,0,1-3,1.3,5.9,5.9,0,0,1-3.1-1.1,10.6,10.6,0,0,1-4.8-7.3,4.3,4.3,0,0,1,1.1-3.7,2.4,2.4,0,0,1,2.9-.7l1,.6a6.3,6.3,0,0,0,7.7.8l.5-.3.2.5A7.3,7.3,0,0,1,532.8,521.9Z" transform="translate(-312.1 -462.2)" fill="#e64c4e" stroke="#e64c4e" stroke-miterlimit="10"/>
  <path d="M1075,505c-1.9.3-3.4-.6-4.8-1.4l-.7-.5a10.9,10.9,0,0,0-7.7,5.2,17.5,17.5,0,0,0-2.8,10.3,17.8,17.8,0,0,0,6,13.5c2.2,2,4.3,2.7,6.4,1.9a15.5,15.5,0,0,0,8-6.1c3.4-5.4,4.2-10.8,2.4-15.9C1080.7,508.8,1078.5,506.6,1075,505Zm-5.1,19.8h-.7a2.6,2.6,0,0,1-1.7-.6,2.4,2.4,0,0,1-.8-1.7,14.8,14.8,0,0,1,.4-4.1,7.7,7.7,0,0,1,2.6-4h.1c1.3-1.3,1.5-1.3,4.4-2.3l.7-.2v.7C1075.3,517.8,1073.7,521.8,1069.9,524.8Z" transform="translate(-312.1 -462.2)" fill="#e64c4e" stroke="#e64c4e" stroke-miterlimit="10"/>
  <path d="M390.5,530.1a3.9,3.9,0,0,1,1.3-.4h.8a7.6,7.6,0,0,1,1.9,1.7,8.2,8.2,0,0,0,1.5,1.4,2.9,2.9,0,0,0,1.2-1.8,23.8,23.8,0,0,0-1.4-15.4l-.6-1.3V514c1.4-2.9.8-5.6-1.9-8.6s-3.5-2.6-6.5-3.2a6.3,6.3,0,0,0-6.7,2.6,29.6,29.6,0,0,0-5.9,15.6c-.4,5.6.9,10,4.1,13.8a8.3,8.3,0,0,0,7.8-1.5,31.9,31.9,0,0,1,3.8-2.4Zm-3.9-9.8a6.1,6.1,0,0,1-5.2,3.9h-.5v-.5a11.8,11.8,0,0,1-.2-1.4,10.5,10.5,0,0,1,0-1.4c.2-2.7,1.4-5.2,3.7-7.8s3.7-1.4,6.6.6l.6.4-.6.5A14.8,14.8,0,0,0,386.6,520.2Z" transform="translate(-312.1 -462.2)" fill="#e64c4e" stroke="#e64c4e" stroke-miterlimit="10"/>
  <path d="M734.3,509.7c-.3,1.2-.6,2.4-.9,3.6-1,5-.8,11,1.2,15.4a12.1,12.1,0,0,0,4.8,5.3,7,7,0,0,0,7.6.3c3.7-2,5-6.9,6.4-10-.1-3.4-.6-8.5-2-11a11.8,11.8,0,0,0-7.9-5.9l-1.2-.2a8.3,8.3,0,0,1-1.9-.4,4.9,4.9,0,0,0-5.9,1.4Zm8,6.1a2.9,2.9,0,0,1,2.3.2,2.8,2.8,0,0,1,1,1.1v.6c-.1,2.3-1.1,8.8-2.9,9.8l-1,.2-.8-.2c-.6-.3-1.1-3.3-1.2-4S740.4,516.6,742.3,515.8Z" transform="translate(-312.1 -462.2)" fill="#e64c4e" stroke="#e64c4e" stroke-miterlimit="10"/>
</svg>
