<svg id="Layer_1" data-name="Layer 1" xmlns="http://www.w3.org/2000/svg" viewBox="0 0 789.8 148.7">
  <title>your_business2</title>
  <g id="_Group_" data-name="&lt;Group&gt;">
    <g>
      <path d="M370,533.6c.1-.5.3-1.2.3-1.8.6-5.7,1.2-11.4,2-17.1a55.2,55.2,0,0,1,3.4-12.5,31.1,31.1,0,0,0,17.1-11.6c3.1-4,6-8.2,8.6-12.5a49.1,49.1,0,0,0,6.9-19.4,11,11,0,0,0-1.8-7.2,2.6,2.6,0,0,0-2.5-1.4,2.9,2.9,0,0,0-2.3,2.4c-.3,1.8-.4,3.7-.6,5.5a34.4,34.4,0,0,1-3.8,12.5,77.9,77.9,0,0,1-10.9,15.8,35.4,35.4,0,0,1-5.3,4.7,14.1,14.1,0,0,1-3.6,1.8c-2,.8-3.3.4-4.3-1.4a57.9,57.9,0,0,1-3.4-6.8c-2.8-6.7-4.4-13.8-5.9-20.9a83.6,83.6,0,0,1-1.9-26.1c.2-1.7.7-3.3.8-5a10.3,10.3,0,0,0-.5-3.9c-.5-1.3-1.8-1.9-3.4-2.2a5.5,5.5,0,0,0-3.8,5.7c0,3.4-.1,6.8-.1,10.1a34.2,34.2,0,0,0,.1,4.5c.9,7,1.5,14.1,3.4,20.9l.5,2c1.8,8.6,3.6,16.9,7.8,25.4,1,2.1,1.7,4.2,1.1,6.3a77.1,77.1,0,0,0-2.9,18.9c0,1.2-.3,2.3-.3,3.5,0,2.7.1,5.4.2,8.1a2.9,2.9,0,0,0,2.2,2.5C368.3,535,369.2,534.5,370,533.6Zm36.8-82.2a11.1,11.1,0,0,1,1.8,7.4,49.8,49.8,0,0,1-6.9,19.5c-2.6,4.2-5.5,8.4-8.6,12.5a31.2,31.2,0,0,1-17.1,11.7,54.9,54.9,0,0,0-3.3,12.3c-.5,3.8-.9,7.7-1.3,11.5l-.6,5.6c-.1.5-.1.9-.2,1.4v.5h-.1a3.3,3.3,0,0,1-2.3,1.3h-.8a3.1,3.1,0,0,1-2.4-2.7c-.2-2.8-.2-5.6-.2-8.1a15.1,15.1,0,0,1,.1-2c.1-.5.1-1.1.1-1.6a77.9,77.9,0,0,1,2.9-19c.6-2.2-.2-4.3-1.1-6.2-4.3-8.7-6.1-17.2-7.8-25.5-.1-.6-.3-1.3-.5-1.9a111,111,0,0,1-2.9-16.6l-.5-4.3a30.4,30.4,0,0,1-.1-4v-.5c0-1.6,0-3.2.1-4.8s.1-3.5.1-5.3a5.8,5.8,0,0,1,4-6h.1c1.5.3,3,.8,3.6,2.4a10.7,10.7,0,0,1,.5,4,19.9,19.9,0,0,1-.4,2.8c-.1.7-.3,1.5-.4,2.2a83.9,83.9,0,0,0,1.9,26c1.6,7.6,3.2,14.4,5.9,20.8a57.8,57.8,0,0,0,3.4,6.7c.9,1.6,2.1,2,4,1.3a13.8,13.8,0,0,0,3.5-1.8,35,35,0,0,0,5.2-4.7,76.4,76.4,0,0,0,10.9-15.7,34,34,0,0,0,3.8-12.4c.2-1.9.3-3.7.6-5.5a3.2,3.2,0,0,1,2.6-2.6A2.9,2.9,0,0,1,406.8,451.3Z" transform="translate(-354.2 -425.8)" fill="#e64c4e" stroke="#e64c4e" stroke-miterlimit="10"/>
      <path d="M406.6,451.5a11,11,0,0,1,1.8,7.2,49.1,49.1,0,0,1-6.9,19.4c-2.7,4.3-5.6,8.5-8.6,12.5a31.1,31.1,0,0,1-17.1,11.6,55.2,55.2,0,0,0-3.4,12.5c-.8,5.7-1.3,11.4-2,17.1-.1.7-.2,1.3-.3,1.8s-1.7,1.4-2.8,1.1a2.9,2.9,0,0,1-2.2-2.5c-.2-2.7-.2-5.4-.2-8.1,0-1.2.2-2.3.3-3.5a77.1,77.1,0,0,1,2.9-18.9c.6-2.2-.1-4.2-1.1-6.3-4.2-8.5-6-16.8-7.8-25.4l-.5-2c-1.9-6.9-2.5-13.9-3.4-20.9a34.2,34.2,0,0,1-.1-4.5c0-3.4.1-6.7.1-10.1a5.5,5.5,0,0,1,3.8-5.7c1.6.3,2.9.9,3.4,2.2a10.3,10.3,0,0,1,.5,3.9c-.1,1.7-.6,3.3-.8,5a83.6,83.6,0,0,0,1.9,26.1c1.5,7.1,3.1,14.2,5.9,20.9a57.9,57.9,0,0,0,3.4,6.8c1,1.8,2.4,2.1,4.3,1.4a14.1,14.1,0,0,0,3.6-1.8,35.4,35.4,0,0,0,5.3-4.7,77.9,77.9,0,0,0,10.9-15.8,34.4,34.4,0,0,0,3.8-12.5c.2-1.8.3-3.7.6-5.5a2.9,2.9,0,0,1,2.3-2.4A2.6,2.6,0,0,1,406.6,451.5Zm1.5,7.2a10.6,10.6,0,0,0-1.7-7,2.3,2.3,0,0,0-2.3-1.2,2.6,2.6,0,0,0-2.1,2.2c-.3,1.8-.4,3.6-.6,5.5a34.6,34.6,0,0,1-3.8,12.6,77.5,77.5,0,0,1-11,15.8,36.1,36.1,0,0,1-5.3,4.7,14.3,14.3,0,0,1-3.6,1.9c-2.1.8-3.6.3-4.7-1.5a56.6,56.6,0,0,1-3.4-6.8c-2.7-6.5-4.3-13.3-5.9-20.9a83.9,83.9,0,0,1-1.9-26.2,20,20,0,0,1,.4-2.3,19.5,19.5,0,0,0,.4-2.7,10.1,10.1,0,0,0-.5-3.8c-.4-1-1.3-1.6-3.1-2s-3.6,2.7-3.6,5.5,0,3.5-.1,5.3,0,3.2-.1,4.8v.5a29.2,29.2,0,0,0,.1,4l.5,4.3a110.5,110.5,0,0,0,2.9,16.6c.2.7.4,1.4.5,2,1.7,8.2,3.5,16.7,7.8,25.3,1,2,1.8,4.2,1.1,6.5a77.3,77.3,0,0,0-2.9,18.9c0,.5-.1,1.1-.1,1.6a14.2,14.2,0,0,0-.1,1.9c0,2.5,0,5.3.2,8.1a2.6,2.6,0,0,0,2,2.3c1,.3,1.7-.1,2.5-.9V533c.1-.4.2-.9.2-1.3l.6-5.6c.4-3.8.8-7.6,1.3-11.5a54.9,54.9,0,0,1,3.4-12.6l.2-.2a30.7,30.7,0,0,0,17-11.5c3.1-4.1,6-8.3,8.6-12.4A49.1,49.1,0,0,0,408.1,458.6Z" transform="translate(-354.2 -425.8)" fill="#e64c4e" stroke="#e64c4e" stroke-miterlimit="10"/>
      <path d="M406.4,451.6a10.6,10.6,0,0,1,1.7,7,49.1,49.1,0,0,1-6.8,19.3c-2.6,4.2-5.5,8.4-8.6,12.4a30.7,30.7,0,0,1-17,11.5l-.2.2a54.9,54.9,0,0,0-3.4,12.6c-.5,3.8-.9,7.7-1.3,11.5l-.6,5.6c-.1.5-.1.9-.2,1.3v.4c-.8.8-1.5,1.3-2.5.9a2.6,2.6,0,0,1-2-2.3c-.2-2.8-.2-5.6-.2-8.1a14.2,14.2,0,0,1,.1-1.9c.1-.5.1-1.1.1-1.6a77.3,77.3,0,0,1,2.9-18.9c.7-2.4-.1-4.5-1.1-6.5-4.3-8.7-6.1-17.1-7.8-25.3-.1-.6-.3-1.3-.5-2a110.5,110.5,0,0,1-2.9-16.6l-.5-4.3a29.2,29.2,0,0,1-.1-4v-.5c0-1.6,0-3.2.1-4.8s.1-3.5.1-5.3,1.2-4.5,3.6-5.5,2.7,1,3.1,2a10.1,10.1,0,0,1,.5,3.8,19.5,19.5,0,0,1-.4,2.7,20,20,0,0,0-.4,2.3,83.9,83.9,0,0,0,1.9,26.2c1.6,7.6,3.2,14.4,5.9,20.9a56.6,56.6,0,0,0,3.4,6.8c1.1,1.8,2.5,2.3,4.7,1.5a14.3,14.3,0,0,0,3.6-1.9,36.1,36.1,0,0,0,5.3-4.7,77.5,77.5,0,0,0,11-15.8,34.6,34.6,0,0,0,3.8-12.6c.2-1.9.3-3.7.6-5.5a2.6,2.6,0,0,1,2.1-2.2A2.3,2.3,0,0,1,406.4,451.6Z" transform="translate(-354.2 -425.8)" fill="#e64c4e" stroke="#e64c4e" stroke-miterlimit="10"/>
    </g>
    <g>
      <path d="M375.7,502.2a55.2,55.2,0,0,0-3.4,12.5c-.8,5.7-1.3,11.4-2,17.1-.1.7-.2,1.3-.3,1.8s-1.7,1.4-2.8,1.1a2.9,2.9,0,0,1-2.2-2.5c-.2-2.7-.2-5.4-.2-8.1,0-1.2.2-2.3.3-3.5a77.1,77.1,0,0,1,2.9-18.9c.6-2.2-.1-4.2-1.1-6.3-4.2-8.5-6-16.8-7.8-25.4l-.5-2c-1.9-6.9-2.5-13.9-3.4-20.9a34.2,34.2,0,0,1-.1-4.5c0-3.4.1-6.7.1-10.1a5.5,5.5,0,0,1,3.8-5.7c1.6.3,2.9.9,3.4,2.2a10.3,10.3,0,0,1,.5,3.9c-.1,1.7-.6,3.3-.8,5a83.6,83.6,0,0,0,1.9,26.1c1.5,7.1,3.1,14.2,5.9,20.9a57.9,57.9,0,0,0,3.4,6.8c1,1.8,2.4,2.1,4.3,1.4a14.1,14.1,0,0,0,3.6-1.8,35.4,35.4,0,0,0,5.3-4.7,77.9,77.9,0,0,0,10.9-15.8,34.4,34.4,0,0,0,3.8-12.5c.2-1.8.3-3.7.6-5.5a2.9,2.9,0,0,1,2.3-2.4,2.6,2.6,0,0,1,2.5,1.4,11,11,0,0,1,1.8,7.2,49.1,49.1,0,0,1-6.9,19.4c-2.7,4.3-5.6,8.5-8.6,12.5A31.1,31.1,0,0,1,375.7,502.2Z" transform="translate(-354.2 -425.8)" fill="#e64c4e" stroke="#e64c4e" stroke-miterlimit="10"/>
      <path d="M367.9,535h-.8a3.1,3.1,0,0,1-2.4-2.7c-.2-2.8-.2-5.6-.2-8.1a15.1,15.1,0,0,1,.1-2c.1-.5.1-1.1.1-1.6a77.9,77.9,0,0,1,2.9-19c.6-2.2-.2-4.3-1.1-6.2-4.3-8.7-6.1-17.2-7.8-25.5-.1-.6-.3-1.3-.5-1.9a111,111,0,0,1-2.9-16.6l-.5-4.3a30.4,30.4,0,0,1-.1-4v-.5c0-1.6,0-3.2.1-4.8s.1-3.5.1-5.3a5.8,5.8,0,0,1,4-6h.1c1.5.3,3,.8,3.6,2.4a10.7,10.7,0,0,1,.5,4,19.9,19.9,0,0,1-.4,2.8c-.1.7-.3,1.5-.4,2.2a83.9,83.9,0,0,0,1.9,26c1.6,7.6,3.2,14.4,5.9,20.8a57.8,57.8,0,0,0,3.4,6.7c.9,1.6,2.1,2,4,1.3a13.8,13.8,0,0,0,3.5-1.8,35,35,0,0,0,5.2-4.7,76.4,76.4,0,0,0,10.9-15.7,34,34,0,0,0,3.8-12.4c.2-1.9.3-3.7.6-5.5a3.2,3.2,0,0,1,2.6-2.6,2.9,2.9,0,0,1,2.8,1.5,11.1,11.1,0,0,1,1.8,7.4,49.8,49.8,0,0,1-6.9,19.5c-2.6,4.2-5.5,8.4-8.6,12.5a31.2,31.2,0,0,1-17.1,11.7,54.9,54.9,0,0,0-3.3,12.3c-.5,3.8-.9,7.7-1.3,11.5l-.6,5.6c-.1.5-.1.9-.2,1.4v.5h-.1A3.3,3.3,0,0,1,367.9,535Z" transform="translate(-354.2 -425.8)" fill="#e64c4e" stroke="#e64c4e" stroke-miterlimit="10"/>
      <path d="M359,426.8c-2.4.9-3.6,2.7-3.6,5.5s0,3.5-.1,5.3,0,3.2-.1,4.8v.5a29.2,29.2,0,0,0,.1,4l.5,4.3a110.5,110.5,0,0,0,2.9,16.6c.2.7.4,1.4.5,2,1.7,8.2,3.5,16.7,7.8,25.3,1,2,1.8,4.2,1.1,6.5a77.3,77.3,0,0,0-2.9,18.9c0,.5-.1,1.1-.1,1.6a14.2,14.2,0,0,0-.1,1.9c0,2.5,0,5.3.2,8.1a2.6,2.6,0,0,0,2,2.3c1,.3,1.7-.1,2.5-.9V533c.1-.4.2-.9.2-1.3l.6-5.6c.4-3.8.8-7.6,1.3-11.5a54.9,54.9,0,0,1,3.4-12.6l.2-.2a30.7,30.7,0,0,0,17-11.5c3.1-4.1,6-8.3,8.6-12.4a49.1,49.1,0,0,0,6.8-19.3,10.6,10.6,0,0,0-1.7-7,2.3,2.3,0,0,0-2.3-1.2,2.6,2.6,0,0,0-2.1,2.2c-.3,1.8-.4,3.6-.6,5.5a34.6,34.6,0,0,1-3.8,12.6,77.5,77.5,0,0,1-11,15.8,36.1,36.1,0,0,1-5.3,4.7,14.3,14.3,0,0,1-3.6,1.9c-2.1.8-3.6.3-4.7-1.5a56.6,56.6,0,0,1-3.4-6.8c-2.7-6.5-4.3-13.3-5.9-20.9a83.9,83.9,0,0,1-1.9-26.2,20,20,0,0,1,.4-2.3,19.5,19.5,0,0,0,.4-2.7,10.1,10.1,0,0,0-.5-3.8C361.7,427.8,360.8,427.2,359,426.8Z" transform="translate(-354.2 -425.8)" fill="#e64c4e" stroke="#e64c4e" stroke-miterlimit="10"/>
      <line x1="15.8" y1="107.8" x2="15.8" y2="107.8" fill="#e64c4e" stroke="#e64c4e" stroke-miterlimit="10"/>
    </g>
  </g>
  <g>
    <path d="M703.7,510.4c1.5-2.9,2.7-5.5,4.1-8.1a3.2,3.2,0,0,1,4-1.9h.4l3.2,1a11.6,11.6,0,0,1,1.2,2c.7,1.8,1,3.6,1.7,5.4a6.5,6.5,0,0,1-1,6.5c-1.8,1.8-4.6,1.4-7.3,1.8a14.3,14.3,0,0,0-2.3,9.8,6.5,6.5,0,0,0,5.2.5l7.5-2.2a8.7,8.7,0,0,1,4.3-.7,2.2,2.2,0,0,1,1.9,1.6c.7,2,.2,3.5-1.8,4.3-4.3,1.8-8.6,3.7-13.2,4.4-2.7.4-5.2.4-7.6-1.3s-3.3-3-3.4-5.3-.6-5.5.4-8.2a4.3,4.3,0,0,0-.3-3.3c-1.1-2.5-.7-4.2,1-5.5A9.3,9.3,0,0,1,703.7,510.4Z" transform="translate(-354.2 -425.8)" fill="#e64c4e" stroke="#e64c4e" stroke-miterlimit="10"/>
    <path d="M709,535.6a9.1,9.1,0,0,1-5.3-1.5c-2.3-1.6-3.5-3.4-3.6-5.7V527a16.2,16.2,0,0,1,.5-7,3.9,3.9,0,0,0-.3-3c-1.1-2.7-.8-4.6,1.1-6a5,5,0,0,1,1.5-.7l.6-.2,1.2-2.4,2.8-5.5a3.7,3.7,0,0,1,4.5-2.1h.4l3.4,1h.1l.4.5a7.3,7.3,0,0,1,.9,1.6c.3.9.6,1.7.8,2.6s.5,1.9.9,2.8a6.9,6.9,0,0,1-1.1,7c-1.5,1.5-3.4,1.6-5.5,1.8l-1.9.2a13.8,13.8,0,0,0-2.2,9.1,6.1,6.1,0,0,0,4.6.3l7.5-2.2a9.2,9.2,0,0,1,4.5-.7,2.7,2.7,0,0,1,2.2,1.9c.8,2.4.1,3.9-2.1,4.9l-.4.2c-4.1,1.8-8.4,3.6-13,4.3Zm1.7-34.8a2.7,2.7,0,0,0-2.5,1.7l-2.8,5.5-1.3,2.6h-.2l-.8.3a4.3,4.3,0,0,0-1.2.6c-1.5,1.2-1.8,2.7-.8,5a4.8,4.8,0,0,1,.3,3.7,15.3,15.3,0,0,0-.5,6.6v1.4c.1,2,1.1,3.5,3.2,5s5,1.5,7.2,1.2c4.5-.6,8.7-2.4,12.8-4.2l.4-.2c1.7-.7,2.2-1.9,1.5-3.7a1.8,1.8,0,0,0-1.5-1.3,8.3,8.3,0,0,0-4,.6L713,528a7,7,0,0,1-5.5-.6h-.2v-.2a14.8,14.8,0,0,1,2.4-10.1v-.2h.2l2.2-.2c2-.1,3.7-.2,4.9-1.5a6.1,6.1,0,0,0,.9-6c-.4-.9-.7-1.9-.9-2.9s-.5-1.7-.8-2.5a6.6,6.6,0,0,0-.8-1.4l-.3-.4-3-.9h-1.4Z" transform="translate(-354.2 -425.8)" fill="#e64c4e" stroke="#e64c4e" stroke-miterlimit="10"/>
  </g>
  <g>
    <path d="M438.9,524.9a23.9,23.9,0,0,0,7.7-9.5c1.2-2.8,2.2-5.6,3.4-8.5a12.7,12.7,0,0,1,1.7-1.1,4.1,4.1,0,0,1,6,3.1,6.8,6.8,0,0,1,0,1.5c-.1,1.9-.1,3.7-.3,5.6a63.7,63.7,0,0,0-.3,13.6,2,2,0,0,1-1.6,2.3,3.4,3.4,0,0,1-2.3-.7c-.9-.9-1.5-4.7-2.3-5.8s-2.3,1.3-3,2.4a17.3,17.3,0,0,1-6.5,5.5,6.4,6.4,0,0,1-5.4.4,5.5,5.5,0,0,1-3.9-3.6,28.6,28.6,0,0,1-1.5-6.4c-.5-7.9-.8-12.3-.1-20.2a5.2,5.2,0,0,1,1.6-3.6c2.4-2.2,3.8-1.9,5.5.9a7.1,7.1,0,0,1,.9,6.2c-1.7,5.4-1.4,7.5-1.3,13.1A7.8,7.8,0,0,0,438.9,524.9Z" transform="translate(-354.2 -425.8)" fill="#e64c4e" stroke="#e64c4e" stroke-miterlimit="10"/>
    <path d="M438.4,534.6a7.7,7.7,0,0,1-2.5-.4,6,6,0,0,1-4.2-4l-.2-.5a26.3,26.3,0,0,1-1.3-6c-.5-7.2-.9-12.1-.1-20.3a5.7,5.7,0,0,1,1.7-3.9c1.3-1.2,2.4-1.7,3.4-1.6s1.9,1,2.9,2.6a7.6,7.6,0,0,1,.9,6.7c-1.5,4.7-1.4,6.1-1.3,10.9,0,.7,0,1.3,0,2a7.1,7.1,0,0,0,1.2,4,22.9,22.9,0,0,0,7.1-8.9c.8-1.9,1.6-3.9,2.3-5.8l1-2.7v-.2h.1l.5-.3,1.3-.8a4.9,4.9,0,0,1,4.4,0,4.7,4.7,0,0,1,2.4,3.5,6.8,6.8,0,0,1,0,1.6V512c-.1,1.3-.1,2.7-.3,4.1a63,63,0,0,0-.3,13.5,2.7,2.7,0,0,1-.6,2.1,2,2,0,0,1-1.5.8,3.8,3.8,0,0,1-2.7-.8c-.7-.7-1.2-4.1-1.7-4.9l-.5-.7c-1,.1-1.5.8-2,1.6l-.3.5a17.6,17.6,0,0,1-6.7,5.7A6.8,6.8,0,0,1,438.4,534.6Zm-3.5-35.7a3.9,3.9,0,0,0-2.3,1.3,4.7,4.7,0,0,0-1.4,3.3c-.8,8.2-.4,13,.1,20.1a25.5,25.5,0,0,0,1.3,5.7l.2.5a5,5,0,0,0,3.6,3.3,5.8,5.8,0,0,0,4.9-.4,16.6,16.6,0,0,0,6.3-5.3l.3-.5c.6-.9,1.4-2.2,3.2-2.1h.3v.2l.6,1c.5.8,1,4.1,1.6,4.7a2.8,2.8,0,0,0,1.9.5,1,1,0,0,0,.7-.4,1.7,1.7,0,0,0,.4-1.3,63.7,63.7,0,0,1,.3-13.7c.2-1.3.2-2.7.3-4v-1.5a6.4,6.4,0,0,0,0-1.4,3.7,3.7,0,0,0-1.9-2.8,3.9,3.9,0,0,0-3.5,0l-1.1.7-.4.3-1,2.5c-.7,1.9-1.5,3.9-2.3,5.9a24.4,24.4,0,0,1-7.9,9.7l-.4.3-.3-.4a8.3,8.3,0,0,1-1.8-5.1c0-.7,0-1.3,0-2-.1-4.9-.2-6.4,1.3-11.2a6.6,6.6,0,0,0-.8-5.8c-.8-1.4-1.5-2-2.2-2.1Z" transform="translate(-354.2 -425.8)" fill="#e64c4e" stroke="#e64c4e" stroke-miterlimit="10"/>
  </g>
  <g>
    <path d="M597,525.2c-1.7.2-2.6,1.3-3.5,2.3a21.2,21.2,0,0,1-8.5,5.4c-4.7,1.7-8.4-.1-10.1-4.8s-1.2-7.3-.6-11,1.6-7.9,2.5-11.8a3.9,3.9,0,0,1,2.6-2.8,2.7,2.7,0,0,1,3.2.9,8,8,0,0,1,1.4,7.2c-.8,2.9-1.3,5.9-2,8.9a7.1,7.1,0,0,0,.5,4.9c1,.7,1.9.3,2.8-.2a19.6,19.6,0,0,0,8.8-9.4c.6-1.4,1-2.8,1.6-4.3s2.3-3.2,4.6-2.9a2.9,2.9,0,0,1,2.8,2.5,46.2,46.2,0,0,1,.8,7,84,84,0,0,0,1,9.6,35.6,35.6,0,0,1,.2,6.5,2.2,2.2,0,0,1-3.5,1.6,6.2,6.2,0,0,1-3-3.9c-.3-1.3-.4-2.7-.7-4A5.6,5.6,0,0,0,597,525.2Z" transform="translate(-354.2 -425.8)" fill="#e64c4e" stroke="#e64c4e" stroke-miterlimit="10"/>
    <path d="M602.9,535.5a3,3,0,0,1-1.6-.4,6.7,6.7,0,0,1-3.2-4.2c-.2-.7-.2-1.3-.3-2a19.4,19.4,0,0,0-.3-2,2.8,2.8,0,0,0-.6-.9v-.2a4.7,4.7,0,0,0-2.6,1.8l-.3.3a21.6,21.6,0,0,1-8.7,5.5,8.3,8.3,0,0,1-6.5,0,8.6,8.6,0,0,1-4.3-5.1c-1.5-4-1.1-8.1-.7-11.2s1.1-5.7,1.7-8.4l.8-3.4a4.4,4.4,0,0,1,3-3.2,3.2,3.2,0,0,1,3.8,1.1,8.5,8.5,0,0,1,1.5,7.6c-.5,1.7-.9,3.5-1.2,5.2s-.5,2.4-.8,3.6a6.6,6.6,0,0,0,.4,4.4c.6.4,1.2.2,2.2-.3a19.1,19.1,0,0,0,8.6-9.2,30.6,30.6,0,0,0,1.1-2.9l.5-1.3c.9-2.6,2.6-3.6,5.2-3.2a3.4,3.4,0,0,1,3.2,2.9v.7a41.7,41.7,0,0,1,.7,6.4,62.9,62.9,0,0,0,.7,7.6l.3,1.9a36,36,0,0,1,.2,6.6,2.5,2.5,0,0,1-1.4,2.1A3,3,0,0,1,602.9,535.5Zm-5.7-10.9.2.3.3.4a3.6,3.6,0,0,1,.7,1.3,20.5,20.5,0,0,1,.4,2.1c.1.7.2,1.3.3,1.9a5.6,5.6,0,0,0,2.8,3.6,1.9,1.9,0,0,0,1.9.1,1.4,1.4,0,0,0,.8-1.2,35,35,0,0,0-.2-6.4l-.2-1.9a63.8,63.8,0,0,1-.7-7.7,40.9,40.9,0,0,0-.7-6.2v-.7c-.2-1.2-.9-1.8-2.3-2s-3.3.4-4.1,2.5l-.5,1.3a31.5,31.5,0,0,1-1.1,3,20.1,20.1,0,0,1-9,9.7,3,3,0,0,1-3.4.2h-.2a7.6,7.6,0,0,1-.5-5.3c.3-1.2.5-2.4.8-3.6s.7-3.6,1.2-5.3a7.4,7.4,0,0,0-1.3-6.7,2.1,2.1,0,0,0-2.5-.7,3.4,3.4,0,0,0-2.3,2.5l-.8,3.4c-.6,2.7-1.3,5.6-1.7,8.4s-.8,6.9.6,10.7a7.6,7.6,0,0,0,3.7,4.5,7.2,7.2,0,0,0,5.7-.1,20.6,20.6,0,0,0,8.3-5.2l.3-.3a5.4,5.4,0,0,1,3.5-2.2Z" transform="translate(-354.2 -425.8)" fill="#e64c4e" stroke="#e64c4e" stroke-miterlimit="10"/>
  </g>
  <g>
    <path d="M866.3,511.8a2,2,0,0,0-.3,2.4c.8,2.1,1.6,4.2,2.5,6.2a22.4,22.4,0,0,1,1.8,8.1,9.1,9.1,0,0,1-.4,2.9c-.7,2.6-2,3.7-4.5,3.4a22.9,22.9,0,0,1-10.3-3.3A4.7,4.7,0,0,1,853,529a3.8,3.8,0,0,1,.6-3.7,5.2,5.2,0,0,1,4.3.1,22.8,22.8,0,0,0,3.6,1.2,9.6,9.6,0,0,0,2.5-.2,10.5,10.5,0,0,0-.2-2.2,48,48,0,0,0-4.9-11.1,7.7,7.7,0,0,1-1.4-3.9A5.8,5.8,0,0,1,863,503a10.7,10.7,0,0,1,6.4,1.6c2.8,1.8,5.4,4,8.1,6a3.6,3.6,0,0,1,1.4,3.3,2.6,2.6,0,0,1-3.5,2.5,14.2,14.2,0,0,1-3.8-1.6C869.9,513.7,868.3,512.2,866.3,511.8Z" transform="translate(-354.2 -425.8)" fill="#e64c4e" stroke="#e64c4e" stroke-miterlimit="10"/>
    <path d="M866.1,535.3h-.9a23.7,23.7,0,0,1-10.4-3.4,5,5,0,0,1-2.3-2.7,4.2,4.2,0,0,1,.7-4.1h.1a5.7,5.7,0,0,1,4.6.1h.4a19.7,19.7,0,0,0,3.1,1,4.4,4.4,0,0,0,1.5-.1h.5v-.5a4.5,4.5,0,0,0-.1-1.3,48,48,0,0,0-4.9-11,8.1,8.1,0,0,1-1.5-4.1,6.3,6.3,0,0,1,6-6.5,11.1,11.1,0,0,1,6.7,1.6c1.9,1.2,3.8,2.7,5.6,4l2.5,1.9a4,4,0,0,1,1.6,3.7,3.2,3.2,0,0,1-1.2,2.4,3.2,3.2,0,0,1-2.8.4,14.7,14.7,0,0,1-4-1.6l-1.4-.9a11.9,11.9,0,0,0-3.6-1.9c-.4.5-.4,1-.1,1.8s1.6,4.2,2.5,6.2a23.2,23.2,0,0,1,1.8,8.3,9.5,9.5,0,0,1-.4,3C869.6,534.1,868.3,535.3,866.1,535.3Zm-12.3-9.7a3.3,3.3,0,0,0-.5,3.2,4.2,4.2,0,0,0,1.9,2.2,22.5,22.5,0,0,0,10.1,3.3c2.3.3,3.4-.6,4.1-3a8.6,8.6,0,0,0,.3-2.7,22,22,0,0,0-1.7-8c-.9-2-1.7-4-2.5-6.2a2.4,2.4,0,0,1,.5-2.9l.2-.2h.2a12,12,0,0,1,4.1,2.1l1.4.9a13.8,13.8,0,0,0,3.7,1.5,2.4,2.4,0,0,0,2-.3,2.3,2.3,0,0,0,.9-1.8,3.1,3.1,0,0,0-1.2-2.9l-2.5-1.9c-1.8-1.4-3.6-2.8-5.5-4a10.2,10.2,0,0,0-6.2-1.5,5.4,5.4,0,0,0-5.2,5.6,7.2,7.2,0,0,0,1.3,3.7,48.7,48.7,0,0,1,5,11.2,5.2,5.2,0,0,1,.2,1.5c0,.3,0,.5,0,.8v.4h-1.3a5,5,0,0,1-1.8.1,20.4,20.4,0,0,1-3.3-1h-.4A4.8,4.8,0,0,0,853.9,525.6Z" transform="translate(-354.2 -425.8)" fill="#e64c4e" stroke="#e64c4e" stroke-miterlimit="10"/>
  </g>
  <g>
    <path d="M1108.7,517c-1.7,1.3-3.5,2.2-5.6,1.1s-2.6-.3-4-.1a1.8,1.8,0,0,0-1.6,1.8,1.7,1.7,0,0,0,1.6,1.8h3l11-1.3a5.9,5.9,0,0,1,4.7,1.5c2,1.6,1.9,6.2-1.2,6.8s-4.2,1.4-6.3,1.6c-3.7.5-7.4.6-11.1.8a10.4,10.4,0,0,1-5.9-1.3c-3.3-1.9-4.5-5.2-5.2-8.7a44.3,44.3,0,0,1-.4-5.9c-.2-2.7.5-5,2.9-6.4s2.4-2.5,3.3-3.9a11.3,11.3,0,0,1,7.4-5.2,2.9,2.9,0,0,1,3.2.9c1.2,1.5,2.2,3.1,3.3,4.8a4.9,4.9,0,0,1,.7,2c.3,2.8.6,5.7.8,8.5A4.6,4.6,0,0,1,1108.7,517Z" transform="translate(-354.2 -425.8)" fill="#e64c4e" stroke="#e64c4e" stroke-miterlimit="10"/>
    <path d="M1098.6,531.4a10.4,10.4,0,0,1-5.5-1.4c-3.6-2.1-4.8-5.8-5.5-9.1a24,24,0,0,1-.4-4.1c0-.6,0-1.2-.1-1.9-.2-3.3.8-5.6,3.1-6.9a8.8,8.8,0,0,0,2.9-3.4l.2-.3a11.8,11.8,0,0,1,7.7-5.4,3.3,3.3,0,0,1,3.7,1.1c1,1.3,2,2.8,3.3,4.8a5.4,5.4,0,0,1,.8,2.2c.3,2.7.6,5.6.8,8.5a2.9,2.9,0,0,1-.3,1.3l-.2.4v.2h-.1c-1.8,1.3-3.8,2.4-6.2,1.1a5,5,0,0,0-3.3-.1h-.4a1.2,1.2,0,0,0-1.1,1.3,1.1,1.1,0,0,0,.3.8,1.1,1.1,0,0,0,.8.4h2.9l11-1.3a6.3,6.3,0,0,1,5,1.6,4.9,4.9,0,0,1,1.4,4.7,3.7,3.7,0,0,1-2.9,3.1l-2.7.7a22,22,0,0,1-3.7.9c-3.8.5-7.6.7-11.1.8Zm3.7-31.6h-.9a10.7,10.7,0,0,0-7,5l-.2.3a9.8,9.8,0,0,1-3.3,3.8c-1.9,1.1-2.8,3-2.6,5.8,0,.6.1,1.3.1,1.9a22.8,22.8,0,0,0,.3,3.9c.6,3.1,1.7,6.5,5,8.4a9.8,9.8,0,0,0,5.6,1.2c3.5-.1,7.3-.3,11-.8a21,21,0,0,0,3.6-.9l2.8-.7a2.7,2.7,0,0,0,2.1-2.2,3.7,3.7,0,0,0-1-3.6,5.3,5.3,0,0,0-4.3-1.4l-11,1.3h-3.1a2.1,2.1,0,0,1-1.5-.8,2.3,2.3,0,0,1-.5-1.6,2.3,2.3,0,0,1,2-2.3h.4a5.8,5.8,0,0,1,3.9.2c1.8.9,3.3.3,5-.9v-.4a2.1,2.1,0,0,0,.2-.8c-.2-2.9-.5-5.8-.8-8.5a4.3,4.3,0,0,0-.6-1.7c-1.2-2-2.2-3.4-3.2-4.7A2.1,2.1,0,0,0,1102.2,499.8Z" transform="translate(-354.2 -425.8)" fill="#e64c4e" stroke="#e64c4e" stroke-miterlimit="10"/>
  </g>
  <g>
    <path d="M948.6,503.4c2.6.3,3.9,1.9,4.3,4.5a32.9,32.9,0,0,1,.4,3.7c.1,3.4.1,6.8.2,10.2s.2,5.1-1.4,8.7a2.3,2.3,0,0,1-3.2-.7c-.9-1-1.7-4.3-2.4-5.3s-2.3,1.6-3.2,2.6-2.9,3.5-4.5,5.1c-3.6,3.5-8.2,1.8-10.1-2.3a28.6,28.6,0,0,1-1.4-4q-1.3-4.4-2.5-8.8a11.2,11.2,0,0,1-.4-2.6,81,81,0,0,1,.9-13.4,7,7,0,0,1,2.3-4.1,2.9,2.9,0,0,1,3.7-.1,4.8,4.8,0,0,1,1.9,5.2c-.2.9-.4,1.7-.7,2.6a25.8,25.8,0,0,0-.8,11.7c.3,1.9.5,3.9.9,5.8a3.4,3.4,0,0,0,1.4,2c.8.5,1.6-.3,2.1-1,3.2-4.4,6.2-9,8-14.3C945.3,505.6,945.4,505.6,948.6,503.4Z" transform="translate(-354.2 -425.8)" fill="#e64c4e" stroke="#e64c4e" stroke-miterlimit="10"/>
    <path d="M934.5,534.6h-1.2a7.6,7.6,0,0,1-5.2-4.4,26,26,0,0,1-1.3-3.7v-.4c-.8-2.9-1.7-5.8-2.5-8.8a11.8,11.8,0,0,1-.5-2.8,81.5,81.5,0,0,1,.9-13.5,7.4,7.4,0,0,1,2.5-4.4,3.4,3.4,0,0,1,4.4-.1,5.4,5.4,0,0,1,2.1,5.7v.3c-.2.8-.4,1.6-.6,2.3a25.1,25.1,0,0,0-.8,11.4l.2,1.8c.2,1.3.3,2.7.6,4a2.8,2.8,0,0,0,1.2,1.6c.2.1.6.3,1.4-.9,3.5-4.9,6.2-9.1,7.9-14.1,1.1-3.2,1.4-3.4,4.3-5.4l.5-.3h.2c2.7.3,4.3,2,4.7,4.9a33.6,33.6,0,0,1,.4,3.8c0,1.4.1,2.9.1,4.3s.1,3.9.1,5.8v.3a16.2,16.2,0,0,1-1.5,8.6v.2h-.2a2.8,2.8,0,0,1-3.8-.8c-.6-.7-1.2-3.7-1.8-4.4l-.5-.7a3.3,3.3,0,0,0-2,1.6l-.6.8-1.5,1.8a43.3,43.3,0,0,1-3,3.4A6.6,6.6,0,0,1,934.5,534.6Zm-5-37.8a2.3,2.3,0,0,0-1.6.6,6.3,6.3,0,0,0-2.1,3.7,80.3,80.3,0,0,0-.9,13.3,10.7,10.7,0,0,0,.4,2.5c.8,3,1.6,5.9,2.5,8.8v.4a25.1,25.1,0,0,0,1.2,3.5,6.5,6.5,0,0,0,4.4,3.8,5.4,5.4,0,0,0,4.9-1.6,42.4,42.4,0,0,0,2.9-3.3l1.5-1.8.6-.7a4.1,4.1,0,0,1,3-2.1h.3l.2.2.7.9c.5.7,1.1,3.6,1.7,4.4a1.8,1.8,0,0,0,2.4.6,14.9,14.9,0,0,0,1.3-7.9v-.3c-.1-2-.1-3.9-.1-5.9s0-2.9-.1-4.3a32.5,32.5,0,0,0-.4-3.6c-.4-2.4-1.5-3.7-3.6-4h-.2c-2.9,2-2.9,2-3.9,4.9-1.8,5.1-4.5,9.5-8.1,14.4-.9,1.3-1.9,1.7-2.8,1.2a3.9,3.9,0,0,1-1.7-2.4c-.3-1.4-.5-2.8-.7-4.1l-.2-1.8a26.2,26.2,0,0,1,.8-11.9c.2-.7.4-1.5.6-2.2v-.3a4.2,4.2,0,0,0-1.7-4.6A2.4,2.4,0,0,0,929.5,496.7Z" transform="translate(-354.2 -425.8)" fill="#e64c4e" stroke="#e64c4e" stroke-miterlimit="10"/>
  </g>
  <g>
    <path d="M762.6,527.1l3.8,1.5c3.2,1.1,5.7-1,5-4.2a14.7,14.7,0,0,0-2.7-6.3c-1.9-2.4-3.7-3.3-5.6-5.7a12,12,0,0,1-2.6-8.5,5.9,5.9,0,0,1,2.8-4.7,5.6,5.6,0,0,1,5-.9l7.9,2.5a3.8,3.8,0,0,1,2.5,2.8,2.9,2.9,0,0,1-1.8,3.5,7.3,7.3,0,0,1-4.3.2l-3.9-.6c-.3,0-.5.2-.8.3a2.1,2.1,0,0,0-.2,2.8,8.4,8.4,0,0,0,1.6,2.1c2.6,2.6,4.6,4.1,6.7,7.1s2.6,6.7,2.3,10.4-1.8,4.3-3.8,5.5a10.3,10.3,0,0,1-9.2.6,6.8,6.8,0,0,1-4.1-4.8C760.8,529.7,760.9,529.3,762.6,527.1Z" transform="translate(-354.2 -425.8)" fill="#e64c4e" stroke="#e64c4e" stroke-miterlimit="10"/>
    <path d="M769.3,536.5a12.9,12.9,0,0,1-4.4-.8,7.2,7.2,0,0,1-4.4-5.1c-.3-1.1,0-1.7,1.6-3.8l.2-.3h.3l1.3.5,2.5,1a3.5,3.5,0,0,0,3.6-.4,3.3,3.3,0,0,0,.9-3.2,14,14,0,0,0-2.6-6.2c-1.2-1.4-2.3-1.4-3.4-2.9l-2.2-2.9a12.5,12.5,0,0,1-2.7-8.8,6.4,6.4,0,0,1,3-5,6.1,6.1,0,0,1,5.3-.9l7.9,2.5a4.2,4.2,0,0,1,2.8,3.2,3.3,3.3,0,0,1-2.1,4.1,7.8,7.8,0,0,1-4.5.2l-3.8-.6h-.5c-.4.4-.7,1-.1,2.2a8,8,0,0,0,1.5,1.9c2.6,2.6,4.7,4.1,6.7,7.1h.1c1.9,2.9,2.7,6.2,2.4,10.7-.1,2.3-1.5,4.3-4.1,5.9A9.9,9.9,0,0,1,769.3,536.5Zm-6.6-8.9c-1.4,1.9-1.5,2.2-1.3,2.7a6.3,6.3,0,0,0,3.8,4.5,9.8,9.8,0,0,0,8.8-.6c2.3-1.4,3.5-3.1,3.6-5.1.3-4.2-.4-7.4-2.2-10.1h-.1c-2-2.9-4-4.4-6.5-6.9a8.9,8.9,0,0,1-1.7-2.2,2.5,2.5,0,0,1,.3-3.3h.4a1.5,1.5,0,0,1,.8-.2l3.9.6a7,7,0,0,0,4-.2,2.5,2.5,0,0,0,1.5-3,3.3,3.3,0,0,0-2.2-2.5l-7.9-2.5a5.2,5.2,0,0,0-4.6.8,5.4,5.4,0,0,0-2.6,4.3,11.5,11.5,0,0,0,2.5,8.2l2.2,2.9c1.1,1.4,2.2,1.4,3.4,2.9a14.8,14.8,0,0,1,2.8,6.5,4.2,4.2,0,0,1-1.2,4.1,4.5,4.5,0,0,1-4.5.6l-2.5-1Z" transform="translate(-354.2 -425.8)" fill="#e64c4e" stroke="#e64c4e" stroke-miterlimit="10"/>
  </g>
  <g>
    <path d="M681.8,514.9c-1.5-.2-1.8.6-2.3,1.3a77.7,77.7,0,0,0-7.1,14.5,7.2,7.2,0,0,1-3.8,4.4c-1.7.1-2.8-1-4-1.8-2.2-3.2-2-6.4,0-9.5a9.8,9.8,0,0,0,1.2-2.7,78.8,78.8,0,0,1,4.9-12.3c2-1.3,4.1-2.5,5.5-4.8s6.8-3,9.3-.5a9.8,9.8,0,0,1,3,5.7c.4,2.8.9,5.7,1.2,8.5a17.5,17.5,0,0,0,1.6,6.3c.9,1.7.8,3.6.7,5.4s-1.9,2.9-3.2,2.5-3.5-1.3-4.3-3.2a18.2,18.2,0,0,1-1.5-4.8C683,521,682.3,518.1,681.8,514.9Z" transform="translate(-354.2 -425.8)" fill="#e64c4e" stroke="#e64c4e" stroke-miterlimit="10"/>
    <path d="M668.3,535.6a5.7,5.7,0,0,1-3.5-1.5l-.5-.4h-.1c-2.2-3.3-2.2-6.6,0-10.1a9.3,9.3,0,0,0,1.2-2.6,67.1,67.1,0,0,1,4.2-10.8l.8-1.7.6-.4a14.5,14.5,0,0,0,4.9-4.3,5.8,5.8,0,0,1,4.3-2.5,7.3,7.3,0,0,1,5.9,1.9,10.3,10.3,0,0,1,3.2,6l.5,3.4c.3,1.7.5,3.4.7,5.1h0a16.6,16.6,0,0,0,1.5,6,10.3,10.3,0,0,1,.8,5.3v.4a3.3,3.3,0,0,1-1.5,2.5,2.8,2.8,0,0,1-2.4.5c-1.8-.6-3.8-1.4-4.6-3.5l-.4-.9a14.1,14.1,0,0,1-1.1-4c-.2-2.1-.6-4.1-1-6.3l-.4-2.4c-.7,0-.9.4-1.2.9v.2a77.3,77.3,0,0,0-7,14.4,7.7,7.7,0,0,1-4.1,4.7h-.5Zm-3.3-2.7.5.3a4.6,4.6,0,0,0,3,1.3,6.7,6.7,0,0,0,3.5-4,79.5,79.5,0,0,1,7.1-14.6v-.2a2.3,2.3,0,0,1,2.7-1.3h.4v.4l.5,2.8c.4,2.2.8,4.2,1,6.4a13.1,13.1,0,0,0,1.1,3.7l.4,1c.7,1.8,2.3,2.4,3.9,2.9a1.8,1.8,0,0,0,1.5-.4,2.3,2.3,0,0,0,1-1.6V529a9.3,9.3,0,0,0-.7-4.7,17.7,17.7,0,0,1-1.6-6.4h0c-.2-1.7-.5-3.4-.7-5.1l-.5-3.4a9.2,9.2,0,0,0-2.9-5.4,6.2,6.2,0,0,0-5-1.6,4.7,4.7,0,0,0-3.5,2,15.5,15.5,0,0,1-5.3,4.7l-.3.2-.6,1.4a66.4,66.4,0,0,0-4.2,10.6,10.3,10.3,0,0,1-1.3,2.9C663.1,527.1,663.1,530,665,532.9Z" transform="translate(-354.2 -425.8)" fill="#e64c4e" stroke="#e64c4e" stroke-miterlimit="10"/>
  </g>
  <g>
    <path d="M989.7,531.9c-2.1,1.6-3.9,1.1-5.6-.5a10.3,10.3,0,0,1-2.9-6.1,52.4,52.4,0,0,0-2.8-10.5c-3.2,2-4.8,5.2-6.7,8.1s-4,5.7-6,8.6l-1,.4c-1.9.4-3.8.5-5-1.5s-1.8-5.2-.2-7.6a26.5,26.5,0,0,0,3.5-8.9,7.3,7.3,0,0,0,.1-4.2,4.2,4.2,0,0,1-.3-1.6,9.5,9.5,0,0,1,.4-3.1c.5-1.3,1.8-1.4,3.3-1.4l4.5,4a26.1,26.1,0,0,0,2.1-1.6c.6-.6,1.1-1.4,1.7-1.9a4.8,4.8,0,0,1,6.8.6,15.1,15.1,0,0,1,2,3.1,31.9,31.9,0,0,1,3.3,9.6,22.4,22.4,0,0,0,2.3,7.7A7.8,7.8,0,0,1,989.7,531.9Z" transform="translate(-354.2 -425.8)" fill="#e64c4e" stroke="#e64c4e" stroke-miterlimit="10"/>
    <path d="M987.2,533.4a4.9,4.9,0,0,1-3.4-1.7,10.8,10.8,0,0,1-3-6.5,50.6,50.6,0,0,0-2.5-9.8,19.1,19.1,0,0,0-4.9,5.9l-1.1,1.7-4.2,6-1.8,2.6H966l-.3.2-.8.3c-1.9.4-4.2.6-5.5-1.8s-1.7-5.9-.2-8.2a25.6,25.6,0,0,0,3.4-8.7,6.8,6.8,0,0,0,.1-3.9,4.8,4.8,0,0,1-.3-1.8v-.6a7.7,7.7,0,0,1,.4-2.7c.7-1.6,2.4-1.7,3.8-1.8h.2l4.4,3.9.4-.3,1.3-1,.7-.8a6.9,6.9,0,0,1,1.1-1.1,5.3,5.3,0,0,1,7.5.7,15.4,15.4,0,0,1,2.1,3.2,32.5,32.5,0,0,1,3.3,9.7,21.9,21.9,0,0,0,2.2,7.5,8.4,8.4,0,0,1,.4,7.6v.2H990A4.8,4.8,0,0,1,987.2,533.4Zm-8.4-19.5.2.6a52.9,52.9,0,0,1,2.8,10.6,9.7,9.7,0,0,0,2.7,5.8c1.6,1.6,3.1,1.8,4.8.6a7.1,7.1,0,0,0-.4-6.4,22.9,22.9,0,0,1-2.3-7.9,31.3,31.3,0,0,0-3.2-9.4,14.3,14.3,0,0,0-1.9-2.9,4.3,4.3,0,0,0-6.1-.6l-.9,1-.8.9-1.4,1.1-.7.5-.3.3-4.7-4.2c-1.3.1-2.3.2-2.7,1.1a6.8,6.8,0,0,0-.4,2.3v.6a3.6,3.6,0,0,0,.2,1.3,7.9,7.9,0,0,1,0,4.5,26.7,26.7,0,0,1-3.5,9.1c-1.6,2.5-.7,5.2.3,7s2.1,1.8,4.4,1.3l.5-.2h.2l1.8-2.5,4.2-6,1.1-1.7c1.5-2.4,3.1-4.9,5.8-6.6Z" transform="translate(-354.2 -425.8)" fill="#e64c4e" stroke="#e64c4e" stroke-miterlimit="10"/>
  </g>
  <g>
    <path d="M1064.6,517.4a21.3,21.3,0,0,0,5.2-4.7c.5-.7.7-3.8,1.2-4.5,4.9-6.9,6-1.9,6.8-.7,2,3.1,1.7,10,1.9,13.5s-.1,8.3-.3,12.4a3,3,0,0,1-.4,1,2.6,2.6,0,0,1-3.3,0,3.8,3.8,0,0,1-1.9-2.4c-.4-1.8-.7-3.5-1.1-5.3s-.4-1.3-.5-1.8-2.2.8-2.6,1.6c-1.4,2.8-3.8,4-6.3,5.2a4.2,4.2,0,0,1-5.7-2,15.3,15.3,0,0,1-1.8-7.2c-.1-3.4,0-6.8,0-10.2s0-6.4,0-10l1.3-1.1a2.8,2.8,0,0,1,3.8.1c1.1.8,2,1.9,3.1,2.9s0,4,0,5.9-.3,3.6-.3,5.4A6.4,6.4,0,0,0,1064.6,517.4Z" transform="translate(-354.2 -425.8)" fill="#e64c4e" stroke="#e64c4e" stroke-miterlimit="10"/>
    <path d="M1077.5,535.5a3.7,3.7,0,0,1-2-.7,4.4,4.4,0,0,1-2.1-2.8l-.3-1.5-.8-3.8a12.8,12.8,0,0,0-.4-1.2v-.2c-.9,0-1.3.6-1.7,1.4-1.5,2.9-4,4.2-6.5,5.4s-4.9.3-6.3-2.2a15.8,15.8,0,0,1-1.9-7.5c-.1-2.3,0-4.6,0-6.8s0-2.3,0-3.4,0-4.4,0-6.7V502l.4-.4,1.1-1a3.3,3.3,0,0,1,4.4.1l2.2,2,.9.9.2.2v.3c0,.6,0,1.2,0,1.8s0,2.8,0,4.1-.1,1.6-.1,2.3-.1,2-.1,3a2.6,2.6,0,0,0,.4,1v.2c1.1-.9,3.2-2,3.9-3.1l.7-1.1.5-1c.2-.4.4-3,.7-3.5s2.7-3.1,4.3-3.1,2.2.6,3.4,2.4,1.8,10.4,2,13.8a86.7,86.7,0,0,1-.1,9c-.1,1.1-.1,2.3-.1,3.4a2,2,0,0,1-.3.9v.3h-.2A3,3,0,0,1,1077.5,535.5Zm-5.7-11.2h.9v.3l.2.5c.1.4.3.9.4,1.4l.8,3.8.3,1.5a3.2,3.2,0,0,0,1.6,2.1,2.1,2.1,0,0,0,2.6.1v-.2l.2-.4c0-1.1.1-2.3.1-3.4a85.9,85.9,0,0,0,.1-8.9c-.2-3.4.1-10.2-1.9-13.2s-1.2-1.9-2.5-1.9-2.4,1.2-3.4,2.7-.4,2.8-.6,3.3a8.1,8.1,0,0,1-.6,1.2l-.7,1.1c-.8,1.3-3.1,2.7-4.7,3.8l-.5.4-.3-.6-.3-.7a3.3,3.3,0,0,1-.5-1.5c0-1,.1-2.1.1-3.1s.1-1.5.1-2.3,0-2.7,0-4.1,0-1,0-1.6l-.8-.8-2.1-1.9a2.3,2.3,0,0,0-3.1-.1l-1,.9h-.1v3c0,2.3,0,4.5,0,6.7s0,2.3,0,3.4-.1,4.5,0,6.8a14.6,14.6,0,0,0,1.7,6.9,3.7,3.7,0,0,0,5,1.8c2.3-1.1,4.7-2.3,6-4.9A2.9,2.9,0,0,1,1071.8,524.2Z" transform="translate(-354.2 -425.8)" fill="#e64c4e" stroke="#e64c4e" stroke-miterlimit="10"/>
  </g>
  <g>
    <path d="M738.5,505.5a16.6,16.6,0,0,0,.6,2.1c1,2,1.9,3.9,3,5.8s2.9,3.2,4.3,5.6a15.9,15.9,0,0,1,2.3,7.8,19.8,19.8,0,0,1-.4,3.9,4,4,0,0,1-3.6,3.4,4.9,4.9,0,0,1-4.7-1.6c-3-3.4-2.9-5.5.3-9l.7-.9a4,4,0,0,0-.9-3.4c-2-3.2-4.1-4.8-6.1-8.1a20.8,20.8,0,0,1-2.1-4.3,15.2,15.2,0,0,1-.8-4.7c0-2.6,1.5-3.9,4-4.3h1.3c3.9.5,7.8,1.2,11.3,3.1a9.3,9.3,0,0,1,2.4,1.8c1.6,1.8.8,4.1-1.6,4.6a6.9,6.9,0,0,1-3.4-.1Z" transform="translate(-354.2 -425.8)" fill="#e64c4e" stroke="#e64c4e" stroke-miterlimit="10"/>
    <path d="M743.7,534.6a5.2,5.2,0,0,1-4.1-1.8c-3.1-3.6-3-6,.3-9.6l.5-.6v-.2a3.6,3.6,0,0,0-.9-2.9l-.8-1.2c-1.8-2.7-3.6-4.1-5.3-6.9a21.6,21.6,0,0,1-2.1-4.4,15.7,15.7,0,0,1-.8-4.8c0-2.7,1.5-4.4,4.4-4.7h1.4c4.2.6,8,1.2,11.4,3.1a9.7,9.7,0,0,1,2.5,1.9,3.2,3.2,0,0,1,.8,3.2,3.4,3.4,0,0,1-2.6,2.2,7.4,7.4,0,0,1-3.7-.1l-4.2-1.1-1.6-.4v.2a5.6,5.6,0,0,0,.3,1l.5,1c.8,1.6,1.6,3.3,2.5,4.8l2.2,3.6c.7,1.1,1.4.8,2.1,2a16.2,16.2,0,0,1,2.4,8.1,20.2,20.2,0,0,1-.4,4,4.5,4.5,0,0,1-4,3.7Zm-7.6-36.3h-.9c-2.4.3-3.6,1.6-3.6,3.8a14.8,14.8,0,0,0,.8,4.5,20.8,20.8,0,0,0,2,4.2c1.7,2.8,3.5,4.1,5.3,6.9l.8,1.2a4.5,4.5,0,0,1,1,3.7v.2l-.2.2-.6.7c-3,3.3-3.1,5.2-.3,8.4a4.5,4.5,0,0,0,4.3,1.4,3.6,3.6,0,0,0,3.2-3,19.4,19.4,0,0,0,.4-3.8,15.3,15.3,0,0,0-2.3-7.6c-.7-1.2-1.4-.8-2.1-2l-2.2-3.6c-.9-1.6-1.7-3.3-2.5-4.9l-.5-1a6.2,6.2,0,0,1-.4-1.2l-.3-1-.2-.8,3.1.8,4.3,1.1a6.5,6.5,0,0,0,3.2.1,2.5,2.5,0,0,0,2-1.6,2.3,2.3,0,0,0-.7-2.3,8.8,8.8,0,0,0-2.3-1.7c-3.3-1.8-7-2.5-11.1-3Z" transform="translate(-354.2 -425.8)" fill="#e64c4e" stroke="#e64c4e" stroke-miterlimit="10"/>
  </g>
  <g>
    <path d="M624,521.7c0-2.5-1.4-4.6-2.4-6.9-1.7-4-3.1-7-5.1-10.8s-.6-5.2,1-7.5a2.5,2.5,0,0,1,2.7-1c2.9.6,9.9,1.9,12.4,4.7.7.5,1.1,2.7-.2,3.1-3,.8-6.3,2.5-5.1,6.5s1.8,4.3,3.1,6.9a26.7,26.7,0,0,1,2.7,8.6,13.3,13.3,0,0,1-.2,4c-.7,3.6-2.7,5.3-6.1,5.5a9.2,9.2,0,0,1-9.2-6.4,3.7,3.7,0,0,1,1.5-4.4,11,11,0,0,1,2.7-1.3C622.3,522.4,623.3,522.8,624,521.7Z" transform="translate(-354.2 -425.8)" fill="#e64c4e" stroke="#e64c4e" stroke-miterlimit="10"/>
    <path d="M626,535.3a9.7,9.7,0,0,1-9.1-6.8,4.2,4.2,0,0,1,1.7-5,11.4,11.4,0,0,1,2.8-1.4h.9c.5,0,.9-.1,1.1-.4a12.4,12.4,0,0,0-1.6-4.8l-.8-1.7c-1.6-3.8-3-6.7-5.1-10.8s-.5-5.9,1-8.1a3,3,0,0,1,3.2-1.2h.7c3.3.7,9.5,2,12,4.7a2.9,2.9,0,0,1,.8,2.6,1.7,1.7,0,0,1-1.2,1.4c-2.3.6-3.9,1.5-4.6,2.8a3.8,3.8,0,0,0-.2,3.1l.6,1.4c.8,1.9,1.6,3.6,2.5,5.4a27,27,0,0,1,2.7,8.8,13.8,13.8,0,0,1-.2,4.1c-.7,3.7-2.9,5.7-6.6,5.9Zm-6.6-39.4a1.9,1.9,0,0,0-1.6.8c-1.3,2-2.4,4.2-.9,7s3.5,7.1,5.2,10.9l.8,1.6a12.9,12.9,0,0,1,1.7,5.5v.2h-.1a2.3,2.3,0,0,1-2,1h-.6a10.4,10.4,0,0,0-2.6,1.3,3.2,3.2,0,0,0-1.3,3.8,8.6,8.6,0,0,0,8.7,6c3.3-.2,5-1.8,5.7-5.1a12.8,12.8,0,0,0,.1-3.8,26,26,0,0,0-2.6-8.5c-.9-1.8-1.7-3.5-2.5-5.4l-.6-1.5a5,5,0,0,1,.3-4c.8-1.5,2.6-2.6,5.2-3.3.1,0,.4-.1.4-.6a2,2,0,0,0-.4-1.5h-.1c-2.2-2.4-8.5-3.8-11.5-4.4h-1.2Z" transform="translate(-354.2 -425.8)" fill="#e64c4e" stroke="#e64c4e" stroke-miterlimit="10"/>
  </g>
  <g>
    <path d="M489,500.4a4.7,4.7,0,0,1,3.3,4.7c.1,1.9-1,3.1-2.5,4.2a9.1,9.1,0,0,1-6.6,2,11.8,11.8,0,0,0-5.7.5l-1,4.3c-.3,1.3-.7,2.6-1,3.9-.8,4.1-1.6,8.3-2.4,12.4a10.8,10.8,0,0,1-.3,1.5,2.8,2.8,0,0,1-2.8,1.7,4.6,4.6,0,0,1-3.5-2.1,21.5,21.5,0,0,1,.2-9.3c1.2-5.4,2.1-10.9,3.2-16.4.2-.8.3-1.7.5-2.5s1.7-3.3,3.9-3.3a67.9,67.9,0,0,1,7.1-.1C484.1,502.2,486.8,502.2,489,500.4Z" transform="translate(-354.2 -425.8)" fill="#e64c4e" stroke="#e64c4e" stroke-miterlimit="10"/>
    <path d="M470.3,536.2h-.3a5.1,5.1,0,0,1-3.9-2.3v-.2a21.9,21.9,0,0,1,.2-9.6c.8-3.8,1.5-7.7,2.2-11.4l.9-4.9v-.5c.1-.7.3-1.4.4-2,.6-2.4,2.1-3.7,4.4-3.7h2a41.9,41.9,0,0,1,5.1,0c2.6.2,5.1.3,7.3-1.4l.2-.2h.3a5.2,5.2,0,0,1,3.7,5.2c.1,2.3-1.4,3.6-2.7,4.6a9.5,9.5,0,0,1-7,2.1,11.4,11.4,0,0,0-5.2.4l-.3,1.1-.7,3-.4,1.4c-.2.8-.4,1.7-.6,2.5l-1.6,8.2-.9,4.5a9.4,9.4,0,0,1-.3,1.3A3.3,3.3,0,0,1,470.3,536.2Zm-3.2-2.8a4,4,0,0,0,3,1.8,2.2,2.2,0,0,0,2.3-1.4,8.4,8.4,0,0,0,.3-1.2l.9-4.5,1.6-8.2c.2-.9.4-1.7.6-2.5l.4-1.4.7-3,.4-1.7h.3a12.4,12.4,0,0,1,5.9-.5,8.5,8.5,0,0,0,6.2-1.9c1.7-1.2,2.3-2.3,2.3-3.7a4.1,4.1,0,0,0-2.7-4.1c-2.4,1.7-5.1,1.7-7.8,1.5a41.5,41.5,0,0,0-5,0h-2c-1.8,0-2.9,1-3.4,2.9s-.3,1.3-.4,2v.5l-.9,4.9c-.7,3.8-1.4,7.6-2.2,11.4A20.9,20.9,0,0,0,467.1,533.4Z" transform="translate(-354.2 -425.8)" fill="#e64c4e" stroke="#e64c4e" stroke-miterlimit="10"/>
  </g>
  <g>
    <path d="M836.8,512.1c-.1-2.5-.3-4.1-.2-5.8a3.6,3.6,0,0,1,2.9-3.7,4.1,4.1,0,0,1,4.7,2.1,6.5,6.5,0,0,1,.9,4.4c-.4,2.7-.9,5.3-1.5,7.9-1.1,4.8-2.8,9.4-3.3,14.3a9.9,9.9,0,0,1-.3,1.5,3.3,3.3,0,0,1-5.6,1.7,2.6,2.6,0,0,1-.8-1.7,32.7,32.7,0,0,1,.4-5c.8-4.8,1.7-9.6,2.6-14.4C836.8,512.6,836.8,511.9,836.8,512.1Z" transform="translate(-354.2 -425.8)" fill="#e64c4e" stroke="#e64c4e" stroke-miterlimit="10"/>
    <path d="M836.8,535.9a4.1,4.1,0,0,1-2.7-1.1,3.1,3.1,0,0,1-1-2.1,33.3,33.3,0,0,1,.4-5.1c.5-3.2,1.1-6.4,1.7-9.6l.9-4.8c.1-.5.1-.9.2-1.1s-.1-1.5-.1-2.2a29.8,29.8,0,0,1-.1-3.6,4.2,4.2,0,0,1,3.3-4.1,4.6,4.6,0,0,1,5.3,2.3,7.1,7.1,0,0,1,1,4.7c-.4,2.6-.9,5.3-1.5,8s-.8,3-1.2,4.5a63.1,63.1,0,0,0-2.1,9.7,10.3,10.3,0,0,1-.3,1.6,3.9,3.9,0,0,1-2.6,2.9Zm.5-24a5.7,5.7,0,0,1-.2,1.4l-.9,4.8c-.6,3.2-1.2,6.4-1.7,9.6a32.2,32.2,0,0,0-.4,4.9,2.1,2.1,0,0,0,.6,1.3,2.8,2.8,0,0,0,4.7-1.4,9.2,9.2,0,0,0,.3-1.4,63.8,63.8,0,0,1,2.1-9.9c.4-1.5.8-3,1.2-4.5s1.1-5.3,1.5-7.9a6,6,0,0,0-.9-4,3.6,3.6,0,0,0-4.1-1.9,3.1,3.1,0,0,0-2.5,3.2,28.7,28.7,0,0,0,.1,3.5C837.2,510.5,837.3,511.2,837.3,511.9Z" transform="translate(-354.2 -425.8)" fill="#e64c4e" stroke="#e64c4e" stroke-miterlimit="10"/>
  </g>
  <g>
    <path d="M647.2,533.2a20.3,20.3,0,0,1-1-3.7c-.6-6.7-.1-13.5,0-20.3a10.2,10.2,0,0,1,2-1.5c2.4-1,4.4-.3,5.5,1.9a8.3,8.3,0,0,1,.9,3.4,22.3,22.3,0,0,1-.5,4c-.5,3-.9,6-1.4,9a46.2,46.2,0,0,1-1.5,5.8C650.6,533.3,650,533.5,647.2,533.2Z" transform="translate(-354.2 -425.8)" fill="#e64c4e" stroke="#e64c4e" stroke-miterlimit="10"/>
    <path d="M648.9,533.9h-2.1v-.3l-.4-1.1a11.6,11.6,0,0,1-.7-2.7,126.4,126.4,0,0,1-.2-15.2c.1-1.7.1-3.4.1-5.2v-.3l.2-.2.6-.5a5.6,5.6,0,0,1,1.5-1.1c2.7-1.1,5-.3,6.2,2.2a8.8,8.8,0,0,1,.9,3.6,14.8,14.8,0,0,1-.3,3.1l-.2,1-.3,2.3c-.3,2.2-.7,4.5-1.1,6.8a46.2,46.2,0,0,1-1.6,5.9A2.4,2.4,0,0,1,648.9,533.9Zm-1.3-1.1c2.5.2,2.7,0,3-1.1a45.3,45.3,0,0,0,1.5-5.8c.4-2.2.8-4.5,1.1-6.7l.3-2.3.2-1.1a13.8,13.8,0,0,0,.3-2.8,7.8,7.8,0,0,0-.8-3.1c-1-2-2.7-2.6-4.9-1.7a4.8,4.8,0,0,0-1.2.9l-.5.4c0,1.7-.1,3.3-.1,5a123.7,123.7,0,0,0,.2,15.1,10.8,10.8,0,0,0,.6,2.5Z" transform="translate(-354.2 -425.8)" fill="#e64c4e" stroke="#e64c4e" stroke-miterlimit="10"/>
  </g>
  <g>
    <path d="M1000.7,505c5-2.2,5.2-2.1,8.1,3.2-.3,3.3-1.1,12.4-2.9,15.3s-1.7,5-2.7,6.8a2.5,2.5,0,0,1-3.6,1.1,14,14,0,0,1-.9-8.7C999.7,518.9,1000.1,509.2,1000.7,505Z" transform="translate(-354.2 -425.8)" fill="#e64c4e" stroke="#e64c4e" stroke-miterlimit="10"/>
    <path d="M1001.1,532.3a4,4,0,0,1-1.6-.4h-.2v-.2a14.7,14.7,0,0,1-.9-9.1c.6-2.6.9-11.1,1.3-14l.6-3.7v-.3h.3c5.2-2.3,5.7-2.1,8.8,3.4v.3c-.4,4-1.3,12.9-3,15.5a21.3,21.3,0,0,0-1.5,3.1c-.4.9-.7,2.9-1.2,3.7A3,3,0,0,1,1001.1,532.3Zm-1-1.3a2,2,0,0,0,2.7-1c.4-.8.8-2.7,1.2-3.6a22.6,22.6,0,0,1,1.5-3.2c1.5-2.5,2.4-11.2,2.8-14.9-2.6-4.7-2.8-4.8-7.1-2.9l-.5,3.4c-.4,2.8-.8,11.4-1.4,14A13.5,13.5,0,0,0,1000.1,531Z" transform="translate(-354.2 -425.8)" fill="#e64c4e" stroke="#e64c4e" stroke-miterlimit="10"/>
  </g>
  <g>
    <path d="M1137.3,524.3c4.5-.7,4.9-.3,5.7,4.8a6.7,6.7,0,0,1-.4,3.7c-3.8,9.4-5.1,8.2-4.3-1.2-1.2-1.4-1.7-.5-1.9-2.7S1136,526,1137.3,524.3Z" transform="translate(-354.2 -425.8)" fill="#e64c4e" stroke="#e64c4e" stroke-miterlimit="10"/>
    <path d="M1137.9,539.6c-.5-.1.5-7.1.1-7.5s-1.8-.9-2-3-.3-3.4,1-5v-.2h.2c4.7-.8,5.3-.2,6.2,5.2a7.3,7.3,0,0,1-.4,4.1c-.6,1.4-2.7,6.3-3.6,6.5A3.4,3.4,0,0,1,1137.9,539.6Zm-.5-14.7c-1,1.3-.7,2.2-.6,3.8s.6,1,1.8,2.4-1,8.2.3,7.8,2.8-5.3,3.3-6.3a6,6,0,0,0,.3-3.3C1141.8,524.5,1141.5,524.2,1137.5,524.9Z" transform="translate(-354.2 -425.8)" fill="#e64c4e" stroke="#e64c4e" stroke-miterlimit="10"/>
  </g>
  <g>
    <path d="M651.3,486.9c-.1-2.9,3-5.3,5.6-4.5a5.3,5.3,0,0,1,2.9,1.8c1.6,2,1.4,3.5-.7,5a14.1,14.1,0,0,1-3.1,1.6,3.1,3.1,0,0,1-4.3-2.2C651.4,488,651.3,487.3,651.3,486.9Z" transform="translate(-354.2 -425.8)" fill="#e64c4e" stroke="#e64c4e" stroke-miterlimit="10"/>
    <path d="M654.6,491.6a3.4,3.4,0,0,1-1.6-.4,3.9,3.9,0,0,1-1.9-2.5,13.1,13.1,0,0,1-.3-1.4v-.4a5.1,5.1,0,0,1,2.1-4.1,4.7,4.7,0,0,1,4.2-.9,5.9,5.9,0,0,1,3.2,2,4.2,4.2,0,0,1,1.1,3.2,4,4,0,0,1-2,2.6,14.5,14.5,0,0,1-3.2,1.6Zm-2.8-4.7v.3a12.3,12.3,0,0,0,.3,1.2,2.9,2.9,0,0,0,1.4,1.8,2.8,2.8,0,0,0,2.2,0,13.5,13.5,0,0,0,3-1.5,3.1,3.1,0,0,0,1.5-1.8,3.3,3.3,0,0,0-.9-2.4,4.9,4.9,0,0,0-2.6-1.6,3.7,3.7,0,0,0-3.2.7A4,4,0,0,0,651.8,486.9Z" transform="translate(-354.2 -425.8)" fill="#e64c4e" stroke="#e64c4e" stroke-miterlimit="10"/>
  </g>
  <g>
    <path d="M1008.3,493a2.7,2.7,0,0,1-3.5,2.8,7.2,7.2,0,0,1-4.9-6.2,2.9,2.9,0,0,1,3.1-3.3C1006.1,486.6,1008.2,489.3,1008.3,493Z" transform="translate(-354.2 -425.8)" fill="#e64c4e" stroke="#e64c4e" stroke-miterlimit="10"/>
    <path d="M1005.6,496.4l-1-.2a7.7,7.7,0,0,1-5.3-6.6,3.5,3.5,0,0,1,.8-2.8,3.3,3.3,0,0,1,2.8-1.1c3.3.3,5.7,3.3,5.8,7.2h0a3.5,3.5,0,0,1-1.4,2.8A3,3,0,0,1,1005.6,496.4Zm-2.9-9.6a2.3,2.3,0,0,0-1.7.8,2.3,2.3,0,0,0-.6,1.8,6.7,6.7,0,0,0,4.6,5.7,1.9,1.9,0,0,0,1.8-.3,2.4,2.4,0,0,0,.9-1.9c0-3.3-2-5.9-4.8-6.1Z" transform="translate(-354.2 -425.8)" fill="#e64c4e" stroke="#e64c4e" stroke-miterlimit="10"/>
  </g>
  <g>
    <path d="M849.9,482.4a2.6,2.6,0,0,1-2.9,1.3c-1.9-.3-2.1-.5-4.2-2.8l1.1-3.7a5.2,5.2,0,0,1,1.5-.4,3.9,3.9,0,0,1,3.2,2.2A34.1,34.1,0,0,1,849.9,482.4Z" transform="translate(-354.2 -425.8)" fill="#e64c4e" stroke="#e64c4e" stroke-miterlimit="10"/>
    <path d="M847.7,484.3h-.8c-2.1-.4-2.4-.6-4.5-3l-.2-.2,1.2-4.2h.3l.5-.2a2.9,2.9,0,0,1,1.2-.2,4.4,4.4,0,0,1,3.6,2.5,18.5,18.5,0,0,1,1,2.3l.4,1.1v.3l-.2.2A3.1,3.1,0,0,1,847.7,484.3Zm-4.3-3.6c1.8,2.1,2,2.1,3.7,2.4a2,2,0,0,0,2.3-.9l-.3-.8a17.7,17.7,0,0,0-.9-2.2,3.3,3.3,0,0,0-2.8-1.9l-.8.2h-.3Z" transform="translate(-354.2 -425.8)" fill="#e64c4e" stroke="#e64c4e" stroke-miterlimit="10"/>
  </g>
  <path d="M545,530.1a7.5,7.5,0,0,0,5.8,4.7,14.7,14.7,0,0,0,8.6-7.5c.6-1.1,1.1-2.4,1.6-3.5s.9-2.3,1.5-3.4a20.5,20.5,0,0,0,1.7-6.7v-.9a9.9,9.9,0,0,0-2.2-7.6c-2.3-3-5.6-3.5-8.5-1.3a26.9,26.9,0,0,0-3.4,3.3l-.8.9c-1.7,1.9-3.5,3.8-6.4,4.8l-.5.2-.2-.5-.3-.9a5,5,0,0,1-.5-1.8v-1.1a33,33,0,0,1,.3-6l.4-2.1c1-5.5,2-11.3,3.6-16.8l.4-1.2a20.5,20.5,0,0,0,.8-3.6,38.8,38.8,0,0,1,2.1-8.1l.4-1.3c.6-1.8,1.1-3.6,1.6-5.4l.8-2.9a5.4,5.4,0,0,0-.9-4.4,3.5,3.5,0,0,0-3.5-1.5l-2.5,2.9c1,3.5.2,6.8-.6,10l-.4,1.5c-2.5,10.6-5.1,22-6.8,33.6-.5,3.3-.8,6-.9,8.5a23.5,23.5,0,0,0,.4,5.4,4.4,4.4,0,0,0,4.8,3.9l1.6-.2,1.7-.2h1l-.4.9A9.7,9.7,0,0,0,545,530.1Zm4.8-12.6.9-1.1c1.6-1.9,3.2-3.9,6.1-4.9l.6-.2v.6c.9,4.2-.9,7.2-2.5,10.2l-.6,1-.2.4h-.4a3,3,0,0,1-2.1-2.1l-.2-.5a14.3,14.3,0,0,0-1.1-1.7l-.6-.9-.2-.3Z" transform="translate(-354.2 -425.8)" fill="#e64c4e" stroke="#e64c4e" stroke-miterlimit="10"/>
  <path d="M1039.3,573.7a2.6,2.6,0,0,0,3.2-.5,3,3,0,0,0,.6-3.4c-.5-1.2-1.7-2.4-2.3-3.6l-.8-1.6h0a45,45,0,0,1-.8-17.8c.3-2.8.9-5.6,1.4-8.3s.8-4.3,1.1-6.5c.6-3.8,1.6-8.2,4.8-11.3v-.5l-.2-1.1c-.7-4.3-2.6-6.7-6-7.7a14.5,14.5,0,0,1-4.5-2.7,33.3,33.3,0,0,0-7-3.9,4.5,4.5,0,0,0-4,.1,7.5,7.5,0,0,0-2.6,2c-4.4,5.8-5.4,12.8-5.9,18.8a3.8,3.8,0,0,0,.8,2.1,5.9,5.9,0,0,0,5.6,2.9,26.2,26.2,0,0,0,4.8-1.1l4-1.4,1.9-.7.5-.2.2.5.3.8a4,4,0,0,1,.3,1.6,27.2,27.2,0,0,1-.5,3.5v.3a119.1,119.1,0,0,0-1.8,21.8,47.8,47.8,0,0,0,1.9,12.5A8.7,8.7,0,0,0,1039.3,573.7Zm-5.9-57a20.6,20.6,0,0,1-7.3,5h-.6a1.8,1.8,0,0,1-1.2-.5,2.3,2.3,0,0,1-.7-2.1,11.5,11.5,0,0,1,3.4-6.3h.3c2.5-.3,4.3,1.1,6.2,3.1l.4.4Z" transform="translate(-354.2 -425.8)" fill="#e64c4e" stroke="#e64c4e" stroke-miterlimit="10"/>
  <path d="M413.8,497.4l-1.3.7a26.9,26.9,0,0,1-3.3,1.8,19.3,19.3,0,0,0-7.8,6.3,25.3,25.3,0,0,0-3.9,6,22.7,22.7,0,0,0-1.1,12.3,16.8,16.8,0,0,0,3.8,7.8,5.7,5.7,0,0,0,7,1.4c5.3-2.4,8.9-5.8,10.8-10.2a31.2,31.2,0,0,0,2.1-16.6,30.7,30.7,0,0,0-1.6-5.9C417.8,499,416.3,497.8,413.8,497.4Zm.3,14.1c-.5,4.4-1,9-4.5,12.8a11.1,11.1,0,0,1-2.6,2.2,4.3,4.3,0,0,1-1.8.4h-1.1l-.2-.2c-5.3-6.2-.6-15.5,5.1-19.4a3.2,3.2,0,0,1,2.6-.5,2.8,2.8,0,0,1,2,1.6v.3a4.2,4.2,0,0,1,.5,2Z" transform="translate(-354.2 -425.8)" fill="#e64c4e" stroke="#e64c4e" stroke-miterlimit="10"/>
</svg>
