<svg xmlns="http://www.w3.org/2000/svg" viewBox="0 0 1368.7 238">
  <title>your_business_4</title>
  <g id="Layer_2" data-name="Layer 2">
    <g id="Background_Curves_1_Image" data-name="Background + Curves 1 Image">
      <g>
        <g>
          <path d="M1043.1,196.8a8.1,8.1,0,0,0,.5-1.4q.8-9.1,1.6-18.2a7.8,7.8,0,0,1,.2-1.5c.2-.8.7-1.7,1.7-1.6a3.6,3.6,0,0,1,2.3.7,6.6,6.6,0,0,1,1.8,5.6c-.3,3.7-.5,7.4-.8,11.1-.1,1.4-.1,2.7,1,3.7a3.3,3.3,0,0,0,1,.3l21.8-.4a2.9,2.9,0,0,0,.9-.4c1-1.3,1-2.8,1.1-4.4.3-3.7.5-7.4.9-11.1a25,25,0,0,0-1.4-11.7c.5-1.5,1.3-2.4,2.5-2.6a5.5,5.5,0,0,1,2.9.6c3.2,1.5,3.9,3,3.6,6.5-.5,7.1-1,14.1-1.5,21.2-.3,4.5-.8,9.1-1.2,13.6a4.7,4.7,0,0,0,0,2,2.2,2.2,0,0,0,1.3,1.3,6.3,6.3,0,0,0,2.5-.2c1.5-.3,2.5.4,3.6,1.4a13.7,13.7,0,0,1,3.6,8.2,11.4,11.4,0,0,0,3.4,6.6,5.3,5.3,0,0,0,5.1,1.6,5.5,5.5,0,0,0,4.5-3.4c-.6-1.8-1.3-3.9-1.8-6-1.1-4.6-1-9.1,1.7-13.2a24.7,24.7,0,0,1,4.1-4.4,2.6,2.6,0,0,1,3.3,0c2.3,1.5,3.3,3.7,3.8,6.3a33.6,33.6,0,0,1,.1,11.6c-.3,1.8-.6,3.7-1,5.8a10.9,10.9,0,0,0,2.5,1.3,11.4,11.4,0,0,0,9.4-2c3,1.3,3,1.3,4.6,3.8-.5,1.9-.8,4.1-2.8,5.1a12,12,0,0,1-7.8,1.4c-1.8-.3-3.6-.8-5.4-1.3a8,8,0,0,0-6.3.8,16.3,16.3,0,0,1-5.6,2.2,13.6,13.6,0,0,1-12.3-4.5,39.4,39.4,0,0,1-3-4l-2.1-3.1a2,2,0,0,0-2.3,1.1c-.7,1.2-1.2,2.4-2,3.5a17,17,0,0,1-2.5,3.1,3.7,3.7,0,0,1-5-.2l-1.7-1.6a13.6,13.6,0,0,1-.7-5.7c.4-4.5.7-9.1,1-13.6.1-2.2.2-4.4.3-6.8a9.7,9.7,0,0,0-2.8-.9,98.1,98.1,0,0,0-10.1.2,79.8,79.8,0,0,0-9.5,1.6,2.8,2.8,0,0,0-1.7,1.7,10.8,10.8,0,0,0-.4,3.5c0,5.6.2,11.1.2,16.7,0,2.2-.2,4.4-.3,6.5a2.1,2.1,0,0,1-2.8.6,5.3,5.3,0,0,1-3.9-4.8c-.1-2.2.1-4.4.2-6.6a35.3,35.3,0,0,0,.1-4.5,11.6,11.6,0,0,1,0-4.5c.5-1.8-.3-3.6-.6-5.7a11.1,11.1,0,0,0-3,0c-1.6.5-3.1,1.3-4.7,1.9a5.2,5.2,0,0,1-7.3-4.5c-.1-.5,0-1,0-1.5a3,3,0,0,1,2.1-3.1c1.4-.5,2.9-.8,4.4-1.1l6.9-1.7A11.7,11.7,0,0,0,1043.1,196.8Z" fill="#e64c4e"/>
          <path d="M1102.6,236.5a14.3,14.3,0,0,1-10.6-4.9,26.9,26.9,0,0,1-2.4-3.1l-.7-1-1.6-2.3-.4-.7c-.8-.1-1.1.3-1.5.9l-.8,1.5a22.3,22.3,0,0,1-1.2,2,17.5,17.5,0,0,1-2.6,3.2,4.3,4.3,0,0,1-5.7-.2l-1.3-1.2-.5-.5h0a14.2,14.2,0,0,1-.7-5.9c.4-4.3.6-8.7.9-12.9v-.7c.1-1.5.2-3,.2-4.5v-1.9l-.6-.3a4.6,4.6,0,0,0-1.6-.5,96.9,96.9,0,0,0-10.1.2,80.1,80.1,0,0,0-9.4,1.6,2.3,2.3,0,0,0-1.3,1.3,10.3,10.3,0,0,0-.4,3.3c0,2.7.1,5.3.1,8s.1,5.8.1,8.7-.1,3-.2,4.5-.1,1.3-.1,2v.2h-.1a2.7,2.7,0,0,1-3.4.8,5.9,5.9,0,0,1-4.2-5.3,40.6,40.6,0,0,1,.1-4.5c0-.7.1-1.4.1-2.1s0-.9.1-1.3a20.4,20.4,0,0,0,0-3.1v-.6a10.4,10.4,0,0,1,.1-4.1,7.3,7.3,0,0,0-.2-3.6l-.3-1.4h-.6a5.1,5.1,0,0,0-1.8.1l-2.8,1.1-1.9.8a5.9,5.9,0,0,1-5.3-.4,6,6,0,0,1-2.8-4.6,7.1,7.1,0,0,1,0-1c0-.2,0-.4,0-.6a3.5,3.5,0,0,1,2.5-3.6l3.3-.9,1.2-.3,2.3-.6,4.6-1.1,1.1-.5.4-.2.2-.5.2-.6,1.2-13.3.4-4.9v-.4a5.3,5.3,0,0,1,.2-1.2c.5-1.8,1.6-2,2.2-2a4.2,4.2,0,0,1,2.6.9,7,7,0,0,1,2,6c-.2,1.8-.3,3.6-.4,5.5s-.3,3.8-.4,5.6-.1,2.4.8,3.2h.7l21.8-.4.4-.2h.2a6.5,6.5,0,0,0,.9-3.5v-.5c.1-1.3.2-2.6.3-3.9s.3-4.8.7-7.3a24.3,24.3,0,0,0-1.4-11.4v-.3c.7-2.2,2-2.8,2.9-2.9a5.9,5.9,0,0,1,3.2.6c3.3,1.6,4.2,3.2,3.9,7s-.4,6.1-.6,9.1-.6,8-.9,12.1-.5,5.9-.8,8.7l-.5,4.9v.5a3,3,0,0,0,0,1.3,1.8,1.8,0,0,0,1,.9,5.9,5.9,0,0,0,2.3-.2,4.2,4.2,0,0,1,4,1.6,14.2,14.2,0,0,1,3.8,8.5,10.9,10.9,0,0,0,3.2,6.3,4.7,4.7,0,0,0,4.6,1.4,5,5,0,0,0,4-2.9l-.5-1.5c-.5-1.4-.9-2.8-1.3-4.3-1.3-5.4-.7-9.9,1.8-13.6a25.3,25.3,0,0,1,4.2-4.5,3.1,3.1,0,0,1,3.9-.1,9.7,9.7,0,0,1,4,6.6,34,34,0,0,1,.1,11.8c-.2,1.2-.4,2.5-.6,3.8l-.3,1.6.4.3a5.6,5.6,0,0,0,1.6.8,10.8,10.8,0,0,0,9-1.9l.2-.2h.3c3.1,1.3,3.2,1.4,4.8,4v.2l-.2.9c-.4,1.7-.9,3.7-2.9,4.8a12.5,12.5,0,0,1-8.2,1.4l-4-.9-1.4-.4a7.5,7.5,0,0,0-5.9.7,16.6,16.6,0,0,1-5.8,2.3Zm-15.9-13h.8l.7,1,1.6,2.3.7,1a26.3,26.3,0,0,0,2.3,2.9,13,13,0,0,0,11.8,4.4,15.6,15.6,0,0,0,5.4-2.1,8.5,8.5,0,0,1,6.7-.9l1.4.4,3.9.9a11.4,11.4,0,0,0,7.5-1.3c1.5-.8,1.9-2.4,2.4-4.1v-.5c-1.3-2.1-1.4-2.2-3.9-3.3a11.7,11.7,0,0,1-9.6,1.9,6.4,6.4,0,0,1-1.9-.9l-.7-.4-.3-.2.4-2.4c.2-1.3.4-2.5.6-3.8a33,33,0,0,0-.1-11.4c-.6-2.9-1.7-4.7-3.6-6a2.1,2.1,0,0,0-2.7,0,24.3,24.3,0,0,0-4,4.3c-2.4,3.5-2.9,7.6-1.7,12.7.4,1.4.8,2.8,1.3,4.2l.6,1.7v.4a6.1,6.1,0,0,1-4.9,3.7,5.8,5.8,0,0,1-5.6-1.7,11.9,11.9,0,0,1-3.5-6.9,13.1,13.1,0,0,0-3.5-7.9c-1-1-1.8-1.5-3.1-1.3a6.9,6.9,0,0,1-2.7.2,2.8,2.8,0,0,1-1.7-1.6,3.8,3.8,0,0,1-.1-1.8v-.4l.5-4.9c.3-2.9.5-5.8.8-8.7s.6-8,.9-12,.4-6.1.6-9.1-.4-4.5-3.3-5.9a4.9,4.9,0,0,0-2.6-.5c-.9.1-1.6.8-2,2a25.3,25.3,0,0,1,1.4,11.7c-.3,2.4-.5,4.8-.6,7.2s-.2,2.6-.3,3.9v.5a7.2,7.2,0,0,1-1.2,4.1h-.5a2,2,0,0,1-.9.3l-21.8.4-.9-.2h-.5c-1.3-1.1-1.3-2.6-1.2-4.1s.3-3.7.4-5.6.3-3.7.4-5.5a6,6,0,0,0-1.6-5.2,3.1,3.1,0,0,0-1.9-.6c-.5,0-.9.4-1.2,1.3a4.5,4.5,0,0,0-.1,1v.4l-.4,4.9-1.2,13.3a2.9,2.9,0,0,1-.3.9l-.3.7v.2h-.2l-.6.3-1.4.6-4.6,1.1-2.3.6-1.2.3-3.1.8a2.4,2.4,0,0,0-1.8,2.6c0,.2,0,.4,0,.6a6.1,6.1,0,0,0,0,.8,5,5,0,0,0,2.3,3.8,4.8,4.8,0,0,0,4.3.3l1.8-.8,2.9-1.2a5.9,5.9,0,0,1,2.2-.1h1.5v.5c.1.6.2,1.2.4,1.8a8.2,8.2,0,0,1,.2,4.1,9.4,9.4,0,0,0-.1,3.7v.6a21,21,0,0,1,0,3.3c0,.4,0,.9-.1,1.3s-.1,1.4-.1,2.1a40.1,40.1,0,0,0-.1,4.4,4.9,4.9,0,0,0,3.5,4.4c1,.4,1.6.3,2.1-.3v-1.8c.1-1.5.2-3,.2-4.4s-.1-5.8-.1-8.7-.1-5.3-.1-8a11.2,11.2,0,0,1,.4-3.7,3.3,3.3,0,0,1,2.1-2,80.9,80.9,0,0,1,9.5-1.6,100.1,100.1,0,0,1,10.2-.2,5.4,5.4,0,0,1,2.1.6l.9.4h.4v2.7c-.1,1.6-.1,3.1-.2,4.5v.7c-.3,4.2-.5,8.6-.9,12.9a13.2,13.2,0,0,0,.6,5.4l.3.3,1.2,1.1a3.2,3.2,0,0,0,4.3.2,16.6,16.6,0,0,0,2.4-3,21.1,21.1,0,0,0,1.1-1.9l.9-1.6A2.5,2.5,0,0,1,1086.7,223.6Z" fill="#e64c4e"/>
        </g>
        <g id="_Group_" data-name="&lt;Group&gt;">
          <g>
            <path d="M20.3,107.3c.1-.5.3-1.2.3-1.8.6-5.7,1.2-11.4,2-17.1A55.2,55.2,0,0,1,26,75.8,31.1,31.1,0,0,0,43.1,64.2c3.1-4,6-8.2,8.6-12.5a49.1,49.1,0,0,0,6.9-19.4,11,11,0,0,0-1.8-7.2,2.6,2.6,0,0,0-2.5-1.4A2.9,2.9,0,0,0,52,26.2c-.3,1.8-.4,3.7-.6,5.5a34.4,34.4,0,0,1-3.8,12.5A77.9,77.9,0,0,1,36.6,60a35.4,35.4,0,0,1-5.3,4.7,14.1,14.1,0,0,1-3.6,1.8c-2,.8-3.3.4-4.3-1.4a57.9,57.9,0,0,1-3.4-6.8c-2.8-6.7-4.4-13.8-5.9-20.9a83.6,83.6,0,0,1-1.9-26.1c.2-1.7.7-3.3.8-5a10.3,10.3,0,0,0-.5-3.9C12.1,1.1,10.8.6,9.2.3A5.5,5.5,0,0,0,5.4,6c0,3.4-.1,6.8-.1,10.1a34.2,34.2,0,0,0,.1,4.5c.9,7,1.5,14.1,3.4,20.9l.5,2c1.8,8.6,3.6,16.9,7.8,25.4,1,2.1,1.7,4.2,1.1,6.3a77.1,77.1,0,0,0-2.9,18.9c0,1.2-.3,2.3-.3,3.5,0,2.7.1,5.4.2,8.1a2.9,2.9,0,0,0,2.2,2.5C18.6,108.7,19.4,108.2,20.3,107.3ZM57.1,25a11.1,11.1,0,0,1,1.8,7.4,49.8,49.8,0,0,1-6.9,19.5c-2.6,4.2-5.5,8.4-8.6,12.5A31.2,31.2,0,0,1,26.2,76.1a54.9,54.9,0,0,0-3.3,12.3c-.5,3.8-.9,7.7-1.3,11.5l-.6,5.6c-.1.5-.1.9-.2,1.4v.5h-.1a3.3,3.3,0,0,1-2.3,1.3h-.8a3.1,3.1,0,0,1-2.4-2.7c-.2-2.8-.2-5.6-.2-8.1a15.1,15.1,0,0,1,.1-2c.1-.5.1-1.1.1-1.6a77.9,77.9,0,0,1,2.9-19c.6-2.2-.2-4.3-1.1-6.2-4.3-8.7-6.1-17.2-7.8-25.5-.1-.6-.3-1.3-.5-1.9A111,111,0,0,1,5.7,25l-.5-4.3a30.4,30.4,0,0,1-.1-4v-.5c0-1.6,0-3.2.1-4.8s.1-3.5.1-5.3a5.8,5.8,0,0,1,4-6h.1c1.5.3,3,.8,3.6,2.4a10.7,10.7,0,0,1,.5,4A19.9,19.9,0,0,1,13,9.2c-.1.7-.3,1.5-.4,2.2a83.9,83.9,0,0,0,1.9,26c1.6,7.6,3.2,14.4,5.9,20.8A57.8,57.8,0,0,0,23.7,65c.9,1.6,2.1,2,4,1.3a13.8,13.8,0,0,0,3.5-1.8,35,35,0,0,0,5.2-4.7A76.4,76.4,0,0,0,47.3,44.1a34,34,0,0,0,3.8-12.4c.2-1.9.3-3.7.6-5.5a3.2,3.2,0,0,1,2.6-2.6A2.9,2.9,0,0,1,57.1,25Z" fill="#e64c4e"/>
            <path d="M56.8,25.2a11,11,0,0,1,1.8,7.2,49.1,49.1,0,0,1-6.9,19.4c-2.7,4.3-5.6,8.5-8.6,12.5A31.1,31.1,0,0,1,26,75.8a55.2,55.2,0,0,0-3.4,12.5c-.8,5.7-1.3,11.4-2,17.1-.1.7-.2,1.3-.3,1.8s-1.7,1.4-2.8,1.1a2.9,2.9,0,0,1-2.2-2.5c-.2-2.7-.2-5.4-.2-8.1,0-1.2.2-2.3.3-3.5a77.1,77.1,0,0,1,2.9-18.9c.6-2.2-.1-4.2-1.1-6.3-4.2-8.5-6-16.8-7.8-25.4l-.5-2C6.9,34.7,6.3,27.7,5.4,20.6a34.2,34.2,0,0,1-.1-4.5c0-3.4.1-6.7.1-10.1A5.5,5.5,0,0,1,9.2.3c1.6.3,2.9.9,3.4,2.2a10.3,10.3,0,0,1,.5,3.9c-.1,1.7-.6,3.3-.8,5a83.6,83.6,0,0,0,1.9,26.1c1.5,7.1,3.1,14.2,5.9,20.9a57.9,57.9,0,0,0,3.4,6.8c1,1.8,2.4,2.1,4.3,1.4a14.1,14.1,0,0,0,3.6-1.8A35.4,35.4,0,0,0,36.6,60,77.9,77.9,0,0,0,47.6,44.2a34.4,34.4,0,0,0,3.8-12.5c.2-1.8.3-3.7.6-5.5a2.9,2.9,0,0,1,2.3-2.4A2.6,2.6,0,0,1,56.8,25.2Zm1.5,7.2a10.6,10.6,0,0,0-1.7-7,2.3,2.3,0,0,0-2.3-1.2,2.6,2.6,0,0,0-2.1,2.2c-.3,1.8-.4,3.6-.6,5.5a34.6,34.6,0,0,1-3.8,12.6,77.5,77.5,0,0,1-11,15.8,36.1,36.1,0,0,1-5.3,4.7,14.3,14.3,0,0,1-3.6,1.9c-2.1.8-3.6.3-4.7-1.5a56.6,56.6,0,0,1-3.4-6.8c-2.7-6.5-4.3-13.3-5.9-20.9a83.9,83.9,0,0,1-1.9-26.2,20,20,0,0,1,.4-2.3,19.5,19.5,0,0,0,.4-2.7,10.1,10.1,0,0,0-.5-3.8C12,1.5,11.1.9,9.2.5S5.7,3.2,5.6,6s0,3.5-.1,5.3,0,3.2-.1,4.8v.5a29.2,29.2,0,0,0,.1,4l.5,4.3A110.5,110.5,0,0,0,9.1,41.5c.2.7.4,1.4.5,2,1.7,8.2,3.5,16.7,7.8,25.3,1,2,1.8,4.2,1.1,6.5a77.3,77.3,0,0,0-2.9,18.9c0,.5-.1,1.1-.1,1.6a14.2,14.2,0,0,0-.1,1.9c0,2.5,0,5.3.2,8.1a2.6,2.6,0,0,0,2,2.3c1,.3,1.7-.1,2.5-.9v-.4c.1-.4.2-.9.2-1.3l.6-5.6c.4-3.8.8-7.6,1.3-11.5a54.9,54.9,0,0,1,3.4-12.6l.2-.2a30.7,30.7,0,0,0,17-11.5c3.1-4.1,6-8.3,8.6-12.4A49.1,49.1,0,0,0,58.3,32.3Z" fill="#e64c4e"/>
            <path d="M56.6,25.3a10.6,10.6,0,0,1,1.7,7,49.1,49.1,0,0,1-6.8,19.3C48.9,55.8,46,60,42.9,64.1a30.7,30.7,0,0,1-17,11.5l-.2.2a54.9,54.9,0,0,0-3.4,12.6c-.5,3.8-.9,7.7-1.3,11.5l-.6,5.6c-.1.5-.1.9-.2,1.3v.4c-.8.8-1.5,1.3-2.5.9a2.6,2.6,0,0,1-2-2.3c-.2-2.8-.2-5.6-.2-8.1a14.2,14.2,0,0,1,.1-1.9c.1-.5.1-1.1.1-1.6a77.3,77.3,0,0,1,2.9-18.9c.7-2.4-.1-4.5-1.1-6.5C13,60.2,11.3,51.7,9.6,43.5c-.1-.6-.3-1.3-.5-2A110.5,110.5,0,0,1,6.2,24.9l-.5-4.3a29.2,29.2,0,0,1-.1-4v-.5c0-1.6,0-3.2.1-4.8s.1-3.5.1-5.3S6.8,1.4,9.2.5s2.7,1,3.1,2a10.1,10.1,0,0,1,.5,3.8,19.5,19.5,0,0,1-.4,2.7,20,20,0,0,0-.4,2.3,83.9,83.9,0,0,0,1.9,26.2c1.6,7.6,3.2,14.4,5.9,20.9a56.6,56.6,0,0,0,3.4,6.8c1.1,1.8,2.5,2.3,4.7,1.5a14.3,14.3,0,0,0,3.6-1.9,36.1,36.1,0,0,0,5.3-4.7,77.5,77.5,0,0,0,11-15.8,34.6,34.6,0,0,0,3.8-12.6c.2-1.9.3-3.7.6-5.5a2.6,2.6,0,0,1,2.1-2.2A2.3,2.3,0,0,1,56.6,25.3Z" fill="#e64c4e"/>
          </g>
          <g>
            <path d="M26,75.8a55.2,55.2,0,0,0-3.4,12.5c-.8,5.7-1.3,11.4-2,17.1-.1.7-.2,1.3-.3,1.8s-1.7,1.4-2.8,1.1a2.9,2.9,0,0,1-2.2-2.5c-.2-2.7-.2-5.4-.2-8.1,0-1.2.2-2.3.3-3.5a77.1,77.1,0,0,1,2.9-18.9c.6-2.2-.1-4.2-1.1-6.3-4.2-8.5-6-16.8-7.8-25.4l-.5-2C6.9,34.7,6.3,27.7,5.4,20.6a34.2,34.2,0,0,1-.1-4.5c0-3.4.1-6.7.1-10.1A5.5,5.5,0,0,1,9.2.3c1.6.3,2.9.9,3.4,2.2a10.3,10.3,0,0,1,.5,3.9c-.1,1.7-.6,3.3-.8,5a83.6,83.6,0,0,0,1.9,26.1c1.5,7.1,3.1,14.2,5.9,20.9a57.9,57.9,0,0,0,3.4,6.8c1,1.8,2.4,2.1,4.3,1.4a14.1,14.1,0,0,0,3.6-1.8A35.4,35.4,0,0,0,36.6,60,77.9,77.9,0,0,0,47.6,44.2a34.4,34.4,0,0,0,3.8-12.5c.2-1.8.3-3.7.6-5.5a2.9,2.9,0,0,1,2.3-2.4,2.6,2.6,0,0,1,2.5,1.4,11,11,0,0,1,1.8,7.2,49.1,49.1,0,0,1-6.9,19.4c-2.7,4.3-5.6,8.5-8.6,12.5A31.1,31.1,0,0,1,26,75.8Z" fill="#e64c4e"/>
            <path d="M18.2,108.7h-.8a3.1,3.1,0,0,1-2.4-2.7c-.2-2.8-.2-5.6-.2-8.1a15.1,15.1,0,0,1,.1-2c.1-.5.1-1.1.1-1.6a77.9,77.9,0,0,1,2.9-19c.6-2.2-.2-4.3-1.1-6.2-4.3-8.7-6.1-17.2-7.8-25.5-.1-.6-.3-1.3-.5-1.9A111,111,0,0,1,5.7,25l-.5-4.3a30.4,30.4,0,0,1-.1-4v-.5c0-1.6,0-3.2.1-4.8s.1-3.5.1-5.3a5.8,5.8,0,0,1,4-6h.1c1.5.3,3,.8,3.6,2.4a10.7,10.7,0,0,1,.5,4A19.9,19.9,0,0,1,13,9.2c-.1.7-.3,1.5-.4,2.2a83.9,83.9,0,0,0,1.9,26c1.6,7.6,3.2,14.4,5.9,20.8A57.8,57.8,0,0,0,23.7,65c.9,1.6,2.1,2,4,1.3a13.8,13.8,0,0,0,3.5-1.8,35,35,0,0,0,5.2-4.7A76.4,76.4,0,0,0,47.3,44.1a34,34,0,0,0,3.8-12.4c.2-1.9.3-3.7.6-5.5a3.2,3.2,0,0,1,2.6-2.6A2.9,2.9,0,0,1,57.1,25a11.1,11.1,0,0,1,1.8,7.4,49.8,49.8,0,0,1-6.9,19.5c-2.6,4.2-5.5,8.4-8.6,12.5A31.2,31.2,0,0,1,26.2,76.1a54.9,54.9,0,0,0-3.3,12.3c-.5,3.8-.9,7.7-1.3,11.5l-.6,5.6c-.1.5-.1.9-.2,1.4v.5h-.1A3.3,3.3,0,0,1,18.2,108.7Z" fill="#e64c4e"/>
            <path d="M9.2.5C6.8,1.4,5.7,3.2,5.6,6s0,3.5-.1,5.3,0,3.2-.1,4.8v.5a29.2,29.2,0,0,0,.1,4l.5,4.3A110.5,110.5,0,0,0,9.1,41.5c.2.7.4,1.4.5,2,1.7,8.2,3.5,16.7,7.8,25.3,1,2,1.8,4.2,1.1,6.5a77.3,77.3,0,0,0-2.9,18.9c0,.5-.1,1.1-.1,1.6a14.2,14.2,0,0,0-.1,1.9c0,2.5,0,5.3.2,8.1a2.6,2.6,0,0,0,2,2.3c1,.3,1.7-.1,2.5-.9v-.4c.1-.4.2-.9.2-1.3l.6-5.6c.4-3.8.8-7.6,1.3-11.5a54.9,54.9,0,0,1,3.4-12.6l.2-.2a30.7,30.7,0,0,0,17-11.5c3.1-4.1,6-8.3,8.6-12.4a49.1,49.1,0,0,0,6.8-19.3,10.6,10.6,0,0,0-1.7-7,2.3,2.3,0,0,0-2.3-1.2,2.6,2.6,0,0,0-2.1,2.2c-.3,1.8-.4,3.6-.6,5.5a34.6,34.6,0,0,1-3.8,12.6,77.5,77.5,0,0,1-11,15.8,36.1,36.1,0,0,1-5.3,4.7,14.3,14.3,0,0,1-3.6,1.9c-2.1.8-3.6.3-4.7-1.5a56.6,56.6,0,0,1-3.4-6.8c-2.7-6.5-4.3-13.3-5.9-20.9a83.9,83.9,0,0,1-1.9-26.2,20,20,0,0,1,.4-2.3,19.5,19.5,0,0,0,.4-2.7,10.1,10.1,0,0,0-.5-3.8C12,1.5,11.1.9,9.2.5Z" fill="#e64c4e"/>
            <line x1="20.3" y1="107.3" x2="20.3" y2="107.3" fill="#e64c4e"/>
          </g>
        </g>
        <g>
          <path d="M239.2,215.9a19.8,19.8,0,0,0-4.6,6.6,45.2,45.2,0,0,1-5.3,8,10.2,10.2,0,0,1-1.6,1.6c-2.1,1.7-4.7,1-5.9-1.5a7.9,7.9,0,0,1-.7-4.1c.1-1.7.3-3.4.3-5.1s-.4-1-.8-1.8c-3,3.7-3.4,8.2-5.7,12.1a4.5,4.5,0,0,1-4.8-.3c-1.7-1.1-1.6-3.2-2.1-5,1-3.5,2-7,2.9-10.6s.7-4.3,1.1-6.4,1.4-3.5,4-3.3,2.5-.9,3.6-1.4a4.8,4.8,0,0,1,4.7.2,4.3,4.3,0,0,1,2,2.4l2.4,6.4c.7.2,1.1-.3,1.5-.7a46,46,0,0,0,5.2-9.1l2.1-4.3a17.2,17.2,0,0,1,3,0,5.1,5.1,0,0,1,4.2,3.6,33.1,33.1,0,0,1,1.8,8.5,119.8,119.8,0,0,1,.3,13.4c-.1,1,.4,2.1.4,3.2a7.7,7.7,0,0,1-.4,3.1,3.3,3.3,0,0,1-5.8.4,9.4,9.4,0,0,1-1.6-6.1,42,42,0,0,0,.3-6A26.1,26.1,0,0,0,239.2,215.9Z" fill="#e64c4e" stroke="#e64c4e" stroke-miterlimit="10"/>
          <path d="M244,233.9a3.7,3.7,0,0,1-3.2-1.8,9.9,9.9,0,0,1-1.7-6.4,41.7,41.7,0,0,0,.3-5.9,10.1,10.1,0,0,0-.3-2.1l-.2-.8a20,20,0,0,0-3.9,5.8,45.9,45.9,0,0,1-5.3,8.1,10.8,10.8,0,0,1-1.6,1.7,4.2,4.2,0,0,1-3.6.9,4.6,4.6,0,0,1-3-2.6,8.4,8.4,0,0,1-.7-4.3v-1.7c.1-1.1.2-2.2.2-3.4a2.1,2.1,0,0,0-.3-.8h0a24,24,0,0,0-3,6.2,29.9,29.9,0,0,1-2.2,5.2h-.2a4.9,4.9,0,0,1-5.3-.3c-1.5-1-1.8-2.5-2-4.1l-.2-1.2h0l.9-3.1c.7-2.4,1.4-5,2-7.5s.5-2.3.6-3.4.3-1.9.5-2.9c.5-2.6,1.4-3.9,4.4-3.7a3.8,3.8,0,0,0,2.4-.8l1-.6a5.2,5.2,0,0,1,5.1.2,4.8,4.8,0,0,1,2.2,2.6l1.7,4.6.6,1.6c.2,0,.4-.2.7-.6a42.1,42.1,0,0,0,4.9-8.3l.3-.7,1.4-2.8.8-1.7h1.2a9.6,9.6,0,0,1,2.2,0,5.6,5.6,0,0,1,4.6,4,33.1,33.1,0,0,1,1.8,8.7v1.8a101.7,101.7,0,0,1,.2,11.6,6.1,6.1,0,0,0,.2,1.6,8.2,8.2,0,0,1,.2,1.6,8.1,8.1,0,0,1-.4,3.3,3.7,3.7,0,0,1-3.2,2.2Zm-4.5-19,.2.8.4,1.6a10.9,10.9,0,0,1,.4,2.3,42.7,42.7,0,0,1-.3,6.1,9,9,0,0,0,1.5,5.8,2.7,2.7,0,0,0,2.6,1.4,2.8,2.8,0,0,0,2.4-1.7,8,8,0,0,0,.1-4.3,6.9,6.9,0,0,1-.2-1.8,101,101,0,0,0-.2-11.5v-1.9a32.2,32.2,0,0,0-1.8-8.4,4.6,4.6,0,0,0-3.9-3.3h-2.7l-.6,1.2-1.4,2.8-.3.7a42.9,42.9,0,0,1-5,8.5c-.4.5-1,1.2-2,.9h-.2l-.8-2.1-1.7-4.5a3.8,3.8,0,0,0-1.8-2.1,4.3,4.3,0,0,0-4.3-.2l-.9.5a4.7,4.7,0,0,1-2.9.9c-2.2-.2-2.9.4-3.5,2.9-.2.9-.3,1.9-.5,2.8s-.4,2.4-.6,3.5-1.3,5.1-2,7.5l-.8,3,.2,1.2c.3,1.4.5,2.7,1.6,3.4a4,4,0,0,0,4.3.3,29.5,29.5,0,0,0,2.1-4.9,22.8,22.8,0,0,1,3.5-7.1l.5-.6.3.7.3.7a2.6,2.6,0,0,1,.5,1.3c0,1.1-.1,2.3-.2,3.4v1.7a7.3,7.3,0,0,0,.6,3.8,3.7,3.7,0,0,0,2.4,2.1,3.3,3.3,0,0,0,2.8-.7,9.9,9.9,0,0,0,1.5-1.6,45,45,0,0,0,5.2-7.9,20.5,20.5,0,0,1,4.7-6.7Z" fill="#e64c4e"/>
        </g>
        <g>
          <path d="M859.6,206.5c3.2.7,5.8-.3,8.4-.6s4.7-.7,7-.8a6.6,6.6,0,0,1,6.5,4.6,3.7,3.7,0,0,1,.2,1.5,10,10,0,0,1-.4,1.7c-6.3.6-12.7,1.2-18.8,3.6a5.4,5.4,0,0,0-1.2,1c-.6,2-.1,4-.1,6s.1,5.7-.1,8.6-2.6,3.2-4.5,1.7a6.3,6.3,0,0,1-2.7-4.1,42.7,42.7,0,0,1-.4-5c0-1.7.3-3.4-.5-5s-3.1-1.2-4.7-1.4c-3.2-.6-5-2.6-6.1-5.4a2.3,2.3,0,0,1,2.2-3.2h3.5l3-.3a4.6,4.6,0,0,0,1.1-.6c.3-1.7-.3-3.5-.5-5.3a36.5,36.5,0,0,0-1.1-5.5c-1.7-6-3.5-12-5-18a69.1,69.1,0,0,1-1.5-10c-.2-2.4,1.1-4.2,3.3-5.1a18.6,18.6,0,0,1,8.4-1.3c5.6.3,11.1,1.2,16.6,1.9a26,26,0,0,1,7.8,2.1,9,9,0,0,1,5,6,2.5,2.5,0,0,1-.5,1.8c-.2.3-.9.3-1.4.4h-.5c-4.8-2.4-10.1-2.5-15.3-2.9-2.5-.2-5-.6-7.6-.6a28.8,28.8,0,0,0-5.5.4,2.5,2.5,0,0,0-2.2,2.9,28.7,28.7,0,0,0,1.1,7c1.2,3.2,1.7,6.5,2.6,9.8S858.3,201.5,859.6,206.5Z" fill="#e64c4e"/>
          <path d="M858.7,235a3.7,3.7,0,0,1-2.3-.9,6.9,6.9,0,0,1-2.9-4.5v-.8a34.8,34.8,0,0,1-.3-4.3c0-.3,0-.7,0-1a8,8,0,0,0-.4-3.7,4.7,4.7,0,0,0-3.1-1.1l-1.2-.2c-3-.5-5.2-2.4-6.5-5.8a2.8,2.8,0,0,1,.2-2.6,3,3,0,0,1,2.4-1.4h3.6l3-.3.4-.2.3-.2a10.8,10.8,0,0,0-.3-3.2c-.1-.6-.2-1.1-.3-1.7A36.1,36.1,0,0,0,850,198l-1.9-6.8c-1.1-3.7-2.2-7.5-3.1-11.3a69.8,69.8,0,0,1-1.5-10.1c-.2-2.5,1.1-4.5,3.7-5.7a19.1,19.1,0,0,1,8.7-1.4c4.5.2,9.1.9,13.5,1.5l3.2.4a26.9,26.9,0,0,1,7.9,2.1,9.5,9.5,0,0,1,5.3,6.3,2.9,2.9,0,0,1-.5,2.2,1.8,1.8,0,0,1-1.3.5h-1.2c-4.2-2.1-8.8-2.4-13.2-2.7h-1.9l-2.9-.3-4.6-.4a28.3,28.3,0,0,0-5.4.4,2,2,0,0,0-1.8,2.3v1.1a23.2,23.2,0,0,0,1,5.8,54.5,54.5,0,0,1,1.8,6.5c.3,1.1.5,2.2.8,3.3l2.6,10,1.1,4.2a15.5,15.5,0,0,0,5.8-.3l2.2-.4,2-.3a49.2,49.2,0,0,1,5.1-.5,7.1,7.1,0,0,1,7.1,5,4.3,4.3,0,0,1,.2,1.7,5,5,0,0,1-.3,1.2l-.2.6v.4h-1c-6,.6-12.2,1.2-17.9,3.5l-.6.5-.3.3a10.5,10.5,0,0,0-.1,3.8c.1.6.1,1.3.1,2s0,1.7,0,2.5,0,4.1-.1,6.1a3.1,3.1,0,0,1-1.8,2.7Zm-13.4-25h-.9a2,2,0,0,0-1.6.9,1.7,1.7,0,0,0-.1,1.6c1.2,3,3,4.6,5.7,5.1h1.1a5.6,5.6,0,0,1,3.9,1.5h.1a8.8,8.8,0,0,1,.6,4.3c0,.3,0,.6,0,1a34.2,34.2,0,0,0,.3,4.1v.8a5.9,5.9,0,0,0,2.5,3.8,2.4,2.4,0,0,0,2.5.5,2,2,0,0,0,1.2-1.8c.1-2,.1-4,.1-6s0-1.7,0-2.6,0-1.3-.1-1.9a11.1,11.1,0,0,1,.2-4.3h.2l.4-.3a3.1,3.1,0,0,1,1-.7c5.9-2.4,12.2-3,18.2-3.6h.3v-.3a4.2,4.2,0,0,0,.2-.9,3.3,3.3,0,0,0-.1-1.3,6.1,6.1,0,0,0-6-4.3,48.5,48.5,0,0,0-4.9.5l-2,.3-2.1.4a15.8,15.8,0,0,1-6.5.3h-.3l-1.2-4.9-2.6-9.9c-.3-1.1-.5-2.2-.8-3.3a53.5,53.5,0,0,0-1.8-6.4,24,24,0,0,1-1.1-6v-1a3,3,0,0,1,2.7-3.5,29.4,29.4,0,0,1,5.6-.4l4.7.4,2.9.3h1.9c4.6.3,9.3.6,13.6,2.8h1.2a2,2,0,0,0,.4-1.3,8.4,8.4,0,0,0-4.7-5.7,25.9,25.9,0,0,0-7.6-2l-3.2-.4c-4.4-.6-8.9-1.2-13.4-1.5a17.8,17.8,0,0,0-8.2,1.3,4.4,4.4,0,0,0-3,4.6,68.9,68.9,0,0,0,1.5,9.9c.9,3.8,2,7.6,3.1,11.2l1.9,6.8a37.1,37.1,0,0,1,1.1,5.5c.1.5.2,1.1.3,1.6a10.8,10.8,0,0,1,.2,3.8v.2h-.2l-.5.3-.8.4-3.1.3h-2.7Z" fill="#e64c4e"/>
        </g>
        <g>
          <path d="M6.3,225.1c27.2-2.7,27.4-.3,34.9,1.2a13.2,13.2,0,0,1,1.1,3.1c.3,3.7.2,4.1-3.4,3.6a28.4,28.4,0,0,1-3.9-.9,27.7,27.7,0,0,0-9-1.1,95.7,95.7,0,0,0-18.1,2.1c-1.7.4-3.3.5-4.9-.6a5.1,5.1,0,0,1-2.5-4.2,32.5,32.5,0,0,1,.4-7c1.4-5.7,3.2-11.4,4.7-17.1,3.7-13.5,7.3-25.9,9.8-39.6.7-4.1,1.3-8.3,2-12.5l.3-1.5c.5-2.9,2.6-5,4.4-4.6s2.1,5.7,1.6,8.2a25.6,25.6,0,0,1-.9,2.9c-1.1,3.6-2.3,7.1-3.1,10.7-1.3,5.2-1.7,9.6-2.9,14.8-.5,2.1-1.4,4.2-1.9,6.3q-3.6,13.4-7,26.9c-.6,2.3-1,4.6-1.5,6.9A14,14,0,0,0,6.3,225.1Z" fill="#e64c4e" stroke="#e64c4e" stroke-miterlimit="10"/>
          <path d="M43.1,226.5a5,5,0,0,1,1.2,2.9c.3,1.9.5.9-.6,2.8s-3,1.7-4.9,1.4a29,29,0,0,1-4-1,27,27,0,0,0-8.8-1.1,96.5,96.5,0,0,0-18,2.1,9.8,9.8,0,0,1-2.2.3,5,5,0,0,1-3.1-1A5.6,5.6,0,0,1,0,228.3c0-.5,0-1,0-1.5a24,24,0,0,1,.4-5.6c.9-3.6,1.9-7.3,2.9-10.8l1.8-6.3,2.5-8.9c2.9-10.3,5.4-20,7.3-30.7.5-2.8.9-5.6,1.3-8.4l.6-4.1.2-.9v-.6a6.8,6.8,0,0,1,2.7-4.5,2.9,2.9,0,0,1,2.4-.4c2.8.8,2.5,6,2,8.8a11.5,11.5,0,0,1-.6,1.9l-.3,1-1,3.1c-.8,2.5-1.6,5-2.2,7.5s-.8,4.8-1.4,7.7-1,4.8-1.5,7.1a34.7,34.7,0,0,1-1.1,3.5c-.3.9-.6,1.9-.9,2.8-2.2,8.5-4.5,17.3-7,26.9-.6,2.3-1.1,4.7-1.5,6.9a5.6,5.6,0,0,0,0,1.2v.4c21.9-2.1,26.1-.9,31,.4l3.5.9m-.2,1.6-.3-.7-3.3-.8c-4.8-1.3-9-2.5-31.1-.3H5.8v-.6c0-.3,0-.7,0-.9a6.4,6.4,0,0,1,.1-1.5c.4-2.1.9-4.6,1.5-6.9,2.5-9.6,4.8-18.4,7-26.9.3-1,.6-1.9.9-2.9a34,34,0,0,0,1-3.4c.5-2.4,1-4.8,1.5-7.1s.7-4.8,1.4-7.7,1.4-5.1,2.2-7.6l1-3.1.4-1.1a10.5,10.5,0,0,0,.5-1.7c.4-2.2,1-7-1.2-7.6h-.4a2.2,2.2,0,0,0-1.1.4,5.8,5.8,0,0,0-2.2,3.8v.6l-.2.9-.6,4.1c-.4,2.8-.8,5.6-1.4,8.4-1.9,10.8-4.4,20.4-7.3,30.8l-2.5,8.9-1.8,6.3c-1,3.5-2,7.1-2.9,10.7a23.2,23.2,0,0,0-.4,5.4c0,.5,0,1,0,1.5s.7,2.6,2.3,3.8a5.1,5.1,0,0,0,4.4.5,97.5,97.5,0,0,1,18.2-2.1,27.9,27.9,0,0,1,9.2,1.1,27.5,27.5,0,0,0,3.9.9" fill="#e64c4e"/>
        </g>
        <g>
          <path d="M423.2,206.8c-1.6-.7-3-.3-4.3,0a7.5,7.5,0,0,1-7-2.1,19,19,0,0,1-.5-2.6c-.1-2.8,1.2-4.6,3.9-4.8a28.4,28.4,0,0,0,7.7-1.7l1.4-.7c.1-.7.2-1.4.3-2.2.3-5.6.6-11.2.9-16.8.2-2.3.5-4.7.8-7a11.6,11.6,0,0,1,.7-2.7,2.8,2.8,0,0,1,4.6-1.1,6,6,0,0,1,2.2,5.8,25.2,25.2,0,0,1-.7,3.2c-1.8,5.9-1.5,12.1-1.5,18.1,0,.3.3.5.6.9l2.7-.3,8.9-.5a14.9,14.9,0,0,1,3.2.5c3.2.6,4.5,3,5.3,5.9a1.6,1.6,0,0,1-1.5,1.9h-2.8a46.1,46.1,0,0,0-14.3,2.2,4.7,4.7,0,0,0-3.7,4.8c-.1,1.7-.1,3.4-.2,5.2s-.5,1.6-.8,4.4-1.1,8-1.2,12.1a15.8,15.8,0,0,1-.1,1.9c-.3,1.9-1.5,3.3-2.7,3.4a4.7,4.7,0,0,1-4.6-2.7,7.2,7.2,0,0,1-.5-4.1,45.2,45.2,0,0,1,.9-4.6,76.3,76.3,0,0,0,2.5-14.6A6.5,6.5,0,0,0,423.2,206.8Z" fill="#e64c4e" stroke="#e64c4e" stroke-miterlimit="10"/>
          <path d="M424.8,235a5.2,5.2,0,0,1-4.8-3,7.7,7.7,0,0,1-.5-4.4,45.3,45.3,0,0,1,.9-4.6c1.3-4.9,1.7-5.9,2.2-10.8l.3-3.7a3.3,3.3,0,0,0-.1-1v-.3a5.5,5.5,0,0,0-3.2,0H419a7.9,7.9,0,0,1-7.5-2.3h-.1v-.8a11.7,11.7,0,0,1-.3-1.9,5.2,5.2,0,0,1,1.2-3.9,4.5,4.5,0,0,1,3.3-1.4,27.9,27.9,0,0,0,7.6-1.7l.8-.4.3-.2v-.4c.1-.5.1-1,.2-1.5l.3-6c.2-3.6.4-7.2.6-10.8s.5-4.9.8-7a12.2,12.2,0,0,1,.8-2.8,3.4,3.4,0,0,1,2.3-2.1,3.5,3.5,0,0,1,3.1.8,6.5,6.5,0,0,1,2.4,6.3,25.7,25.7,0,0,1-.7,3.3c-1.5,5.2-1.5,10.7-1.5,16v2l.2.3v.2h.5l1.9-.2h1.3l7.6-.4a12.5,12.5,0,0,1,2.8.4h.6c3.8.7,5,3.7,5.7,6.2a1.9,1.9,0,0,1-.3,1.7,2.2,2.2,0,0,1-1.6.9h-2.8a45.2,45.2,0,0,0-14.2,2.2,4.2,4.2,0,0,0-3.3,4.3V209c0,1.2-.1,2.5-.2,3.7s-.5,1.6-.8,4.4-1,8-1.2,12.1v.4a11.5,11.5,0,0,1-.1,1.5c-.4,2.2-1.7,3.7-3.2,3.8Zm-3.4-29a4.8,4.8,0,0,1,2,.4h.2v.7a4.1,4.1,0,0,1,.2,1.4l-.3,3.7c-.4,4.9-.9,6-2.2,11a44.2,44.2,0,0,0-.9,4.5,6.7,6.7,0,0,0,.4,3.9A4.2,4.2,0,0,0,425,234c1,0,2-1.3,2.3-3a10.6,10.6,0,0,0,.1-1.4v-.4c.2-4.1.7-8.3,1.2-12.1s.6-1.6.8-4.4c.1-1.2.1-2.5.2-3.7v-1.4a5.2,5.2,0,0,1,4-5.2,46,46,0,0,1,14.5-2.2h2.8a1.2,1.2,0,0,0,.9-.5,1,1,0,0,0,.2-.8c-.9-3.4-2.4-5-4.9-5.5h-.6a11.2,11.2,0,0,0-2.5-.3l-7.5.4h-1.3l-1.8.2h-1.1l-.2-.3-.2-.3a1.5,1.5,0,0,1-.4-.9v-2c0-5.4,0-10.9,1.5-16.3a24.8,24.8,0,0,0,.6-3.2,5.5,5.5,0,0,0-2.1-5.4,2.5,2.5,0,0,0-2.2-.6,2.4,2.4,0,0,0-1.6,1.5,11.2,11.2,0,0,0-.7,2.6c-.3,2.1-.6,4.5-.8,6.9s-.4,7.2-.6,10.8l-.3,6c0,.5-.1,1.1-.2,1.6v.9h-.2l-.5.3-1,.5a28.7,28.7,0,0,1-7.9,1.7,3.5,3.5,0,0,0-2.6,1.1,4.3,4.3,0,0,0-.9,3.2,10.8,10.8,0,0,0,.3,1.8v.6a7,7,0,0,0,6.5,1.9h.6Z" fill="#e64c4e"/>
        </g>
        <g>
          <path d="M297,172.5a15.1,15.1,0,0,1,1.2,7.1q-.4,11.3-1,22.6c-.1,2-.4,4-.5,6s0,2.7,0,4.4c1.5-.6,1.6-2.1,2.4-2.9a10.4,10.4,0,0,0,2.3-2.8c1.4-2.9,3.9-4.6,6-6.8s4.8-1.2,5.8,1.4a30,30,0,0,1,1,4.2,25,25,0,0,1-2,2.4l-7.1,6.3a16.5,16.5,0,0,0-1.7,2.3,16.4,16.4,0,0,0,1.7,2.7c2.5,2.6,5.1,5.1,7.7,7.7l1.6,1.6a3.7,3.7,0,0,1,1,3c-.2,3.2-2.3,4.4-4.9,2.7a43.4,43.4,0,0,1-6.1-5.3,9.1,9.1,0,0,0-3.9-2.6l-1.8,1.7-2.1,2.4c-.9,1-1.9,2.1-3.4,1.6s-3.6-1.7-3.7-4a68.2,68.2,0,0,1,0-7.4c.3-5.2.7-10.5,1.1-15.7s1-10.8,1.1-16.1-.4-8.9-.7-13.4a15.6,15.6,0,0,1-.1-2.3c.2-2.4,1.6-3.2,3.7-2.1Z" fill="#e64c4e" stroke="#e64c4e" stroke-miterlimit="10"/>
          <path d="M312.8,235.6a4.6,4.6,0,0,1-2.5-.8,36.4,36.4,0,0,1-5.3-4.6l-.9-.9a8.8,8.8,0,0,0-3.4-2.3l-.3.3-1.3,1.2-1,1.2-1.1,1.2h-.1c-.9,1-2.1,2.2-3.8,1.6s-4-2.3-4.1-4.5a68.9,68.9,0,0,1,0-7.4c.2-3.9.5-7.9.8-11.7l.3-4c.1-1.7.3-3.3.4-5,.3-3.6.6-7.4.7-11.1s-.2-6.2-.4-9.3c-.1-1.4-.2-2.7-.3-4.1v-.8a7.8,7.8,0,0,1-.1-1.6,3.2,3.2,0,0,1,1.4-2.8,3,3,0,0,1,3,.3l1.6.9,1,.6h.1a15.8,15.8,0,0,1,1.3,7.3c-.3,8-.6,15.4-1,22.7-.1,1.1-.2,2.2-.3,3.3s-.2,1.8-.3,2.7,0,1.8,0,2.8v.6a4.2,4.2,0,0,0,.8-1.2,4.5,4.5,0,0,1,.8-1.2,10,10,0,0,0,2.2-2.6,18.1,18.1,0,0,1,4.3-5.2l1.8-1.7a3.8,3.8,0,0,1,3.6-1.1,4.3,4.3,0,0,1,3.1,2.7,15.7,15.7,0,0,1,.7,2.9l.3,1.4v.2l-.2.2-.6.8a13.9,13.9,0,0,1-1.5,1.6l-3.4,3.1-3.6,3.3a7.6,7.6,0,0,0-1.1,1.4l-.4.6.4.7a8,8,0,0,0,1.1,1.7l5.8,5.8,1.9,1.9,1,.9.7.6a4.2,4.2,0,0,1,1.2,3.3,4.1,4.1,0,0,1-1.8,3.6A2.8,2.8,0,0,1,312.8,235.6Zm-12.4-9.7h.2a9.3,9.3,0,0,1,4,2.6l.9.9a35.7,35.7,0,0,0,5.2,4.4,2.8,2.8,0,0,0,2.9.5,3.9,3.9,0,0,0,.4-5.4l-.7-.6-1-.9-1.9-1.9-5.8-5.8a8.7,8.7,0,0,1-1.3-1.9l-.5-.9-.2-.3.2-.3.6-.8a8.5,8.5,0,0,1,1.2-1.5l3.7-3.3,3.4-3a12.9,12.9,0,0,0,1.3-1.5l.5-.6-.2-1.2a15.1,15.1,0,0,0-.7-2.7,3.4,3.4,0,0,0-2.4-2.2,2.9,2.9,0,0,0-2.7.9l-1.8,1.7a17.2,17.2,0,0,0-4.1,4.9,10.5,10.5,0,0,1-2.4,2.8,3.7,3.7,0,0,0-.7,1,3.9,3.9,0,0,1-1.9,2l-.6.3v-.7c0-.5,0-1,0-1.5s0-1.9,0-2.9.2-1.9.3-2.8.2-2.1.3-3.2c.3-7.2.7-14.7,1-22.6a14.7,14.7,0,0,0-1.1-6.8l-.7-.4-1.6-.9a2.3,2.3,0,0,0-2.1-.3,2.6,2.6,0,0,0-.9,2,7,7,0,0,0,.1,1.4c0,.3.1.5.1.8s.2,2.7.3,4.1c.2,3.1.5,6.2.4,9.4s-.4,7.5-.7,11.2c-.1,1.7-.3,3.3-.4,5l-.3,4c-.3,3.8-.6,7.8-.8,11.7a68,68,0,0,0,0,7.3c.1,1.8,1.1,2.9,3.4,3.6s2-.5,2.9-1.4h.1l1-1.2,1.1-1.2,1.3-1.2.5-.5Z" fill="#e64c4e"/>
        </g>
        <g>
          <path d="M1204.5,225.7c1.2-3.1,2.1-5.4,2.9-7.8a4.3,4.3,0,0,0,.2-2c-.4-2.6.7-5,.8-7.5a3.7,3.7,0,0,1,1.8-2.9,11.3,11.3,0,0,1,7-2.4c4,.1,8.1,0,12.1,1.1a13.4,13.4,0,0,1,6,3.6,2.7,2.7,0,0,1,.9,2.7,3.4,3.4,0,0,1-3,2.3,15.2,15.2,0,0,1-2.5-.5,23,23,0,0,0-11.5.7,4.9,4.9,0,0,0-1,.7c-.2.8-.6,1.7-.8,2.7l-3.1,12.3a2.8,2.8,0,0,1-4.3,2c-1.2-.6-2.3-1.4-3.3-2.1l-.6.2c-1.8,3-4.7,3.9-7.9,4.6a42.1,42.1,0,0,1-17.1.1c-5.3-1-8.8-4.6-9.4-9.8a19.2,19.2,0,0,1,.3-7,109.8,109.8,0,0,1,4-10.9,9.4,9.4,0,0,1,1.3-2.1c5.3-3.9,9.2-3.9,14.8-2.6a3.5,3.5,0,0,1,1.8,2.9c0,1.4-7,2.7-8,3.8-3.8,4.3-5.7,9.4-6.8,15a2.5,2.5,0,0,0,2.1,3,7,7,0,0,0,2,.3,114.2,114.2,0,0,0,12.6-1.1C1198.7,224.4,1201.6,223.7,1204.5,225.7Z" fill="#e64c4e"/>
          <path d="M1189.3,234.8a43.1,43.1,0,0,1-8.3-.8c-5.5-1.1-9.2-4.9-9.8-10.3a19.4,19.4,0,0,1,.3-7.2,77.2,77.2,0,0,1,3-8.5l1-2.5a9.5,9.5,0,0,1,1.4-2.2l.2-.2c5.4-3.9,9.5-4,15.2-2.7h.1a4,4,0,0,1,2.1,3.4c0,1.1-1.8,1.8-4.8,2.8a13.4,13.4,0,0,0-3.3,1.3c-3.3,3.7-5.5,8.4-6.7,14.7a1.9,1.9,0,0,0,1.7,2.3h.3a5.3,5.3,0,0,0,1.5.2l3.3-.2a73.5,73.5,0,0,0,9.2-.9h.5c2.7-.5,5.4-1,8.2.6l.7-1.9,1.9-5.3a3.8,3.8,0,0,0,.2-1.7,14.1,14.1,0,0,1,.4-4.8,20.8,20.8,0,0,0,.4-2.8,4.3,4.3,0,0,1,2-3.3,12,12,0,0,1,7.3-2.5h2.2a36.9,36.9,0,0,1,9.9,1.1,13.8,13.8,0,0,1,6.2,3.7,3.2,3.2,0,0,1,1,3.2,3.9,3.9,0,0,1-3.5,2.7l-1.9-.3h-.6a22.3,22.3,0,0,0-11.2.6l-.4.3-.3.3-.2.6c-.2.6-.4,1.2-.6,1.9l-1.5,6-1.6,6.3a3.3,3.3,0,0,1-5,2.3l-2.4-1.4-.8-.5h-.1c-2,3.2-5.3,4.1-8.2,4.8A42.9,42.9,0,0,1,1189.3,234.8ZM1177.6,204a8.7,8.7,0,0,0-1.2,2l-1,2.5a76.4,76.4,0,0,0-3,8.3,18.3,18.3,0,0,0-.2,6.8c.6,4.9,3.9,8.3,9,9.4a41.3,41.3,0,0,0,16.8-.1c3.5-.7,6-1.7,7.6-4.4a.9.9,0,0,1,.6-.4h.6l1,.6,2.3,1.4a2.2,2.2,0,0,0,3.5-1.6l1.6-6.2,1.5-6c.2-.7.4-1.4.6-2l.2-.7v-.2h.1l.4-.3.8-.5a23.4,23.4,0,0,1,11.7-.7l.7.2,1.7.3a2.9,2.9,0,0,0,2.5-1.9,2.1,2.1,0,0,0-.8-2.2,12.8,12.8,0,0,0-5.8-3.4,36.1,36.1,0,0,0-9.7-1.1h-2.3a10.8,10.8,0,0,0-6.7,2.3,3.2,3.2,0,0,0-1.5,2.5,21.9,21.9,0,0,1-.4,3,13,13,0,0,0-.4,4.5,4.8,4.8,0,0,1-.3,2.2l-2,5.3-1.2,3.1-.6-.4c-2.6-1.8-5.1-1.3-7.9-.8h-.5a74.4,74.4,0,0,1-9.3.9l-3.3.2a6.1,6.1,0,0,1-1.9-.3h-.3a3,3,0,0,1-2.5-3.6c1.3-6.5,3.5-11.4,6.9-15.2.5-.5,1.7-1,3.7-1.6s3.9-1.3,4.1-1.8a3,3,0,0,0-1.4-2.4C1186.4,200.3,1182.6,200.3,1177.6,204Z" fill="#e64c4e"/>
        </g>
        <g>
          <path d="M1270.2,207.6c1.6-1.3,3.1-1.6,4.5-.8a5.8,5.8,0,0,1,3.1,4.8c.1,2,0,4,0,5.9a10.3,10.3,0,0,0,.2,1.6,1.3,1.3,0,0,0,1.8-.5c1.1-1.8,2.1-3.7,3.1-5.6a4.6,4.6,0,0,1,4-2.9c3.1,2.5,4.7,5.6,4,9.8-.2,1-.5,2.2.8,2.7s1.6-.6,2.2-1.3a14.1,14.1,0,0,0,4-9.9c0-2.4,0-4.9.1-7.3a27.4,27.4,0,0,1,.4-3c1.9-1,3.1-.5,4.2.9a12.6,12.6,0,0,1,2.1,5c1.2,6.6.7,13-2.9,18.9a15.1,15.1,0,0,1-4.9,4.7c-2.5,1.6-4.3,1.5-6.7-.3l-4.8-3.8-1.7,1.4-4.6,3.7a3.7,3.7,0,0,1-4.3.1,8.7,8.7,0,0,1-4.7-6.4,33.9,33.9,0,0,1-.4-5.5c0-3.6.1-7.3.2-10.9A9.4,9.4,0,0,1,1270.2,207.6Z" fill="#e64c4e"/>
          <path d="M1277,233a5,5,0,0,1-2.4-.7,9.1,9.1,0,0,1-4.9-6.7,34.3,34.3,0,0,1-.5-5.5c0-3,.1-6,.2-8.9v-2.1a4.6,4.6,0,0,1,.2-1v-.7h.1c1.8-1.5,3.5-1.8,5-.8a6.3,6.3,0,0,1,3.3,5.2c0,1.2,0,2.4,0,3.6s0,1.6,0,2.4a5.7,5.7,0,0,0,.1,1.1v.2a.7.7,0,0,0,.9-.3c1.1-1.8,2.1-3.7,3.1-5.5a5,5,0,0,1,4.4-3.1h.3c3.5,2.9,4.9,6.2,4.2,10.3v.3c-.2,1.1-.2,1.7.6,1.9s.8-.1,1.3-.7l.4-.4a13.6,13.6,0,0,0,3.8-9.6v-1.8c0-1.8,0-3.7.1-5.6a16.2,16.2,0,0,1,.3-2.2V201h.2c2-1,3.6-.7,4.8,1a13.1,13.1,0,0,1,2.2,5.2c1.4,7.5.4,13.8-3,19.2a15.5,15.5,0,0,1-5,4.9c-2.6,1.7-4.7,1.6-7.2-.3l-3.2-2.6-1.2-1-.2.2-1.2,1-1.2.9-3.5,2.8A4,4,0,0,1,1277,233Zm-6.4-25.1v.4a3.9,3.9,0,0,0-.2.8v2.1c-.1,2.9-.2,5.9-.2,8.9a33.4,33.4,0,0,0,.4,5.4,8.2,8.2,0,0,0,4.4,6,3.3,3.3,0,0,0,3.8-.1l3.4-2.7,1.2-.9,1.1-1,.8-.7.3.2,1.6,1.3,3.2,2.5c2.2,1.7,3.8,1.8,6.1.3a14.6,14.6,0,0,0,4.7-4.6c3.3-5.3,4.2-11.3,2.9-18.5a12.2,12.2,0,0,0-2-4.8,2.3,2.3,0,0,0-3.3-.9v.6a15.1,15.1,0,0,0-.3,2c-.1,1.8-.1,3.7-.1,5.5v1.8a14.7,14.7,0,0,1-4.1,10.2l-.3.4c-.5.6-1.2,1.4-2.4,1s-1.4-2-1.2-3V220c.6-3.6-.6-6.7-3.7-9.3a4.1,4.1,0,0,0-3.4,2.6c-.9,1.9-2,3.8-3.1,5.6a1.7,1.7,0,0,1-2.4.7h-.2v-.7a6.5,6.5,0,0,1-.2-1.2c0-.8,0-1.6,0-2.4s0-2.4,0-3.5a5.4,5.4,0,0,0-2.9-4.4C1273.3,206.5,1272,206.7,1270.6,207.8Z" fill="#e64c4e"/>
        </g>
        <g>
          <path d="M536.7,199.1c-1.3,2.7-1.1,5.5-.8,8.4s.6,4,.7,6c.2,4.1,1.1,8,1.7,12.1l4,1.2a6.8,6.8,0,0,1,.2,5c-.7,2.6-2.9,3.5-5.5,4.1a9.4,9.4,0,0,1-4.3-5.8,75,75,0,0,1-1.8-8.9,96.4,96.4,0,0,1-1.1-14.1,35.1,35.1,0,0,0-.5-4.2l-2.6-.4a6.4,6.4,0,0,1-5.1-7.9,4.6,4.6,0,0,1,1.9-2.2,8.2,8.2,0,0,1,2.4-.7c2.2-.7,2.7-1.4,2.2-3.7s-1.4-4.9-2-7.3,0-4.2,2.2-5.7a2.8,2.8,0,0,1,3.7.2,6.1,6.1,0,0,1,2.1,5.9,13.7,13.7,0,0,0,.8,6.7c1,1.1,2,.8,3,.7l21.6-2.9a7.8,7.8,0,0,1,6.5,2c2.2,1.9,1.2,4.8-1.2,5.7a10,10,0,0,1-2,.4l-18.5,2.8A16.4,16.4,0,0,0,536.7,199.1Z" fill="#e64c4e" stroke="#e64c4e" stroke-miterlimit="10"/>
          <path d="M536.8,236.4h-.2a9.9,9.9,0,0,1-4.5-6.1,76.2,76.2,0,0,1-1.8-9,96.2,96.2,0,0,1-1.1-14.1,17.3,17.3,0,0,0-.3-2.6l-.2-1h-.5l-1.7-.3a7.3,7.3,0,0,1-4.7-3.2,7,7,0,0,1-.8-5.4,5.1,5.1,0,0,1,2.1-2.5,4.4,4.4,0,0,1,1.8-.6l.8-.2c2-.6,2.3-1.1,1.9-3.1s-.7-2.9-1.2-4.4l-.8-2.9c-.7-2.7,0-4.6,2.4-6.3a3.3,3.3,0,0,1,4.4.2,6.7,6.7,0,0,1,2.3,6.4,13,13,0,0,0,.7,6.3,2.2,2.2,0,0,0,2.3.5h.2l13.1-1.8,8.4-1.1a8.3,8.3,0,0,1,7,2.2,3.8,3.8,0,0,1,1.3,3.5,4.1,4.1,0,0,1-2.7,3l-1.6.3h-.5l-6.3.9-12.2,1.9a16.2,16.2,0,0,0-7.3,2.6c-1.2,2.5-1,5.3-.7,8l.2,1.9c.2,1.3.4,2.7.4,4.1a64,64,0,0,0,1,8c.2,1.2.4,2.4.6,3.6l3.9,1.2v.2a7.4,7.4,0,0,1,.3,5.4c-.7,3-3.3,3.9-5.9,4.5Zm-6.8-61.6a2.6,2.6,0,0,0-1.5.5c-2,1.4-2.5,2.9-2,5.1l.8,2.9c.4,1.4.9,2.9,1.2,4.4s0,3.5-2.6,4.3l-.9.2a3.7,3.7,0,0,0-1.4.5,4.1,4.1,0,0,0-1.7,1.9,5.9,5.9,0,0,0,.7,4.6,6.3,6.3,0,0,0,4.1,2.7l1.6.3h1.3v.4l.2,1.4a18,18,0,0,1,.3,2.8,95.3,95.3,0,0,0,1.1,14,75.4,75.4,0,0,0,1.7,8.8,8.8,8.8,0,0,0,3.9,5.3c2.6-.6,4.4-1.5,4.9-3.7a6.5,6.5,0,0,0-.1-4.4l-4.1-1.3v-.3c-.2-1.3-.4-2.6-.6-3.9a65.7,65.7,0,0,1-1-8.2c-.1-1.3-.2-2.7-.4-4l-.2-1.9c-.3-2.8-.5-5.8.8-8.7h.2a17,17,0,0,1,7.8-2.9l12.2-1.9,6.8-1,1.4-.3a3.1,3.1,0,0,0,2-2.2,2.7,2.7,0,0,0-1-2.5,7.2,7.2,0,0,0-6.1-1.9l-8.4,1.1-13.1,1.8h-.2a3.2,3.2,0,0,1-3.3-.9h-.1a14.1,14.1,0,0,1-.8-6.9,5.6,5.6,0,0,0-1.9-5.4A2.3,2.3,0,0,0,530.1,174.8Z" fill="#e64c4e"/>
        </g>
        <g>
          <path d="M102.4,195.7a5.9,5.9,0,0,0,1.7.7,31.9,31.9,0,0,0,3.7-.1,6.7,6.7,0,0,1,4.5,1.1,6.2,6.2,0,0,1,2.8,4.7c-.7,1.7-2,2.3-3.7,2.5l-7.4,1.1a8.8,8.8,0,0,0-1.8.7,23.7,23.7,0,0,0-1.4,6.9c-.2,2.8-.3,5.6-.4,8.5a12.2,12.2,0,0,0,0,3.3c.5,1.9-.1,3.7-.1,5.6a4.1,4.1,0,0,1-2.6,3.8c-1.7-.1-3-1-4.3-2.4l-1.1-4.7c2-5.6,2.9-14,2.1-18.6-3.6-.5-4-.6-5.4-2.1s-2-6.9,1.8-8.2c1.5-.5,3.1-.5,4.4-1.7a5.7,5.7,0,0,0,.4-1.2c.5-5.3.9-10.6,1.3-15.9.2-2.2,0-4.4.1-6.6s.2-2.5.3-3.5,2.9-1.9,4.6-1.1a5.7,5.7,0,0,1,3.4,4.3,11,11,0,0,1-.3,4.6c-.8,3.2-1.5,6.4-2.2,9.6A29.6,29.6,0,0,0,102.4,195.7Z" fill="#e64c4e" stroke="#e64c4e" stroke-miterlimit="10"/>
          <path d="M97.9,234.8h-.1a6.9,6.9,0,0,1-4.7-2.6H93l-1.2-5h0c1.9-5.4,2.8-13.3,2.1-18-3.3-.5-3.8-.7-5.3-2.2a5.5,5.5,0,0,1-1.7-5.2,5.4,5.4,0,0,1,3.7-3.8l1.3-.4a5.8,5.8,0,0,0,2.8-1.2V196a2.9,2.9,0,0,0,.2-.8l.2-2.3c.4-4.5.8-9.1,1.1-13.7.1-1.3.1-2.6.1-3.9s0-1.8,0-2.6.1-1.8.2-2.5V169H97c1.6-1.2,3.2-2.1,5.1-1.1a6.2,6.2,0,0,1,3.6,4.6,11.5,11.5,0,0,1-.4,4.8c-.9,3.5-1.6,7-2.2,9.6a28.9,28.9,0,0,0-.3,8.6h.3l1,.3h3.7a7.1,7.1,0,0,1,4.8,1.1,6.7,6.7,0,0,1,3,5h0a4.4,4.4,0,0,1-4.1,2.8l-7.4,1.1-1,.4-.4.2a23.1,23.1,0,0,0-1.3,6.6c-.2,2.8-.3,5.6-.4,8.5v.9a7.5,7.5,0,0,0,0,2.3,11.2,11.2,0,0,1,0,3.9c-.1.6-.1,1.2-.1,1.9a4.5,4.5,0,0,1-2.8,4.3Zm-4-3.2a5.8,5.8,0,0,0,3.8,2.2,3.5,3.5,0,0,0,2.2-3.3c0-.7.1-1.3.1-1.9a10.3,10.3,0,0,0,0-3.5,8.3,8.3,0,0,1-.1-2.6v-.8q.2-4.2.4-8.5a24.1,24.1,0,0,1,1.5-7v-.2h.2l.6-.3,1.3-.5,7.5-1.1c1.8-.2,2.7-.8,3.2-2a5.7,5.7,0,0,0-2.6-4.2,6.2,6.2,0,0,0-4.2-1h-3.8a3.4,3.4,0,0,1-1.4-.4l-.5-.2H102v-.3a30.4,30.4,0,0,1,.3-9.2c.6-2.7,1.3-6.2,2.2-9.6a10.6,10.6,0,0,0,.3-4.4,5.2,5.2,0,0,0-3.1-3.9c-1.3-.7-2.3-.2-3.9.9v.8c-.1.8-.2,1.6-.2,2.5s0,1.7,0,2.6,0,2.7-.1,4c-.3,4.6-.7,9.2-1.1,13.7l-.2,2.3a3.7,3.7,0,0,1-.3,1v.3h-.1a6.5,6.5,0,0,1-3.3,1.5l-1.3.3a4.4,4.4,0,0,0-3.1,3.1,4.6,4.6,0,0,0,1.4,4.3c1.3,1.3,1.5,1.4,5.2,1.9h.4v.4c.8,4.7-.1,13.1-2.1,18.7Z" fill="#e64c4e"/>
        </g>
        <g>
          <path d="M974.3,215.7c-2.5,1.6-3.5,8.1-4.5,9.9a12.7,12.7,0,0,1-3.3,3.8,4.5,4.5,0,0,1-5.6.5c-1.9-1.1-3.7-8.8-4.9-10.7s-1.4-1.8-2.2-2.8c-2.3,2.4-2.3,13.9-4.9,15.8a7.8,7.8,0,0,1-5.2-1.3c-1.5-.8-2.6-3.7-2.7-5.6s-.2-9.9-.2-12.6.9-1.9,2.4-2h2.7l1.4-3.7c1.3-3.9,5.1-4.8,7.8-1.8a18,18,0,0,1,4.3,6.7,2.8,2.8,0,0,0,2.1,2.3,6.8,6.8,0,0,0,1.2-1.3,14.7,14.7,0,0,0,1.3-2.8c1.3-4.1,4.2-5.9,8.4-5.8,4.9,2.1,8,6,10.1,10.7s3.2,13.3,5.3,18.4a2.7,2.7,0,0,1-.5,2.8,2.6,2.6,0,0,1-2.7.9c-2-.5-4-1.3-4.9-3.2s-2-3.4-2.3-6.3S975.6,218.5,974.3,215.7Z" fill="#e64c4e"/>
          <path d="M985.1,238h-.9c-2.7-.6-4.4-1.8-5.3-3.5s.5.5.2.1a17.3,17.3,0,0,1-2.6-6.6c-.2-2.1-1.2-8.6-2.2-10.8l-.3-.5c-2,1.5-2.9,7.6-3.8,9.3h-.1a13.1,13.1,0,0,1-3.4,3.9,5,5,0,0,1-6.2.5c-1.7-1-3.7-8.8-5.1-10.9l-1.4-1.8-.4-.4a13.6,13.6,0,0,0-1.6,3.1c-.7,1.6-1.4,11.2-3,12.4h-.2a8.2,8.2,0,0,1-5.6-1.3c-1.8-1-2.8-4.1-2.9-6s-.2-10.2-.2-12.6,1.1-2.5,2.9-2.5h2.3l.3-.8.9-2.6a5.4,5.4,0,0,1,3.9-3.8,5.1,5.1,0,0,1,4.8,1.9,18.4,18.4,0,0,1,4.4,6.9c.3.9.5,1.5,1.4,1.9h.1a3.7,3.7,0,0,0,.7-.8,14.1,14.1,0,0,0,1.2-2.7c1.4-4.1,4.4-6.2,8.9-6.2h.2c4.6,2,8,5.6,10.4,11,1.6,3.5,3,11.7,4.4,15.2.6,1.6.2,1.6.9,3.2a3.2,3.2,0,0,1-.6,3.4A3,3,0,0,1,985.1,238Zm-10.6-23.1.8,1.7c1.1,2.3,2.1,8.9,2.3,11.2A16.3,16.3,0,0,0,980,234c.3.5-.5-.5-.2,0s2.3,2.4,4.6,2.9a2,2,0,0,0,2.2-.7,2.2,2.2,0,0,0,.4-2.3c-.6-1.6-.3-1.6-.9-3.2-1.4-3.5-2.9-11.7-4.4-15.2-2.2-5.1-5.4-8.5-9.7-10.4H972c-4,0-6.6,1.8-7.8,5.4a15.3,15.3,0,0,1-1.3,2.9,4.6,4.6,0,0,1-.9,1.1l-.3.3-.2.2h-.3a3.3,3.3,0,0,1-2.5-2.7,17.5,17.5,0,0,0-4.2-6.5,4.1,4.1,0,0,0-3.8-1.5,4.4,4.4,0,0,0-3.1,3.2l-.9,2.6-.6,1.5h-3.1c-1.7,0-1.9.8-1.9,1.4,0,2.4.1,9.5.2,12.5s.9,4.3,2.4,5.1a7.5,7.5,0,0,0,4.8,1.3c1.3-1,1.9-10.4,2.5-11.8a12.5,12.5,0,0,1,2.2-3.8l.4-.4.4.5.8.9a20.2,20.2,0,0,1,1.5,1.9c1.1,1.7,2.7,9.3,4.8,10.5a4,4,0,0,0,5-.4,12.1,12.1,0,0,0,3.1-3.6h.1c1-1.9,2.1-8.3,4.7-10Z" fill="#e64c4e"/>
        </g>
        <g>
          <path d="M66.4,198.4c3.1-.5,5.6.3,7,3s.6,4.5,1,6.7a15.2,15.2,0,0,1,.4,2.3c0,3.9-1.7,5.6-5.7,6-2,.2-4.1-.1-6.1,1a8.5,8.5,0,0,0-1,4.9,3.4,3.4,0,0,0,3.3,3.3c2.9.3,5.6-.5,8.3-1.3l10-2.9a3.3,3.3,0,0,1,3.7,1.4,2.7,2.7,0,0,1-.2,3.8,13.5,13.5,0,0,1-2.3,1.6c-5.6,2.9-11.4,5.3-17.7,6.1l-.9.2c-5.8,1-9.8-3.1-10.8-7.5a28.1,28.1,0,0,1-.8-7.5c.1-3,.6-5.9.5-8.9a5.2,5.2,0,0,1,2.5-4.8,14.8,14.8,0,0,0,2.4-2.2C61.8,201.8,63.8,199.7,66.4,198.4Z" fill="#e64c4e" stroke="#e64c4e" stroke-miterlimit="10"/>
          <path d="M64.3,235.2c-5.2,0-8.6-4-9.5-8.1a28.5,28.5,0,0,1-.9-7.6c0-1.2.1-2.3.2-3.4a40.8,40.8,0,0,0,.2-5.4,5.7,5.7,0,0,1,2.8-5.2,11.9,11.9,0,0,0,2-1.7l.6-.6a24.4,24.4,0,0,1,6.4-5.1h.1c3.6-.6,6.1.5,7.5,3.3v.2l.3,2,.7,4.7.2.8a5.7,5.7,0,0,1,.3,1.5c0,4.2-1.8,6.1-6.1,6.5H67.6a9.5,9.5,0,0,0-4.2.8,8,8,0,0,0-.9,4.5,2.9,2.9,0,0,0,2.9,2.9c2.5.3,4.8-.4,7.3-1.1l.8-.2,5.2-1.5,4.7-1.4a3.8,3.8,0,0,1,4.2,1.6,3.2,3.2,0,0,1-.3,4.5,14,14,0,0,1-2.4,1.6c-6.8,3.6-12.3,5.5-17.9,6.2h-.9Zm2.2-36.3a23.6,23.6,0,0,0-6.1,4.9l-.6.6a12.5,12.5,0,0,1-2.2,1.9,4.7,4.7,0,0,0-2.3,4.3,41.5,41.5,0,0,1-.2,5.6c-.1,1.1-.2,2.3-.2,3.4a27.5,27.5,0,0,0,.8,7.3c1,4.1,4.6,8.1,10.3,7.2H67c5.5-.7,10.9-2.6,17.5-6.1a13,13,0,0,0,2.2-1.5,2.3,2.3,0,0,0,.2-3.1,2.8,2.8,0,0,0-3.2-1.2L79,223.3l-5.2,1.5-.8.2a19.8,19.8,0,0,1-7.7,1.1,3.9,3.9,0,0,1-3.8-3.7,8.9,8.9,0,0,1,1.1-5.2h.2a10.1,10.1,0,0,1,4.7-1h1.6c3.8-.4,5.2-1.9,5.2-5.5a5,5,0,0,0-.2-1.3,9.1,9.1,0,0,1-.2-.9l-.7-4.7-.3-1.9C71.7,199.3,69.6,198.5,66.5,198.9Z" fill="#e64c4e"/>
        </g>
        <g>
          <path d="M765.8,212.9c-.8-.5-1.2-.9-1.7-.9-2.8-.2-4.5-2.2-6.4-3.9s-1.1-5.2,1.6-6a19.2,19.2,0,0,1,3.3-.4l2.3-.2c1.7-3.2-.2-13.8,1.7-17.3l1.6-1,2.3-.9c2.3,1.2,3.8,2.9,3.9,5.5,0,.7-.2,8.5-.3,9.3s-.5,1.5-.7,2.2a9.1,9.1,0,0,0,.1,1.9c1.7,1.1,3.5.6,5.2.4l14.1-2.3h1.9c4.4,3.2,4.4,3.3,2.9,7.3a118.7,118.7,0,0,1-17,3.9,19.2,19.2,0,0,0-2.4.2c-3.4,1-5.3,1.3-5.1,6.5s.5,8.5.5,12.8a16.5,16.5,0,0,1,0,1.9c-.2,1.7-2.3,2.8-3.6,1.8s-4.5-3.5-4.3-6.9.1-5.7.1-8.5S765.8,214.8,765.8,212.9Z" fill="#e64c4e"/>
          <path d="M771.1,234.6a2.2,2.2,0,0,1-1.5-.5l-.4-.4c-2.1-1.7-4.2-3.5-4-6.9s.1-4.1.1-6.1,0-1.6,0-2.4,0-2.3,0-3.6v-1.5l-.5-.3-.7-.4c-2.5-.2-4.1-1.7-5.7-3.1l-1-.9a3.7,3.7,0,0,1-1.2-3.7,4.2,4.2,0,0,1,3-3.2,11.3,11.3,0,0,1,2.4-.3h3.1a9.8,9.8,0,0,0,.6-4.5c0-1.8-.1-10.7.9-12.6h.1l.3-.2,1.4-.8,1.6-.6.7-.3h.4c2.7,1.4,4.1,3.3,4.2,5.9,0,.8-.1,8.5-.3,9.2v.2l-.3,1a7.4,7.4,0,0,0-.3,1.2,4.6,4.6,0,0,0,0,1.2v.3a5.6,5.6,0,0,0,4,.3h.6l8.7-1.4,5.3-.9h2.2c4.5,3.4,4.7,3.7,3.1,7.9v.2h-.2a119.5,119.5,0,0,1-17.1,3.9h-2.8c-3.1.9-4.5,1.3-4.3,5.8.1,1.4.1,2.9.2,4.3s.3,5.6.3,8.4v.3a13.4,13.4,0,0,1,0,1.6,3,3,0,0,1-1.9,2.4Zm-4.1-50c-.8,1.6-.8,10.3-.8,12a10.2,10.2,0,0,1-.8,5.2v.2h-3.6a10.4,10.4,0,0,0-2.2.3,3.2,3.2,0,0,0-2.3,2.4,2.7,2.7,0,0,0,.9,2.7l1,.9c1.5,1.4,2.9,2.7,5.1,2.8a2.4,2.4,0,0,1,1.1.5l.7.4h.3v2.1c0,1.2,0,2.4,0,3.6s0,1.6,0,2.4,0,4.1-.1,6.1,1.7,4.5,3.7,6.1l.4.4a1.4,1.4,0,0,0,1.5.1,2,2,0,0,0,1.3-1.6,12.5,12.5,0,0,0,0-1.5V230c0-2.8-.2-5.6-.3-8.4s-.2-2.9-.2-4.4c-.2-5.3,1.9-5.9,5-6.8h.4l1.5-.2h.9a118.6,118.6,0,0,0,16.7-3.8c1.3-3.4,1.2-3.5-2.7-6.4h-1.6l-5.3.9-8.7,1.4h-.6c-1.5.3-3.2.5-4.9-.6H773v-.8a5.4,5.4,0,0,1,0-1.4,8.2,8.2,0,0,1,.4-1.3l.3-.9v-.2c.2-.7.3-8.3.3-9-.1-2.2-1.2-3.8-3.5-5l-.5.2-1.5.6-1.3.8Z" fill="#e64c4e"/>
        </g>
        <g>
          <path d="M316.5,215.6c3.1-1.3,4.6-4,6-7a77.2,77.2,0,0,1,3.5-6.9,4.2,4.2,0,0,1,6.8-.4,9.2,9.2,0,0,1,1.4,3.3c.9,4.4.2,8.9.5,12.8-1.4,1.6-2.8,1.8-4,2.3a40.1,40.1,0,0,0-3.7,1.5,2.1,2.1,0,0,0-.9,1.5,1.7,1.7,0,0,0,1.2,1.7,4.5,4.5,0,0,0,1.3.2,23.5,23.5,0,0,0,8.8-1.2,29.8,29.8,0,0,0,3.8-1.2c2.8-1.2,5.5.1,6.4,3a12.3,12.3,0,0,1,.3,1.4c-1.5,3.4-4.6,4.8-7.7,5.7s-7.8,1.9-11.9,1.5-8.1-2.7-9.7-7.5c-.5-1.6-1.3-3.1-2-4.6A7.1,7.1,0,0,1,316.5,215.6Z" fill="#e64c4e" stroke="#e64c4e" stroke-miterlimit="10"/>
          <path d="M330.8,234.3h-2.3c-5.2-.6-8.5-3.1-10.1-7.8-.4-1-.8-2.1-1.3-3.1l-.7-1.6a7.7,7.7,0,0,1-.3-6.3v-.2h.2c2.8-1.2,4.3-3.6,5.7-6.8s2.5-5.1,3.6-7a4.5,4.5,0,0,1,3.7-2.2,4.3,4.3,0,0,1,3.8,1.8,9.7,9.7,0,0,1,1.5,3.5,38.6,38.6,0,0,1,.5,8.2c0,1.6,0,3.2.1,4.6v.4a6.7,6.7,0,0,1-3.4,2.2l-.7.3-1.2.4-2.5,1a1.7,1.7,0,0,0-.6,1.1c-.1.7.6,1.1.9,1.2l.9.2h.3a23.4,23.4,0,0,0,8.6-1.1l.7-.2a22.5,22.5,0,0,0,3-1,5.1,5.1,0,0,1,4.2-.1,5.6,5.6,0,0,1,2.9,3.4,6.5,6.5,0,0,1,.2,1v.6h-.1c-1.7,3.8-5.2,5.2-8,5.9A37.1,37.1,0,0,1,330.8,234.3ZM316.9,216a6.6,6.6,0,0,0,.4,5.3l.7,1.5c.5,1,.9,2.1,1.3,3.1,1.5,4.3,4.5,6.7,9.3,7.2s8-.4,11.7-1.4,5.8-2,7.3-5.3v-.3a5.7,5.7,0,0,0-.2-.8,4.6,4.6,0,0,0-2.4-2.8,4.2,4.2,0,0,0-3.5.1,23.2,23.2,0,0,1-3.1,1l-.7.2a24.2,24.2,0,0,1-8.9,1.2h-.2l-1.2-.2a2.2,2.2,0,0,1-1.5-2.2,2.6,2.6,0,0,1,1.1-1.8l2.6-1.1,1.1-.4.8-.3a5.9,5.9,0,0,0,2.9-1.7c-.1-1.4-.1-2.9-.1-4.5a37.8,37.8,0,0,0-.5-8,8.7,8.7,0,0,0-1.4-3.1,3.4,3.4,0,0,0-3.1-1.4,3.6,3.6,0,0,0-3,1.7,77.5,77.5,0,0,0-3.5,6.9C321.4,212.2,319.8,214.7,316.9,216Z" fill="#e64c4e"/>
        </g>
        <g>
          <path d="M353.9,84.1c1.5-2.9,2.7-5.5,4.1-8.1a3.2,3.2,0,0,1,4-1.9h.4l3.2,1a11.6,11.6,0,0,1,1.2,2c.7,1.8,1,3.6,1.7,5.4a6.5,6.5,0,0,1-1,6.5c-1.8,1.8-4.6,1.4-7.3,1.8a14.3,14.3,0,0,0-2.3,9.8,6.5,6.5,0,0,0,5.2.5l7.5-2.2a8.7,8.7,0,0,1,4.3-.7,2.2,2.2,0,0,1,1.9,1.6c.7,2,.2,3.5-1.8,4.3-4.3,1.8-8.6,3.7-13.2,4.4-2.7.4-5.2.4-7.6-1.3s-3.3-3-3.4-5.3-.6-5.5.4-8.2a4.3,4.3,0,0,0-.3-3.3c-1.1-2.5-.7-4.2,1-5.5A9.3,9.3,0,0,1,353.9,84.1Z" fill="#e64c4e"/>
          <path d="M359.2,109.3a9.1,9.1,0,0,1-5.3-1.5c-2.3-1.6-3.5-3.4-3.6-5.7v-1.4a16.2,16.2,0,0,1,.5-7,3.9,3.9,0,0,0-.3-3c-1.1-2.7-.8-4.6,1.1-6a5,5,0,0,1,1.5-.7l.6-.2,1.2-2.4,2.8-5.5a3.7,3.7,0,0,1,4.5-2.1h.4l3.4,1h.1l.4.5a7.3,7.3,0,0,1,.9,1.6c.3.9.6,1.7.8,2.6s.5,1.9.9,2.8a6.9,6.9,0,0,1-1.1,7c-1.5,1.5-3.4,1.6-5.5,1.8l-1.9.2a13.8,13.8,0,0,0-2.2,9.1,6.1,6.1,0,0,0,4.6.3l7.5-2.2a9.2,9.2,0,0,1,4.5-.7,2.7,2.7,0,0,1,2.2,1.9c.8,2.4.1,3.9-2.1,4.9l-.4.2c-4.1,1.8-8.4,3.6-13,4.3Zm1.7-34.8a2.7,2.7,0,0,0-2.5,1.7l-2.8,5.5-1.3,2.6h-.2l-.8.3a4.3,4.3,0,0,0-1.2.6c-1.5,1.2-1.8,2.7-.8,5a4.8,4.8,0,0,1,.3,3.7,15.3,15.3,0,0,0-.5,6.6v1.4c.1,2,1.1,3.5,3.2,5s5,1.5,7.2,1.2c4.5-.6,8.7-2.4,12.8-4.2l.4-.2c1.7-.7,2.2-1.9,1.5-3.7a1.8,1.8,0,0,0-1.5-1.3,8.3,8.3,0,0,0-4,.6l-7.6,2.3a7,7,0,0,1-5.5-.6h-.2v-.2a14.8,14.8,0,0,1,2.4-10.1v-.2h.2l2.2-.2c2-.1,3.7-.2,4.9-1.5a6.1,6.1,0,0,0,.9-6c-.4-.9-.7-1.9-.9-2.9s-.5-1.7-.8-2.5a6.6,6.6,0,0,0-.8-1.4l-.3-.4-3-.9h-1.4Z" fill="#e64c4e"/>
        </g>
        <g>
          <path d="M89.2,98.6a23.9,23.9,0,0,0,7.7-9.5c1.2-2.8,2.2-5.6,3.4-8.5a12.7,12.7,0,0,1,1.7-1.1,4.1,4.1,0,0,1,6,3.1,6.8,6.8,0,0,1,0,1.5c-.1,1.9-.1,3.7-.3,5.6a63.7,63.7,0,0,0-.3,13.6,2,2,0,0,1-1.6,2.3,3.4,3.4,0,0,1-2.3-.7c-.9-.9-1.5-4.7-2.3-5.8s-2.3,1.3-3,2.4a17.3,17.3,0,0,1-6.5,5.5,6.4,6.4,0,0,1-5.4.4,5.5,5.5,0,0,1-3.9-3.6A28.6,28.6,0,0,1,81,97.4c-.5-7.9-.8-12.3-.1-20.2a5.2,5.2,0,0,1,1.6-3.6c2.4-2.2,3.8-1.9,5.5.9a7.1,7.1,0,0,1,.9,6.2c-1.7,5.4-1.4,7.5-1.3,13.1A7.8,7.8,0,0,0,89.2,98.6Z" fill="#e64c4e"/>
          <path d="M88.7,108.3a7.7,7.7,0,0,1-2.5-.4,6,6,0,0,1-4.2-4l-.2-.5a26.3,26.3,0,0,1-1.3-6c-.5-7.2-.9-12.1-.1-20.3a5.7,5.7,0,0,1,1.7-3.9c1.3-1.2,2.4-1.7,3.4-1.6s1.9,1,2.9,2.6a7.6,7.6,0,0,1,.9,6.7C87.9,85.6,87.9,87,88,91.8c0,.7,0,1.3,0,2a7.1,7.1,0,0,0,1.2,4,22.9,22.9,0,0,0,7.1-8.9c.8-1.9,1.6-3.9,2.3-5.8l1-2.7v-.2h.1l.5-.3,1.3-.8a4.9,4.9,0,0,1,4.4,0,4.7,4.7,0,0,1,2.4,3.5,6.8,6.8,0,0,1,0,1.6v1.6c-.1,1.3-.1,2.7-.3,4.1a63,63,0,0,0-.3,13.5,2.7,2.7,0,0,1-.6,2.1,2,2,0,0,1-1.5.8,3.8,3.8,0,0,1-2.7-.8c-.7-.7-1.2-4.1-1.7-4.9l-.5-.7c-1,.1-1.5.8-2,1.6l-.3.5a17.6,17.6,0,0,1-6.7,5.7A6.8,6.8,0,0,1,88.7,108.3ZM85.2,72.6A3.9,3.9,0,0,0,82.8,74a4.7,4.7,0,0,0-1.4,3.3c-.8,8.2-.4,13,.1,20.1a25.5,25.5,0,0,0,1.3,5.7l.2.5a5,5,0,0,0,3.6,3.3,5.8,5.8,0,0,0,4.9-.4,16.6,16.6,0,0,0,6.3-5.3l.3-.5c.6-.9,1.4-2.2,3.2-2.1h.3v.2l.6,1c.5.8,1,4.1,1.6,4.7a2.8,2.8,0,0,0,1.9.5,1,1,0,0,0,.7-.4,1.7,1.7,0,0,0,.4-1.3,63.7,63.7,0,0,1,.3-13.7c.2-1.3.2-2.7.3-4V84.1a6.4,6.4,0,0,0,0-1.4,3.7,3.7,0,0,0-1.9-2.8,3.9,3.9,0,0,0-3.5,0l-1.1.7-.4.3-1,2.5c-.7,1.9-1.5,3.9-2.3,5.9A24.4,24.4,0,0,1,89.5,99l-.4.3-.3-.4A8.3,8.3,0,0,1,87,93.8c0-.7,0-1.3,0-2-.1-4.9-.2-6.4,1.3-11.2a6.6,6.6,0,0,0-.8-5.8c-.8-1.4-1.5-2-2.2-2.1Z" fill="#e64c4e"/>
        </g>
        <g>
          <path d="M247.3,98.9c-1.7.2-2.6,1.3-3.5,2.3a21.2,21.2,0,0,1-8.5,5.4c-4.7,1.7-8.4-.1-10.1-4.8s-1.2-7.3-.6-11,1.6-7.9,2.5-11.8a3.9,3.9,0,0,1,2.6-2.8,2.7,2.7,0,0,1,3.2.9,8,8,0,0,1,1.4,7.2c-.8,2.9-1.3,5.9-2,8.9a7.1,7.1,0,0,0,.5,4.9c1,.7,1.9.3,2.8-.2a19.6,19.6,0,0,0,8.8-9.4c.6-1.4,1-2.8,1.6-4.3s2.3-3.2,4.6-2.9a2.9,2.9,0,0,1,2.8,2.5,46.2,46.2,0,0,1,.8,7,84,84,0,0,0,1,9.6,35.6,35.6,0,0,1,.2,6.5,2.2,2.2,0,0,1-3.5,1.6,6.2,6.2,0,0,1-3-3.9c-.3-1.3-.4-2.7-.7-4A5.6,5.6,0,0,0,247.3,98.9Z" fill="#e64c4e"/>
          <path d="M253.2,109.2a3,3,0,0,1-1.6-.4,6.7,6.7,0,0,1-3.2-4.2c-.2-.7-.2-1.3-.3-2a19.4,19.4,0,0,0-.3-2,2.8,2.8,0,0,0-.6-.9v-.2a4.7,4.7,0,0,0-2.6,1.8l-.3.3a21.6,21.6,0,0,1-8.7,5.5,8.3,8.3,0,0,1-6.5,0,8.6,8.6,0,0,1-4.3-5.1c-1.5-4-1.1-8.1-.7-11.2s1.1-5.7,1.7-8.4l.8-3.4a4.4,4.4,0,0,1,3-3.2,3.2,3.2,0,0,1,3.8,1.1,8.5,8.5,0,0,1,1.5,7.6c-.5,1.7-.9,3.5-1.2,5.2s-.5,2.4-.8,3.6a6.6,6.6,0,0,0,.4,4.4c.6.4,1.2.2,2.2-.3a19.1,19.1,0,0,0,8.6-9.2,30.6,30.6,0,0,0,1.1-2.9l.5-1.3c.9-2.6,2.6-3.6,5.2-3.2a3.4,3.4,0,0,1,3.2,2.9v.7a41.7,41.7,0,0,1,.7,6.4,62.9,62.9,0,0,0,.7,7.6l.3,1.9a36,36,0,0,1,.2,6.6,2.5,2.5,0,0,1-1.4,2.1A3,3,0,0,1,253.2,109.2Zm-5.7-10.9.2.3.3.4a3.6,3.6,0,0,1,.7,1.3,20.5,20.5,0,0,1,.4,2.1c.1.7.2,1.3.3,1.9a5.6,5.6,0,0,0,2.8,3.6,1.9,1.9,0,0,0,1.9.1,1.4,1.4,0,0,0,.8-1.2,35,35,0,0,0-.2-6.4l-.2-1.9a63.8,63.8,0,0,1-.7-7.7,40.9,40.9,0,0,0-.7-6.2v-.7c-.2-1.2-.9-1.8-2.3-2s-3.3.4-4.1,2.5l-.5,1.3a31.5,31.5,0,0,1-1.1,3,20.1,20.1,0,0,1-9,9.7,3,3,0,0,1-3.4.2h-.2a7.6,7.6,0,0,1-.5-5.3c.3-1.2.5-2.4.8-3.6s.7-3.6,1.2-5.3a7.4,7.4,0,0,0-1.3-6.7,2.1,2.1,0,0,0-2.5-.7,3.4,3.4,0,0,0-2.3,2.5l-.8,3.4c-.6,2.7-1.3,5.6-1.7,8.4s-.8,6.9.6,10.7a7.6,7.6,0,0,0,3.7,4.5,7.2,7.2,0,0,0,5.7-.1,20.6,20.6,0,0,0,8.3-5.2l.3-.3a5.4,5.4,0,0,1,3.5-2.2Z" fill="#e64c4e"/>
        </g>
        <g>
          <path d="M516.5,85.5a2,2,0,0,0-.3,2.4c.8,2.1,1.6,4.2,2.5,6.2a22.4,22.4,0,0,1,1.8,8.1,9.1,9.1,0,0,1-.4,2.9c-.7,2.6-2,3.7-4.5,3.4a22.9,22.9,0,0,1-10.3-3.3,4.7,4.7,0,0,1-2.1-2.5,3.8,3.8,0,0,1,.6-3.7,5.2,5.2,0,0,1,4.3.1,22.8,22.8,0,0,0,3.6,1.2,9.6,9.6,0,0,0,2.5-.2,10.5,10.5,0,0,0-.2-2.2,48,48,0,0,0-4.9-11.1,7.7,7.7,0,0,1-1.4-3.9,5.8,5.8,0,0,1,5.6-6.1,10.7,10.7,0,0,1,6.4,1.6c2.8,1.8,5.4,4,8.1,6a3.6,3.6,0,0,1,1.4,3.3,2.6,2.6,0,0,1-3.5,2.5,14.2,14.2,0,0,1-3.8-1.6C520.1,87.4,518.5,85.9,516.5,85.5Z" fill="#e64c4e"/>
          <path d="M516.4,109h-.9a23.7,23.7,0,0,1-10.4-3.4,5,5,0,0,1-2.3-2.7,4.2,4.2,0,0,1,.7-4.1h.1a5.7,5.7,0,0,1,4.6.1h.4a19.7,19.7,0,0,0,3.1,1,4.4,4.4,0,0,0,1.5-.1h.5v-.5a4.5,4.5,0,0,0-.1-1.3,48,48,0,0,0-4.9-11,8.1,8.1,0,0,1-1.5-4.1,6.3,6.3,0,0,1,6-6.5,11.1,11.1,0,0,1,6.7,1.6c1.9,1.2,3.8,2.7,5.6,4l2.5,1.9a4,4,0,0,1,1.6,3.7,3.2,3.2,0,0,1-1.2,2.4,3.2,3.2,0,0,1-2.8.4,14.7,14.7,0,0,1-4-1.6l-1.4-.9a11.9,11.9,0,0,0-3.6-1.9c-.4.5-.4,1-.1,1.8s1.6,4.2,2.5,6.2a23.2,23.2,0,0,1,1.8,8.3,9.5,9.5,0,0,1-.4,3C519.9,107.8,518.6,109,516.4,109Zm-12.3-9.7a3.3,3.3,0,0,0-.5,3.2,4.2,4.2,0,0,0,1.9,2.2,22.5,22.5,0,0,0,10.1,3.3c2.3.3,3.4-.6,4.1-3a8.6,8.6,0,0,0,.3-2.7,22,22,0,0,0-1.7-8c-.9-2-1.7-4-2.5-6.2a2.4,2.4,0,0,1,.5-2.9l.2-.2h.2a12,12,0,0,1,4.1,2.1l1.4.9a13.8,13.8,0,0,0,3.7,1.5,2.4,2.4,0,0,0,2-.3,2.3,2.3,0,0,0,.9-1.8,3.1,3.1,0,0,0-1.2-2.9L525,82.6c-1.8-1.4-3.6-2.8-5.5-4a10.2,10.2,0,0,0-6.2-1.5,5.4,5.4,0,0,0-5.2,5.6,7.2,7.2,0,0,0,1.3,3.7,48.7,48.7,0,0,1,5,11.2,5.2,5.2,0,0,1,.2,1.5c0,.3,0,.5,0,.8v.4h-1.3a5,5,0,0,1-1.8.1,20.4,20.4,0,0,1-3.3-1H508A4.8,4.8,0,0,0,504.1,99.3Z" fill="#e64c4e"/>
        </g>
        <g>
          <path d="M759,90.7c-1.7,1.3-3.5,2.2-5.6,1.1s-2.6-.3-4-.1a1.8,1.8,0,0,0-1.6,1.8,1.7,1.7,0,0,0,1.6,1.8h3l11-1.3a5.9,5.9,0,0,1,4.7,1.5c2,1.6,1.9,6.2-1.2,6.8s-4.2,1.4-6.3,1.6c-3.7.5-7.4.6-11.1.8a10.4,10.4,0,0,1-5.9-1.3c-3.3-1.9-4.5-5.2-5.2-8.7a44.3,44.3,0,0,1-.4-5.9c-.2-2.7.5-5,2.9-6.4s2.4-2.5,3.3-3.9a11.3,11.3,0,0,1,7.4-5.2,2.9,2.9,0,0,1,3.2.9c1.2,1.5,2.2,3.1,3.3,4.8a4.9,4.9,0,0,1,.7,2c.3,2.8.6,5.7.8,8.5A4.6,4.6,0,0,1,759,90.7Z" fill="#e64c4e"/>
          <path d="M748.8,105a10.4,10.4,0,0,1-5.5-1.4c-3.6-2.1-4.8-5.8-5.5-9.1a24,24,0,0,1-.4-4.1c0-.6,0-1.2-.1-1.9-.2-3.3.8-5.6,3.1-6.9a8.8,8.8,0,0,0,2.9-3.4l.2-.3a11.8,11.8,0,0,1,7.7-5.4,3.3,3.3,0,0,1,3.7,1.1c1,1.3,2,2.8,3.3,4.8a5.4,5.4,0,0,1,.8,2.2c.3,2.7.6,5.6.8,8.5a2.9,2.9,0,0,1-.3,1.3l-.2.4v.2h-.1c-1.8,1.3-3.8,2.4-6.2,1.1a5,5,0,0,0-3.3-.1h-.4a1.2,1.2,0,0,0-1.1,1.3,1.1,1.1,0,0,0,.3.8,1.1,1.1,0,0,0,.8.4h2.9l11-1.3a6.3,6.3,0,0,1,5,1.6,4.9,4.9,0,0,1,1.4,4.7,3.7,3.7,0,0,1-2.9,3.1l-2.7.7a22,22,0,0,1-3.7.9c-3.8.5-7.6.7-11.1.8Zm3.7-31.6h-.9a10.7,10.7,0,0,0-7,5l-.2.3a9.8,9.8,0,0,1-3.3,3.8c-1.9,1.1-2.8,3-2.6,5.8,0,.6.1,1.3.1,1.9a22.8,22.8,0,0,0,.3,3.9c.6,3.1,1.7,6.5,5,8.4a9.8,9.8,0,0,0,5.6,1.2c3.5-.1,7.3-.3,11-.8a21,21,0,0,0,3.6-.9l2.8-.7a2.7,2.7,0,0,0,2.1-2.2,3.7,3.7,0,0,0-1-3.6,5.3,5.3,0,0,0-4.3-1.4l-11,1.3h-3.1a2.1,2.1,0,0,1-1.5-.8,2.3,2.3,0,0,1-.5-1.6,2.3,2.3,0,0,1,2-2.3h.4a5.8,5.8,0,0,1,3.9.2c1.8.9,3.3.3,5-.9V90a2.1,2.1,0,0,0,.2-.8c-.2-2.9-.5-5.8-.8-8.5a4.3,4.3,0,0,0-.6-1.7c-1.2-2-2.2-3.4-3.2-4.7A2.1,2.1,0,0,0,752.5,73.5Z" fill="#e64c4e"/>
        </g>
        <g>
          <path d="M598.9,77.1c2.6.3,3.9,1.9,4.3,4.5a32.9,32.9,0,0,1,.4,3.7c.1,3.4.1,6.8.2,10.2s.2,5.1-1.4,8.7a2.3,2.3,0,0,1-3.2-.7c-.9-1-1.7-4.3-2.4-5.3s-2.3,1.6-3.2,2.6-2.9,3.5-4.5,5.1c-3.6,3.5-8.2,1.8-10.1-2.3a28.6,28.6,0,0,1-1.4-4q-1.3-4.4-2.5-8.8a11.2,11.2,0,0,1-.4-2.6,81,81,0,0,1,.9-13.4,7,7,0,0,1,2.3-4.1,2.9,2.9,0,0,1,3.7-.1,4.8,4.8,0,0,1,1.9,5.2c-.2.9-.4,1.7-.7,2.6a25.8,25.8,0,0,0-.8,11.7c.3,1.9.5,3.9.9,5.8a3.4,3.4,0,0,0,1.4,2c.8.5,1.6-.3,2.1-1,3.2-4.4,6.2-9,8-14.3C595.5,79.3,595.6,79.3,598.9,77.1Z" fill="#e64c4e"/>
          <path d="M584.8,108.3h-1.2a7.6,7.6,0,0,1-5.2-4.4,26,26,0,0,1-1.3-3.7v-.4c-.8-2.9-1.7-5.8-2.5-8.8a11.8,11.8,0,0,1-.5-2.8,81.5,81.5,0,0,1,.9-13.5,7.4,7.4,0,0,1,2.5-4.4,3.4,3.4,0,0,1,4.4-.1,5.4,5.4,0,0,1,2.1,5.7v.3c-.2.8-.4,1.6-.6,2.3a25.1,25.1,0,0,0-.8,11.4l.2,1.8c.2,1.3.3,2.7.6,4a2.8,2.8,0,0,0,1.2,1.6c.2.1.6.3,1.4-.9,3.5-4.9,6.2-9.1,7.9-14.1,1.1-3.2,1.4-3.4,4.3-5.4l.5-.3h.2c2.7.3,4.3,2,4.7,4.9a33.6,33.6,0,0,1,.4,3.8c0,1.4.1,2.9.1,4.3s.1,3.9.1,5.8v.3a16.2,16.2,0,0,1-1.5,8.6v.2h-.2a2.8,2.8,0,0,1-3.8-.8c-.6-.7-1.2-3.7-1.8-4.4l-.5-.7a3.3,3.3,0,0,0-2,1.6l-.6.8-1.5,1.8a43.3,43.3,0,0,1-3,3.4A6.6,6.6,0,0,1,584.8,108.3Zm-5-37.8a2.3,2.3,0,0,0-1.6.6,6.3,6.3,0,0,0-2.1,3.7,80.3,80.3,0,0,0-.9,13.3,10.7,10.7,0,0,0,.4,2.5c.8,3,1.6,5.9,2.5,8.8v.4a25.1,25.1,0,0,0,1.2,3.5,6.5,6.5,0,0,0,4.4,3.8,5.4,5.4,0,0,0,4.9-1.6,42.4,42.4,0,0,0,2.9-3.3l1.5-1.8.6-.7a4.1,4.1,0,0,1,3-2.1h.3l.2.2.7.9c.5.7,1.1,3.6,1.7,4.4a1.8,1.8,0,0,0,2.4.6,14.9,14.9,0,0,0,1.3-7.9v-.3c-.1-2-.1-3.9-.1-5.9s0-2.9-.1-4.3a32.5,32.5,0,0,0-.4-3.6c-.4-2.4-1.5-3.7-3.6-4h-.2c-2.9,2-2.9,2-3.9,4.9-1.8,5.1-4.5,9.5-8.1,14.4-.9,1.3-1.9,1.7-2.8,1.2a3.9,3.9,0,0,1-1.7-2.4c-.3-1.4-.5-2.8-.7-4.1l-.2-1.8a26.2,26.2,0,0,1,.8-11.9c.2-.7.4-1.5.6-2.2v-.3a4.2,4.2,0,0,0-1.7-4.6A2.4,2.4,0,0,0,579.8,70.4Z" fill="#e64c4e"/>
        </g>
        <g>
          <path d="M149,206.5a2.2,2.2,0,0,0,0,2.2,48.6,48.6,0,0,0,2.8,6.4,13,13,0,0,1,1.5,5.4c.2,1.6.3,3.1.3,4.7.1,4.8-2.7,8.6-8.3,8.9-3.6.2-6.5-1-9.8-3.9-.1-1.9-.9-3.9,1.4-5.7l4.3.9c2.9.7,4.7-1.5,4.5-3.9a16.9,16.9,0,0,0-.5-3.7c-1.1-3.6-2.1-7.2-4.3-10.4a19.4,19.4,0,0,1-1.6-2.9c-1.4-3.1-2-6.3.4-9.4s7-1.4,10,.6,6.3,5.6,6.4,10.2c-1.3,1.7-2.8,2.1-4.6,1.2S150,206.1,149,206.5Z" fill="#e64c4e" stroke="#e64c4e" stroke-miterlimit="10"/>
          <path d="M144.7,234.6c-3.5,0-6.3-1.2-9.5-4h-.2v-1.1c-.2-1.7-.4-3.6,1.7-5.2h.4l1.2.3,3.1.7a3,3,0,0,0,2.8-.5,3.4,3.4,0,0,0,1.1-2.8v-.7a12.8,12.8,0,0,0-.4-2.9l-.2-.8c-1-3.2-2-6.6-4-9.4a19.9,19.9,0,0,1-1.7-2.9c-1.2-2.7-2.3-6.3.5-9.9h.1c3.1-2.2,6.8-2,10.5.6s6.5,6.5,6.6,10.6v.2h-.1c-1.5,1.9-3.2,2.3-5.2,1.4l-.6-.4c-.6-.4-.9-.6-1.4-.4a1.8,1.8,0,0,0,.1,1.6l.6,1.5a34.5,34.5,0,0,0,2.2,4.9,13.6,13.6,0,0,1,1.6,5.5c.2,1.8.3,3.3.3,4.7.1,5.5-3.3,9.1-8.8,9.4Zm-8.7-4.7c3.2,2.7,5.9,3.8,9.3,3.7s7.9-3.5,7.8-8.4c0-1.3-.1-2.8-.3-4.6a12.6,12.6,0,0,0-1.4-5.2,35.1,35.1,0,0,1-2.3-5.1l-.6-1.5a2.7,2.7,0,0,1,0-2.7h.2a2.4,2.4,0,0,1,2.5.4l.5.3a2.9,2.9,0,0,0,3.9-.9c-.1-3.7-2.2-6.9-6.2-9.6-2.4-1.6-5.9-3.1-9.4-.7-1.9,2.6-2,5.2-.3,8.9a18.9,18.9,0,0,0,1.6,2.8c2.1,3,3.1,6.4,4.1,9.7l.2.8a13.4,13.4,0,0,1,.4,3.1v.7a4.3,4.3,0,0,1-1.4,3.7,4,4,0,0,1-3.7.7l-3-.7-1-.2c-1.5,1.2-1.3,2.7-1.2,4.2Z" fill="#e64c4e"/>
        </g>
        <g>
          <path d="M412.8,100.8l3.8,1.5c3.2,1.1,5.7-1,5-4.2a14.7,14.7,0,0,0-2.7-6.3c-1.9-2.4-3.7-3.3-5.6-5.7a12,12,0,0,1-2.6-8.5,5.9,5.9,0,0,1,2.8-4.7,5.6,5.6,0,0,1,5-.9l7.9,2.5a3.8,3.8,0,0,1,2.5,2.8,2.9,2.9,0,0,1-1.8,3.5,7.3,7.3,0,0,1-4.3.2l-3.9-.6c-.3,0-.5.2-.8.3a2.1,2.1,0,0,0-.2,2.8,8.4,8.4,0,0,0,1.6,2.1c2.6,2.6,4.6,4.1,6.7,7.1s2.6,6.7,2.3,10.4-1.8,4.3-3.8,5.5a10.3,10.3,0,0,1-9.2.6,6.8,6.8,0,0,1-4.1-4.8C411,103.4,411.2,103,412.8,100.8Z" fill="#e64c4e"/>
          <path d="M419.6,110.2a12.9,12.9,0,0,1-4.4-.8,7.2,7.2,0,0,1-4.4-5.1c-.3-1.1,0-1.7,1.6-3.8l.2-.3h.3l1.3.5,2.5,1a3.5,3.5,0,0,0,3.6-.4,3.3,3.3,0,0,0,.9-3.2,14,14,0,0,0-2.6-6.2c-1.2-1.4-2.3-1.4-3.4-2.9L413,86.3a12.5,12.5,0,0,1-2.7-8.8,6.4,6.4,0,0,1,3-5,6.1,6.1,0,0,1,5.3-.9l7.9,2.5a4.2,4.2,0,0,1,2.8,3.2,3.3,3.3,0,0,1-2.1,4.1,7.8,7.8,0,0,1-4.5.2l-3.8-.6h-.5c-.4.4-.7,1-.1,2.2a8,8,0,0,0,1.5,1.9c2.6,2.6,4.7,4.1,6.7,7.1h.1c1.9,2.9,2.7,6.2,2.4,10.7-.1,2.3-1.5,4.3-4.1,5.9A9.9,9.9,0,0,1,419.6,110.2Zm-6.6-8.9c-1.4,1.9-1.5,2.2-1.3,2.7a6.3,6.3,0,0,0,3.8,4.5,9.8,9.8,0,0,0,8.8-.6c2.3-1.4,3.5-3.1,3.6-5.1.3-4.2-.4-7.4-2.2-10.1h-.1c-2-2.9-4-4.4-6.5-6.9a8.9,8.9,0,0,1-1.7-2.2,2.5,2.5,0,0,1,.3-3.3h.4a1.5,1.5,0,0,1,.8-.2l3.9.6a7,7,0,0,0,4-.2,2.5,2.5,0,0,0,1.5-3,3.3,3.3,0,0,0-2.2-2.5l-7.9-2.5a5.2,5.2,0,0,0-4.6.8,5.4,5.4,0,0,0-2.6,4.3,11.5,11.5,0,0,0,2.5,8.2l2.2,2.9c1.1,1.4,2.2,1.4,3.4,2.9a14.8,14.8,0,0,1,2.8,6.5,4.2,4.2,0,0,1-1.2,4.1,4.5,4.5,0,0,1-4.5.6l-2.5-1Z" fill="#e64c4e"/>
        </g>
        <g>
          <path d="M332,88.6c-1.5-.2-1.8.6-2.3,1.3a77.7,77.7,0,0,0-7.1,14.5,7.2,7.2,0,0,1-3.8,4.4c-1.7.1-2.8-1-4-1.8-2.2-3.2-2-6.4,0-9.5a9.8,9.8,0,0,0,1.2-2.7,78.8,78.8,0,0,1,4.9-12.3c2-1.3,4.1-2.5,5.5-4.8s6.8-3,9.3-.5a9.8,9.8,0,0,1,3,5.7c.4,2.8.9,5.7,1.2,8.5a17.5,17.5,0,0,0,1.6,6.3c.9,1.7.8,3.6.7,5.4s-1.9,2.9-3.2,2.5-3.5-1.3-4.3-3.2a18.2,18.2,0,0,1-1.5-4.8C333.3,94.7,332.6,91.8,332,88.6Z" fill="#e64c4e"/>
          <path d="M318.6,109.3a5.7,5.7,0,0,1-3.5-1.5l-.5-.4h-.1c-2.2-3.3-2.2-6.6,0-10.1a9.3,9.3,0,0,0,1.2-2.6,67.1,67.1,0,0,1,4.2-10.8l.8-1.7.6-.4a14.5,14.5,0,0,0,4.9-4.3,5.8,5.8,0,0,1,4.3-2.5,7.3,7.3,0,0,1,5.9,1.9,10.3,10.3,0,0,1,3.2,6l.5,3.4c.3,1.7.5,3.4.7,5.1h0a16.6,16.6,0,0,0,1.5,6,10.3,10.3,0,0,1,.8,5.3v.4a3.3,3.3,0,0,1-1.5,2.5,2.8,2.8,0,0,1-2.4.5c-1.8-.6-3.8-1.4-4.6-3.5l-.4-.9a14.1,14.1,0,0,1-1.1-4c-.2-2.1-.6-4.1-1-6.3l-.4-2.4c-.7,0-.9.4-1.2.9v.2a77.3,77.3,0,0,0-7,14.4,7.7,7.7,0,0,1-4.1,4.7h-.5Zm-3.3-2.7.5.3a4.6,4.6,0,0,0,3,1.3,6.7,6.7,0,0,0,3.5-4,79.5,79.5,0,0,1,7.1-14.6v-.2a2.3,2.3,0,0,1,2.7-1.3h.4v.4l.5,2.8c.4,2.2.8,4.2,1,6.4a13.1,13.1,0,0,0,1.1,3.7l.4,1c.7,1.8,2.3,2.4,3.9,2.9a1.8,1.8,0,0,0,1.5-.4,2.3,2.3,0,0,0,1-1.6v-.4a9.3,9.3,0,0,0-.7-4.7,17.7,17.7,0,0,1-1.6-6.4h0c-.2-1.7-.5-3.4-.7-5.1l-.5-3.4a9.2,9.2,0,0,0-2.9-5.4,6.2,6.2,0,0,0-5-1.6,4.7,4.7,0,0,0-3.5,2,15.5,15.5,0,0,1-5.3,4.7l-.3.2-.6,1.4a66.4,66.4,0,0,0-4.2,10.6,10.3,10.3,0,0,1-1.3,2.9C313.4,100.8,313.3,103.7,315.3,106.6Z" fill="#e64c4e"/>
        </g>
        <g>
          <path d="M515.9,209.1c-.7.8-1.5,1.4-2.6,1.1s-2.9-.6-4.1-1.7-2.3-2-3.9-2-.2,1.3.1,1.7c1.5,2.6,3.2,5.1,4.7,7.8s2.4,4.5,3.5,6.7a12.5,12.5,0,0,1,.8,6.9,3.7,3.7,0,0,1-2.7,3.3,16,16,0,0,1-10.4.2c-2.9-1-4.5-3.5-5.7-6.1-.4-.7.1-1.9.1-2.7,1.6-.8,2.9-.9,4.1-.2a7.9,7.9,0,0,0,4.3,1.1c1.4-.1,2.4-1.1,1.9-2.3a27.4,27.4,0,0,0-2-5.1,46.1,46.1,0,0,0-4.3-6.2c-3.5-4.2-5.5-9.2-7.1-14.4a3.1,3.1,0,0,1,0-.6,4.6,4.6,0,0,1,2.9-3.1,5.6,5.6,0,0,1,4.4-.1,43.5,43.5,0,0,1,15.1,9.9C516.5,204.9,516.4,207,515.9,209.1Z" fill="#e64c4e" stroke="#e64c4e" stroke-miterlimit="10"/>
          <path d="M505.8,234.5a14.5,14.5,0,0,1-4.8-.8c-3.1-1.1-4.7-3.7-6-6.3a3.5,3.5,0,0,1,0-2.2,6.7,6.7,0,0,0,.1-.7v-.3h.3c1.8-.9,3.3-1,4.6-.2a7.3,7.3,0,0,0,4.1,1,1.7,1.7,0,0,0,1.4-.7,1,1,0,0,0,.1-.9l-.3-.8a22.4,22.4,0,0,0-1.7-4.3,45.6,45.6,0,0,0-4.3-6.1c-3.8-4.6-5.8-9.9-7.2-14.5a1.7,1.7,0,0,1-.1-.5v-.3h0a5.1,5.1,0,0,1,3.2-3.5,6.1,6.1,0,0,1,4.9-.1,44.1,44.1,0,0,1,15.3,10c1.9,1.9,1.6,4.4,1.2,6.2h-.1a3,3,0,0,1-3.2,1.2l-.8-.2a7.5,7.5,0,0,1-3.5-1.6c-1.1-1-2.1-1.8-3.4-1.8s-.1.2.2.7l.2.3,2.1,3.4,2.7,4.4c1.2,2.1,2.3,4.3,3.3,6.5l.2.3a13,13,0,0,1,.8,7.2,4.3,4.3,0,0,1-3.1,3.8A19.2,19.2,0,0,1,505.8,234.5Zm-9.8-9.7v.6a2.9,2.9,0,0,0-.1,1.5c1.4,2.8,2.8,4.9,5.4,5.8a15.4,15.4,0,0,0,10.1-.2,3.2,3.2,0,0,0,2.4-2.9c.3-2.6.2-4.7-.7-6.7l-.2-.3c-1-2.1-2.1-4.3-3.3-6.4l-2.6-4.3-2.1-3.4v-.2a1.4,1.4,0,0,1,.2-2.2h.3c1.8-.1,3.1,1,4.3,2.1a6.6,6.6,0,0,0,3.1,1.4l.9.2c.8.2,1.3-.1,2-.8.5-2.4.2-3.9-.9-5a43.1,43.1,0,0,0-14.9-9.7,5.1,5.1,0,0,0-4,.1,4.1,4.1,0,0,0-2.6,2.7v.2a1.2,1.2,0,0,0,0,.2c1.4,4.5,3.3,9.7,7,14.2a46.8,46.8,0,0,1,4.4,6.2,23.2,23.2,0,0,1,1.8,4.5l.2.7a2.1,2.1,0,0,1-.2,1.9,2.8,2.8,0,0,1-2.2,1.1,8.5,8.5,0,0,1-4.6-1.2A3.5,3.5,0,0,0,496,224.8Z" fill="#e64c4e"/>
        </g>
        <g>
          <path d="M640,105.6c-2.1,1.6-3.9,1.1-5.6-.5a10.3,10.3,0,0,1-2.9-6.1,52.4,52.4,0,0,0-2.8-10.5c-3.2,2-4.8,5.2-6.7,8.1s-4,5.7-6,8.6l-1,.4c-1.9.4-3.8.5-5-1.5s-1.8-5.2-.2-7.6a26.5,26.5,0,0,0,3.5-8.9,7.3,7.3,0,0,0,.1-4.2,4.2,4.2,0,0,1-.3-1.6,9.5,9.5,0,0,1,.4-3.1c.5-1.3,1.8-1.4,3.3-1.4l4.5,4a26.1,26.1,0,0,0,2.1-1.6c.6-.6,1.1-1.4,1.7-1.9a4.8,4.8,0,0,1,6.8.6,15.1,15.1,0,0,1,2,3.1,31.9,31.9,0,0,1,3.3,9.6,22.4,22.4,0,0,0,2.3,7.7A7.8,7.8,0,0,1,640,105.6Z" fill="#e64c4e"/>
          <path d="M637.4,107.1a4.9,4.9,0,0,1-3.4-1.7,10.8,10.8,0,0,1-3-6.5,50.6,50.6,0,0,0-2.5-9.8,19.1,19.1,0,0,0-4.9,5.9l-1.1,1.7-4.2,6-1.8,2.6h-.2l-.3.2-.8.3c-1.9.4-4.2.6-5.5-1.8s-1.7-5.9-.2-8.2a25.6,25.6,0,0,0,3.4-8.7,6.8,6.8,0,0,0,.1-3.9,4.8,4.8,0,0,1-.3-1.8V81a7.7,7.7,0,0,1,.4-2.7c.7-1.6,2.4-1.7,3.8-1.8h.2l4.4,3.9.4-.3,1.3-1,.7-.8a6.9,6.9,0,0,1,1.1-1.1,5.3,5.3,0,0,1,7.5.7,15.4,15.4,0,0,1,2.1,3.2,32.5,32.5,0,0,1,3.3,9.7,21.9,21.9,0,0,0,2.2,7.5,8.4,8.4,0,0,1,.4,7.6v.2h-.1A4.8,4.8,0,0,1,637.4,107.1ZM629,87.6l.2.6A52.9,52.9,0,0,1,632,98.8a9.7,9.7,0,0,0,2.7,5.8c1.6,1.6,3.1,1.8,4.8.6a7.1,7.1,0,0,0-.4-6.4,22.9,22.9,0,0,1-2.3-7.9,31.3,31.3,0,0,0-3.2-9.4,14.3,14.3,0,0,0-1.9-2.9,4.3,4.3,0,0,0-6.1-.6l-.9,1-.8.9-1.4,1.1-.7.5-.3.3-4.7-4.2c-1.3.1-2.3.2-2.7,1.1a6.8,6.8,0,0,0-.4,2.3v.6a3.6,3.6,0,0,0,.2,1.3,7.9,7.9,0,0,1,0,4.5,26.7,26.7,0,0,1-3.5,9.1c-1.6,2.5-.7,5.2.3,7s2.1,1.8,4.4,1.3l.5-.2h.2l1.8-2.5,4.2-6,1.1-1.7c1.5-2.4,3.1-4.9,5.8-6.6Z" fill="#e64c4e"/>
        </g>
        <g>
          <path d="M714.9,91.1a21.3,21.3,0,0,0,5.2-4.7c.5-.7.7-3.8,1.2-4.5,4.9-6.9,6-1.9,6.8-.7,2,3.1,1.7,10,1.9,13.5s-.1,8.3-.3,12.4a3,3,0,0,1-.4,1,2.6,2.6,0,0,1-3.3,0,3.8,3.8,0,0,1-1.9-2.4c-.4-1.8-.7-3.5-1.1-5.3s-.4-1.3-.5-1.8-2.2.8-2.6,1.6c-1.4,2.8-3.8,4-6.3,5.2a4.2,4.2,0,0,1-5.7-2,15.3,15.3,0,0,1-1.8-7.2c-.1-3.4,0-6.8,0-10.2s0-6.4,0-10l1.3-1.1a2.8,2.8,0,0,1,3.8.1c1.1.8,2,1.9,3.1,2.9s0,4,0,5.9-.3,3.6-.3,5.4A6.4,6.4,0,0,0,714.9,91.1Z" fill="#e64c4e"/>
          <path d="M727.8,109.2a3.7,3.7,0,0,1-2-.7,4.4,4.4,0,0,1-2.1-2.8l-.3-1.5-.8-3.8a12.8,12.8,0,0,0-.4-1.2v-.2c-.9,0-1.3.6-1.7,1.4-1.5,2.9-4,4.2-6.5,5.4s-4.9.3-6.3-2.2a15.8,15.8,0,0,1-1.9-7.5c-.1-2.3,0-4.6,0-6.8s0-2.3,0-3.4,0-4.4,0-6.7V75.7l.4-.4,1.1-1a3.3,3.3,0,0,1,4.4.1l2.2,2,.9.9.2.2v.3c0,.6,0,1.2,0,1.8s0,2.8,0,4.1-.1,1.6-.1,2.3-.1,2-.1,3a2.6,2.6,0,0,0,.4,1v.2c1.1-.9,3.2-2,3.9-3.1l.7-1.1.5-1c.2-.4.4-3,.7-3.5s2.7-3.1,4.3-3.1,2.2.6,3.4,2.4,1.8,10.4,2,13.8a86.7,86.7,0,0,1-.1,9c-.1,1.1-.1,2.3-.1,3.4a2,2,0,0,1-.3.9v.3h-.2A3,3,0,0,1,727.8,109.2ZM722,97.9h.9v.3l.2.5c.1.4.3.9.4,1.4l.8,3.8.3,1.5a3.2,3.2,0,0,0,1.6,2.1,2.1,2.1,0,0,0,2.6.1v-.2l.2-.4c0-1.1.1-2.3.1-3.4a85.9,85.9,0,0,0,.1-8.9c-.2-3.4.1-10.2-1.9-13.2s-1.2-1.9-2.5-1.9-2.4,1.2-3.4,2.7-.4,2.8-.6,3.3a8.1,8.1,0,0,1-.6,1.2l-.7,1.1c-.8,1.3-3.1,2.7-4.7,3.8l-.5.4-.3-.6-.3-.7a3.3,3.3,0,0,1-.5-1.5c0-1,.1-2.1.1-3.1s.1-1.5.1-2.3,0-2.7,0-4.1,0-1,0-1.6l-.8-.8-2.1-1.9a2.3,2.3,0,0,0-3.1-.1l-1,.9h-.1v3c0,2.3,0,4.5,0,6.7s0,2.3,0,3.4-.1,4.5,0,6.8a14.6,14.6,0,0,0,1.7,6.9,3.7,3.7,0,0,0,5,1.8c2.3-1.1,4.7-2.3,6-4.9A2.9,2.9,0,0,1,722,97.9Z" fill="#e64c4e"/>
        </g>
        <g>
          <path d="M748.7,228c-1.5.8-2.5,4.2-3.4,4.8a9,9,0,0,1-4.6,1.1,8.4,8.4,0,0,1-7.1-3.1,29.9,29.9,0,0,1-6.8-19.7,7.2,7.2,0,0,1,.4-2.3c.5-1.2,1.1-2.4,2.5-2.6a4.1,4.1,0,0,1,4.2,1.7,7.5,7.5,0,0,1,1.4,5.4,28.8,28.8,0,0,0-.1,5.7,7.9,7.9,0,0,0,.8,2.7c1.3,3,3.4,3.5,6.1,1.6a15.3,15.3,0,0,0,2.7-2.6c1.6-1.9,3.1-8.5,4.7-10.4a3.1,3.1,0,0,1,4.3-.3,6,6,0,0,1,2.3,4,125,125,0,0,1,.6,17.1,5.1,5.1,0,0,1-.3,1.4,2.5,2.5,0,0,1-2,1.8,2.5,2.5,0,0,1-2.5-1.1C750.7,231.6,749.8,229.9,748.7,228Z" fill="#e64c4e" stroke="#e64c4e" stroke-miterlimit="10"/>
          <path d="M753.8,234.7a2.9,2.9,0,0,1-2.5-1.3l-2.1-3.5-.7-1.3-.9.5c-.8.4-1.4,3.7-2.1,4.1a9.5,9.5,0,0,1-4.8,1.2,8.9,8.9,0,0,1-7.5-3.3,30.2,30.2,0,0,1-6.9-20,7.6,7.6,0,0,1,.4-2.5c.4-.9,1-2.7,2.9-2.9s3.7.4,4.6,1.9a8.1,8.1,0,0,1,1.5,5.7,28.4,28.4,0,0,0-.1,5.6,7.2,7.2,0,0,0,.7,2.5,3.8,3.8,0,0,0,2.2,2.4,3.8,3.8,0,0,0,3.1-1,14.7,14.7,0,0,0,2.7-2.5c1-1.2,1.9-6.9,2.8-8.1l1.8-2.3a3.3,3.3,0,0,1,2.3-1.2,3.6,3.6,0,0,1,2.7.8,6.5,6.5,0,0,1,2.4,4.4v1.3a117.1,117.1,0,0,1,.5,15.9,5.6,5.6,0,0,1-.3,1.5,3,3,0,0,1-2.4,2.1Zm-4.9-7.4.2.4,1,1.7,2,3.4a2,2,0,0,0,2,.8,2,2,0,0,0,1.6-1.4,4.6,4.6,0,0,0,.3-1.2,116.5,116.5,0,0,0-.5-15.8V214a5.5,5.5,0,0,0-2.1-3.7,2.6,2.6,0,0,0-2-.6,2.3,2.3,0,0,0-1.6.8l-1.8,2.3c-.9,1.2-1.9,6.9-2.9,8.1a15.8,15.8,0,0,1-2.8,2.7,4.7,4.7,0,0,1-4,1.1,4.7,4.7,0,0,1-2.8-2.9,8.2,8.2,0,0,1-.8-2.9,29.2,29.2,0,0,1,.1-5.8,6.9,6.9,0,0,0-1.3-5c-.7-1.1-1.9-1.6-3.7-1.4s-1.6.9-2.1,2.2a6.8,6.8,0,0,0-.3,2.2,29.2,29.2,0,0,0,6.7,19.4,8,8,0,0,0,6.7,2.9,8.4,8.4,0,0,0,4.3-1c.6-.4,1.3-3.7,2.1-4.1l1.3-.7Z" fill="#e64c4e"/>
        </g>
        <g>
          <path d="M388.8,79.2a16.6,16.6,0,0,0,.6,2.1c1,2,1.9,3.9,3,5.8s2.9,3.2,4.3,5.6a15.9,15.9,0,0,1,2.3,7.8,19.8,19.8,0,0,1-.4,3.9,4,4,0,0,1-3.6,3.4,4.9,4.9,0,0,1-4.7-1.6c-3-3.4-2.9-5.5.3-9l.7-.9a4,4,0,0,0-.9-3.4c-2-3.2-4.1-4.8-6.1-8.1a20.8,20.8,0,0,1-2.1-4.3,15.2,15.2,0,0,1-.8-4.7c0-2.6,1.5-3.9,4-4.3h1.3c3.9.5,7.8,1.2,11.3,3.1a9.3,9.3,0,0,1,2.4,1.8c1.6,1.8.8,4.1-1.6,4.6a6.9,6.9,0,0,1-3.4-.1Z" fill="#e64c4e"/>
          <path d="M393.9,108.3a5.2,5.2,0,0,1-4.1-1.8c-3.1-3.6-3-6,.3-9.6l.5-.6v-.2a3.6,3.6,0,0,0-.9-2.9l-.8-1.2c-1.8-2.7-3.6-4.1-5.3-6.9a21.6,21.6,0,0,1-2.1-4.4,15.7,15.7,0,0,1-.8-4.8c0-2.7,1.5-4.4,4.4-4.7h1.4c4.2.6,8,1.2,11.4,3.1a9.7,9.7,0,0,1,2.5,1.9,3.2,3.2,0,0,1,.8,3.2,3.4,3.4,0,0,1-2.6,2.2,7.4,7.4,0,0,1-3.7-.1L391,80.3l-1.6-.4v.2a5.6,5.6,0,0,0,.3,1l.5,1c.8,1.6,1.6,3.3,2.5,4.8l2.2,3.6c.7,1.1,1.4.8,2.1,2a16.2,16.2,0,0,1,2.4,8.1,20.2,20.2,0,0,1-.4,4,4.5,4.5,0,0,1-4,3.7ZM386.4,72h-.9c-2.4.3-3.6,1.6-3.6,3.8a14.8,14.8,0,0,0,.8,4.5,20.8,20.8,0,0,0,2,4.2c1.7,2.8,3.5,4.1,5.3,6.9l.8,1.2a4.5,4.5,0,0,1,1,3.7v.2l-.2.2-.6.7c-3,3.3-3.1,5.2-.3,8.4a4.5,4.5,0,0,0,4.3,1.4,3.6,3.6,0,0,0,3.2-3,19.4,19.4,0,0,0,.4-3.8,15.3,15.3,0,0,0-2.3-7.6c-.7-1.2-1.4-.8-2.1-2L392,87.4c-.9-1.6-1.7-3.3-2.5-4.9l-.5-1a6.2,6.2,0,0,1-.4-1.2l-.3-1-.2-.8,3.1.8,4.3,1.1a6.5,6.5,0,0,0,3.2.1,2.5,2.5,0,0,0,2-1.6,2.3,2.3,0,0,0-.7-2.3,8.8,8.8,0,0,0-2.3-1.7c-3.3-1.8-7-2.5-11.1-3Z" fill="#e64c4e"/>
        </g>
        <g>
          <path d="M274.2,95.4c0-2.5-1.4-4.6-2.4-6.9-1.7-4-3.1-7-5.1-10.8s-.6-5.2,1-7.5a2.5,2.5,0,0,1,2.7-1c2.9.6,9.9,1.9,12.4,4.7.7.5,1.1,2.7-.2,3.1-3,.8-6.3,2.5-5.1,6.5s1.8,4.3,3.1,6.9a26.7,26.7,0,0,1,2.7,8.6,13.3,13.3,0,0,1-.2,4c-.7,3.6-2.7,5.3-6.1,5.5a9.2,9.2,0,0,1-9.2-6.4,3.7,3.7,0,0,1,1.5-4.4,11,11,0,0,1,2.7-1.3C272.6,96.1,273.6,96.5,274.2,95.4Z" fill="#e64c4e"/>
          <path d="M276.3,109a9.7,9.7,0,0,1-9.1-6.8,4.2,4.2,0,0,1,1.7-5,11.4,11.4,0,0,1,2.8-1.4h.9c.5,0,.9-.1,1.1-.4a12.4,12.4,0,0,0-1.6-4.8l-.8-1.7c-1.6-3.8-3-6.7-5.1-10.8s-.5-5.9,1-8.1a3,3,0,0,1,3.2-1.2h.7c3.3.7,9.5,2,12,4.7a2.9,2.9,0,0,1,.8,2.6,1.7,1.7,0,0,1-1.2,1.4c-2.3.6-3.9,1.5-4.6,2.8a3.8,3.8,0,0,0-.2,3.1l.6,1.4c.8,1.9,1.6,3.6,2.5,5.4a27,27,0,0,1,2.7,8.8,13.8,13.8,0,0,1-.2,4.1c-.7,3.7-2.9,5.7-6.6,5.9Zm-6.6-39.4a1.9,1.9,0,0,0-1.6.8c-1.3,2-2.4,4.2-.9,7s3.5,7.1,5.2,10.9l.8,1.6a12.9,12.9,0,0,1,1.7,5.5v.2h-.1a2.3,2.3,0,0,1-2,1H272a10.4,10.4,0,0,0-2.6,1.3,3.2,3.2,0,0,0-1.3,3.8,8.6,8.6,0,0,0,8.7,6c3.3-.2,5-1.8,5.7-5.1a12.8,12.8,0,0,0,.1-3.8,26,26,0,0,0-2.6-8.5c-.9-1.8-1.7-3.5-2.5-5.4l-.6-1.5a5,5,0,0,1,.3-4c.8-1.5,2.6-2.6,5.2-3.3.1,0,.4-.1.4-.6a2,2,0,0,0-.4-1.5h-.1c-2.2-2.4-8.5-3.8-11.5-4.4h-1.2Z" fill="#e64c4e"/>
        </g>
        <g>
          <path d="M139.3,74.1a4.7,4.7,0,0,1,3.3,4.7c.1,1.9-1,3.1-2.5,4.2a9.1,9.1,0,0,1-6.6,2,11.8,11.8,0,0,0-5.7.5l-1,4.3c-.3,1.3-.7,2.6-1,3.9-.8,4.1-1.6,8.3-2.4,12.4a10.8,10.8,0,0,1-.3,1.5,2.8,2.8,0,0,1-2.8,1.7,4.6,4.6,0,0,1-3.5-2.1,21.5,21.5,0,0,1,.2-9.3c1.2-5.4,2.1-10.9,3.2-16.4.2-.8.3-1.7.5-2.5s1.7-3.3,3.9-3.3a67.9,67.9,0,0,1,7.1-.1C134.4,75.9,137,75.9,139.3,74.1Z" fill="#e64c4e"/>
          <path d="M120.6,109.9h-.3a5.1,5.1,0,0,1-3.9-2.3v-.2a21.9,21.9,0,0,1,.2-9.6c.8-3.8,1.5-7.7,2.2-11.4l.9-4.9V81c.1-.7.3-1.4.4-2,.6-2.4,2.1-3.7,4.4-3.7h2a41.9,41.9,0,0,1,5.1,0c2.6.2,5.1.3,7.3-1.4l.2-.2h.3a5.2,5.2,0,0,1,3.7,5.2c.1,2.3-1.4,3.6-2.7,4.6a9.5,9.5,0,0,1-7,2.1,11.4,11.4,0,0,0-5.2.4l-.3,1.1-.7,3-.4,1.4c-.2.8-.4,1.7-.6,2.5l-1.6,8.2-.9,4.5a9.4,9.4,0,0,1-.3,1.3A3.3,3.3,0,0,1,120.6,109.9Zm-3.2-2.8a4,4,0,0,0,3,1.8,2.2,2.2,0,0,0,2.3-1.4,8.4,8.4,0,0,0,.3-1.2l.9-4.5,1.6-8.2c.2-.9.4-1.7.6-2.5l.4-1.4.7-3,.4-1.7h.3a12.4,12.4,0,0,1,5.9-.5,8.5,8.5,0,0,0,6.2-1.9c1.7-1.2,2.3-2.3,2.3-3.7a4.1,4.1,0,0,0-2.7-4.1c-2.4,1.7-5.1,1.7-7.8,1.5a41.5,41.5,0,0,0-5,0h-2c-1.8,0-2.9,1-3.4,2.9s-.3,1.3-.4,2v.5l-.9,4.9c-.7,3.8-1.4,7.6-2.2,11.4A20.9,20.9,0,0,0,117.4,107.1Z" fill="#e64c4e"/>
        </g>
        <g>
          <path d="M584.7,208.2a27.1,27.1,0,0,0,8-4c2.1-1.5,4.7-1.1,6.8.3,6.7,4.5,9.3,19.3,9.7,27a4.1,4.1,0,0,1-.2,1.1,1.9,1.9,0,0,1-2.2,1.1,6.5,6.5,0,0,1-3.4-3.5c-1.1-2.5-2.5-13-5-14.9-.7.7-3.5.2-3.8.9s.6,12.4-.1,14.1a4.1,4.1,0,0,1-6.9,1.1c-2-2.5-3.4-13.2-3-16.7A52,52,0,0,0,584.7,208.2Z" fill="#e64c4e" stroke="#e64c4e" stroke-miterlimit="10"/>
          <path d="M607.3,234.5h-.7a7.1,7.1,0,0,1-3.7-3.8c-1.2-2.6-2.9-13.6-5-15.4l-.3.3c-.4.4-2.3.7-2.5,1.1s-.4,11-.8,12,1,1.4.7,2.1a4.7,4.7,0,0,1-3.7,2.8,4.5,4.5,0,0,1-4.1-1.6c-1.7-2.1-3.6-13.1-3.1-17.1a27.2,27.2,0,0,0,.1-4.4c0-.7,0-1.4,0-2.2v-.4h.4a26.4,26.4,0,0,0,7.9-3.9c2.1-1.5,4.9-1.4,7.5.3,6.2,4.2,9.5,18.6,10,27.5a3.2,3.2,0,0,1-.1,1v.3a2.1,2.1,0,0,1-1.2,1.3Zm-9.5-20.9.9,1.3c2.7,2.1,4.1,12.6,5.2,15.1a6,6,0,0,0,3.1,3.2,1.2,1.2,0,0,0,.9-.1,1,1,0,0,0,.5-.5v-.3a2.3,2.3,0,0,0,.1-.6c-.5-8.5-3.6-22.6-9.5-26.6-2.2-1.5-4.5-1.6-6.1-.3a27.2,27.2,0,0,1-7.8,3.9c0,.6,0,1.2,0,1.7a28,28,0,0,1-.1,4.6c-.4,2.8.5,13.3,2.9,16.2a3.3,3.3,0,0,0,3.1,1.1,3.6,3.6,0,0,0,2.8-2.1l.8-2c.4-1-.7-10.1-.2-11.1a15.2,15.2,0,0,1,2.3-2.5l.6-.6Z" fill="#e64c4e"/>
        </g>
        <g>
          <path d="M897.6,215.8c-.6,2.2-.6,9.7.4,11.6a6.7,6.7,0,0,1,.5,4.9,2.3,2.3,0,0,1-3.2,1.4,9.6,9.6,0,0,1-3.7-4c-1.3-2.7-2.8-10.9-4.3-13.5s-.6-5.6.5-8.2a2.6,2.6,0,0,1,1.6-1.2,15,15,0,0,1,3.5-.5c1.3-.1,2.7.3,4,.1,2.9-.4,5.3.7,7.8,2.3l1.3,4.5C903.7,216.4,900.3,214.5,897.6,215.8Z" fill="#e64c4e"/>
          <path d="M896.2,234.6a2.5,2.5,0,0,1-1.3-.4,10.1,10.1,0,0,1-3.9-4.2c-1.3-2.7-2.8-10.9-4.3-13.5s-.7-5.8.4-8.7a3,3,0,0,1,1.9-1.5,15.4,15.4,0,0,1,3.6-.6h1.8a9.8,9.8,0,0,0,2.2,0c3.3-.4,5.9.9,8.2,2.4h.2l1.4,4.9v.2c-1.5,2.2-3.5,2.3-5.4,2.4a8.5,8.5,0,0,0-2.9.4c-.5,2.2-.4,9.3.4,11a7.3,7.3,0,0,1,.5,5.3,2.9,2.9,0,0,1-1.7,1.9ZM893,206.8h-.3a14.6,14.6,0,0,0-3.3.5,2.1,2.1,0,0,0-1.2.9c-1.1,2.6-1.9,5.2-.5,7.8s2.9,10.8,4.3,13.6a9.1,9.1,0,0,0,3.5,3.8,1.5,1.5,0,0,0,1.4.1,1.8,1.8,0,0,0,1.1-1.2,6.2,6.2,0,0,0-.4-4.6c-1-1.9-1.1-9.4-.5-12v-.2h.2a8.7,8.7,0,0,1,3.6-.6c1.7-.1,3.2-.1,4.4-1.7l-1.2-4c-2.1-1.3-4.4-2.5-7.3-2.1a10.7,10.7,0,0,1-2.4,0Z" fill="#e64c4e"/>
        </g>
        <g>
          <path d="M487,85.8c-.1-2.5-.3-4.1-.2-5.8a3.6,3.6,0,0,1,2.9-3.7,4.1,4.1,0,0,1,4.7,2.1,6.5,6.5,0,0,1,.9,4.4c-.4,2.7-.9,5.3-1.5,7.9-1.1,4.8-2.8,9.4-3.3,14.3a9.9,9.9,0,0,1-.3,1.5,3.3,3.3,0,0,1-5.6,1.7,2.6,2.6,0,0,1-.8-1.7,32.7,32.7,0,0,1,.4-5c.8-4.8,1.7-9.6,2.6-14.4C487,86.3,487.1,85.6,487,85.8Z" fill="#e64c4e"/>
          <path d="M487,109.6a4.1,4.1,0,0,1-2.7-1.1,3.1,3.1,0,0,1-1-2.1,33.3,33.3,0,0,1,.4-5.1c.5-3.2,1.1-6.4,1.7-9.6l.9-4.8c.1-.5.1-.9.2-1.1s-.1-1.5-.1-2.2a29.8,29.8,0,0,1-.1-3.6,4.2,4.2,0,0,1,3.3-4.1,4.6,4.6,0,0,1,5.3,2.3,7.1,7.1,0,0,1,1,4.7c-.4,2.6-.9,5.3-1.5,8s-.8,3-1.2,4.5A63.1,63.1,0,0,0,491,105a10.3,10.3,0,0,1-.3,1.6,3.9,3.9,0,0,1-2.6,2.9Zm.5-24a5.7,5.7,0,0,1-.2,1.4l-.9,4.8c-.6,3.2-1.2,6.4-1.7,9.6a32.2,32.2,0,0,0-.4,4.9,2.1,2.1,0,0,0,.6,1.3,2.8,2.8,0,0,0,4.7-1.4,9.2,9.2,0,0,0,.3-1.4,63.8,63.8,0,0,1,2.1-9.9c.4-1.5.8-3,1.2-4.5s1.1-5.3,1.5-7.9a6,6,0,0,0-.9-4,3.6,3.6,0,0,0-4.1-1.9,3.1,3.1,0,0,0-2.5,3.2,28.7,28.7,0,0,0,.1,3.5C487.5,84.2,487.5,84.9,487.6,85.6Z" fill="#e64c4e"/>
        </g>
        <g>
          <path d="M297.5,106.9a20.3,20.3,0,0,1-1-3.7c-.6-6.7-.1-13.5,0-20.3a10.2,10.2,0,0,1,2-1.5c2.4-1,4.4-.3,5.5,1.9a8.3,8.3,0,0,1,.9,3.4,22.3,22.3,0,0,1-.5,4c-.5,3-.9,6-1.4,9a46.2,46.2,0,0,1-1.5,5.8C300.9,107,300.2,107.2,297.5,106.9Z" fill="#e64c4e"/>
          <path d="M299.2,107.6H297v-.3l-.4-1.1a11.6,11.6,0,0,1-.7-2.7,126.4,126.4,0,0,1-.2-15.2c.1-1.7.1-3.4.1-5.2v-.3l.2-.2.6-.5a5.6,5.6,0,0,1,1.5-1.1c2.7-1.1,5-.3,6.2,2.2a8.8,8.8,0,0,1,.9,3.6,14.8,14.8,0,0,1-.3,3.1l-.2,1-.3,2.3c-.3,2.2-.7,4.5-1.1,6.8a46.2,46.2,0,0,1-1.6,5.9A2.4,2.4,0,0,1,299.2,107.6Zm-1.3-1.1c2.5.2,2.7,0,3-1.1a45.3,45.3,0,0,0,1.5-5.8c.4-2.2.8-4.5,1.1-6.7l.3-2.3.2-1.1a13.8,13.8,0,0,0,.3-2.8,7.8,7.8,0,0,0-.8-3.1c-1-2-2.7-2.6-4.9-1.7a4.8,4.8,0,0,0-1.2.9l-.5.4c0,1.7-.1,3.3-.1,5a123.7,123.7,0,0,0,.2,15.1,10.8,10.8,0,0,0,.6,2.5Z" fill="#e64c4e"/>
        </g>
        <g>
          <path d="M398.1,208c1.6-.3,2.6-.2,3.5.6a5.5,5.5,0,0,1,1.8,3.1,25.7,25.7,0,0,1-.8,13.8c-.4,1-.7,2.1-1,3.1a7.2,7.2,0,0,1-3.1,4,1.7,1.7,0,0,1-2.4-.7c-.9-1.5-.7-3-.5-4.6a55.4,55.4,0,0,1,.6-6c.7-3.8.7-7.7,1.2-11.6A8.2,8.2,0,0,1,398.1,208Z" fill="#e64c4e" stroke="#e64c4e" stroke-miterlimit="10"/>
          <path d="M397.7,233.5h-.4a2.4,2.4,0,0,1-1.5-1.1,7.1,7.1,0,0,1-.6-4.5v-1.7a40,40,0,0,1,.5-4.7,60.9,60.9,0,0,0,.8-7.1c.1-1.5.2-3,.4-4.5a4.2,4.2,0,0,1,.5-1.3l.3-.6v-.3h.3a4.4,4.4,0,0,1,3.9.8,6,6,0,0,1,2,3.4,26.4,26.4,0,0,1-.8,14.1c-.3,1-.7,2-1,3.1a7.7,7.7,0,0,1-3.3,4.2A1.9,1.9,0,0,1,397.7,233.5Zm.7-25-.2.4a3.5,3.5,0,0,0-.4,1c-.2,1.5-.3,3-.4,4.4a61.6,61.6,0,0,1-.8,7.2,39.3,39.3,0,0,0-.5,4.6v1.7a6.3,6.3,0,0,0,.5,3.9,1.4,1.4,0,0,0,.9.6,1,1,0,0,0,.8-.1,6.7,6.7,0,0,0,2.9-3.7c.3-1.1.7-2.2,1-3.2a25.1,25.1,0,0,0,.8-13.6,5,5,0,0,0-1.7-2.9A3.2,3.2,0,0,0,398.4,208.5Z" fill="#e64c4e"/>
        </g>
        <g>
          <path d="M651,78.7c5-2.2,5.2-2.1,8.1,3.2-.3,3.3-1.1,12.4-2.9,15.3s-1.7,5-2.7,6.8a2.5,2.5,0,0,1-3.6,1.1,14,14,0,0,1-.9-8.7C649.9,92.6,650.4,82.9,651,78.7Z" fill="#e64c4e"/>
          <path d="M651.4,106a4,4,0,0,1-1.6-.4h-.2v-.2a14.7,14.7,0,0,1-.9-9.1c.6-2.6.9-11.1,1.3-14l.6-3.7v-.3h.3c5.2-2.3,5.7-2.1,8.8,3.4V82c-.4,4-1.3,12.9-3,15.5a21.3,21.3,0,0,0-1.5,3.1c-.4.9-.7,2.9-1.2,3.7A3,3,0,0,1,651.4,106Zm-1-1.3a2,2,0,0,0,2.7-1c.4-.8.8-2.7,1.2-3.6a22.6,22.6,0,0,1,1.5-3.2c1.5-2.5,2.4-11.2,2.8-14.9-2.6-4.7-2.8-4.8-7.1-2.9l-.5,3.4c-.4,2.8-.8,11.4-1.4,14A13.5,13.5,0,0,0,650.4,104.7Z" fill="#e64c4e"/>
        </g>
        <g>
          <path d="M129.3,197a9.4,9.4,0,0,1-.2,2.5,5.6,5.6,0,0,1-1.5,2.3,1.9,1.9,0,0,1-2.9-.4,12.9,12.9,0,0,1-1.5-3.4c-.6-2.6-1-5.3-1.4-7.9a7.4,7.4,0,0,1,.1-2.3,2.4,2.4,0,0,1,2.5-1.7,3.9,3.9,0,0,1,3.3,2.4C128.9,191,129.2,192.4,129.3,197Z" fill="#e64c4e" stroke="#e64c4e" stroke-miterlimit="10"/>
          <path d="M126.3,202.7h-.3a2.2,2.2,0,0,1-1.7-1.1,13.3,13.3,0,0,1-1.5-3.5c-.6-2.5-1-5.2-1.3-7.7v-.2a7.8,7.8,0,0,1,.1-2.5,2.9,2.9,0,0,1,3.1-2.1,4.4,4.4,0,0,1,3.6,2.6c1.2,2.7,1.6,4.1,1.7,8.8h0c0,.1,0,.1,0,.2a8.3,8.3,0,0,1-.3,2.3,6.1,6.1,0,0,1-1.6,2.5A2.4,2.4,0,0,1,126.3,202.7Zm-2.1-16.2a1.9,1.9,0,0,0-1.8,1.3,6.8,6.8,0,0,0-.1,2.2v.2c.4,2.5.8,5.1,1.3,7.6a12.5,12.5,0,0,0,1.4,3.3,1.3,1.3,0,0,0,.9.6,1.4,1.4,0,0,0,1.2-.4,5,5,0,0,0,1.3-2.1,7.5,7.5,0,0,0,.2-2c0-.1,0-.2,0-.3-.1-4.5-.4-5.8-1.6-8.4a3.5,3.5,0,0,0-2.9-2.1Z" fill="#e64c4e"/>
        </g>
        <g>
          <path d="M788,98.6c5-1.7,5.7-1.5,8.2,2.8a4.8,4.8,0,0,1,.8,3.3,3.4,3.4,0,0,1-4.9,2.6,9.3,9.3,0,0,1-4.2-4.1A4.6,4.6,0,0,1,788,98.6Z" fill="#e64c4e"/>
          <path d="M793.7,108.2a3.9,3.9,0,0,1-1.8-.4,9.8,9.8,0,0,1-4.5-4.4,5.1,5.1,0,0,1,.1-5.1v-.2h.2c5.2-1.8,6.1-1.5,8.9,3a5.3,5.3,0,0,1,.9,3.7,4.1,4.1,0,0,1-2.2,3A3.8,3.8,0,0,1,793.7,108.2ZM788.4,99a4,4,0,0,0,0,3.9,8.7,8.7,0,0,0,4,3.9,2.8,2.8,0,0,0,2.6,0,3,3,0,0,0,1.6-2.3,4.2,4.2,0,0,0-.7-3C793.4,97.7,793,97.5,788.4,99Z" fill="#e64c4e"/>
        </g>
        <g>
          <path d="M398.9,190.5a3.3,3.3,0,0,1,.3-1.4,3.7,3.7,0,0,1,1.6-1.6,4,4,0,0,1,5.4,2.9,18.3,18.3,0,0,1,.6,3.2,2.5,2.5,0,0,1-3.7,2.7l-1.3-.6C399.5,194.7,398.9,193.6,398.9,190.5Z" fill="#e64c4e" stroke="#e64c4e" stroke-miterlimit="10"/>
          <path d="M404.3,197.1l-1.4-.3-1.3-.6c-2.4-1.2-3.2-2.5-3.1-5.7h0a3,3,0,0,1,.3-1.4,4.1,4.1,0,0,1,1.8-1.8,4.5,4.5,0,0,1,3.7.2,4.7,4.7,0,0,1,2.3,3.1,18.8,18.8,0,0,1,.6,3.3,3.2,3.2,0,0,1-1.2,2.9A2.9,2.9,0,0,1,404.3,197.1Zm-4.9-6.5c0,2.8.5,3.8,2.6,4.8l1.3.5a2.3,2.3,0,0,0,2.2-.1,2.2,2.2,0,0,0,.8-2,17.8,17.8,0,0,0-.6-3.1,3.7,3.7,0,0,0-1.9-2.5,3.5,3.5,0,0,0-2.9-.2,3.2,3.2,0,0,0-1.3,1.4,2.2,2.2,0,0,0-.2,1Z" fill="#e64c4e" stroke="#e64c4e" stroke-miterlimit="10"/>
        </g>
        <g>
          <path d="M301.5,60.6c-.1-2.9,3-5.3,5.6-4.5A5.3,5.3,0,0,1,310,58c1.6,2,1.4,3.5-.7,5a14.1,14.1,0,0,1-3.1,1.6,3.1,3.1,0,0,1-4.3-2.2C301.7,61.6,301.6,61,301.5,60.6Z" fill="#e64c4e"/>
          <path d="M304.8,65.3a3.4,3.4,0,0,1-1.6-.4,3.9,3.9,0,0,1-1.9-2.5,13.1,13.1,0,0,1-.3-1.4v-.4a5.1,5.1,0,0,1,2.1-4.1,4.7,4.7,0,0,1,4.2-.9,5.9,5.9,0,0,1,3.2,2,4.2,4.2,0,0,1,1.1,3.2,4,4,0,0,1-2,2.6,14.5,14.5,0,0,1-3.2,1.6ZM302,60.6v.3a12.3,12.3,0,0,0,.3,1.2,2.9,2.9,0,0,0,1.4,1.8,2.8,2.8,0,0,0,2.2,0,13.5,13.5,0,0,0,3-1.5,3.1,3.1,0,0,0,1.5-1.8,3.3,3.3,0,0,0-.9-2.4,4.9,4.9,0,0,0-2.6-1.6,3.7,3.7,0,0,0-3.2.7A4,4,0,0,0,302,60.6Z" fill="#e64c4e"/>
        </g>
        <g>
          <path d="M1368.2,228.5a2.2,2.2,0,0,1-3.5,2,20.4,20.4,0,0,1-3.8-3.2,3,3,0,0,1-.2-4.1,3.6,3.6,0,0,1,4.5-1.2,5.9,5.9,0,0,1,1.9,1.6A9.9,9.9,0,0,1,1368.2,228.5Z" fill="#e64c4e"/>
          <path d="M1366,231.4a3,3,0,0,1-1.6-.5,20.7,20.7,0,0,1-3.9-3.3,3.5,3.5,0,0,1-.3-4.8,4.1,4.1,0,0,1,5.2-1.3,6.4,6.4,0,0,1,2,1.8,10.3,10.3,0,0,1,1.3,5.1h0a3,3,0,0,1-1.5,2.6A2.6,2.6,0,0,1,1366,231.4Zm-2.4-9.2a3.5,3.5,0,0,0-2.6,1.4,2.4,2.4,0,0,0,.2,3.4,19.7,19.7,0,0,0,3.7,3.1,1.7,1.7,0,0,0,1.8.1,2,2,0,0,0,.9-1.7,9.4,9.4,0,0,0-1.1-4.5,5.4,5.4,0,0,0-1.7-1.5A2.6,2.6,0,0,0,1363.6,222.2Z" fill="#e64c4e"/>
        </g>
        <g>
          <path d="M658.5,66.7a2.7,2.7,0,0,1-3.5,2.8,7.2,7.2,0,0,1-4.9-6.2,2.9,2.9,0,0,1,3.1-3.3C656.3,60.3,658.5,63,658.5,66.7Z" fill="#e64c4e"/>
          <path d="M655.9,70.1l-1-.2a7.7,7.7,0,0,1-5.3-6.6,3.5,3.5,0,0,1,.8-2.8,3.3,3.3,0,0,1,2.8-1.1c3.3.3,5.7,3.3,5.8,7.2h0a3.5,3.5,0,0,1-1.4,2.8A3,3,0,0,1,655.9,70.1ZM653,60.5a2.3,2.3,0,0,0-1.7.8,2.3,2.3,0,0,0-.6,1.8,6.7,6.7,0,0,0,4.6,5.7,1.9,1.9,0,0,0,1.8-.3,2.4,2.4,0,0,0,.9-1.9c0-3.3-2-5.9-4.8-6.1Z" fill="#e64c4e"/>
        </g>
        <g>
          <path d="M500.2,56.1a2.6,2.6,0,0,1-2.9,1.3c-1.9-.3-2.1-.5-4.2-2.8l1.1-3.7a5.2,5.2,0,0,1,1.5-.4,3.9,3.9,0,0,1,3.2,2.2A34.1,34.1,0,0,1,500.2,56.1Z" fill="#e64c4e"/>
          <path d="M497.9,58h-.8c-2.1-.4-2.4-.6-4.5-3l-.2-.2,1.2-4.2h.3l.5-.2a2.9,2.9,0,0,1,1.2-.2,4.4,4.4,0,0,1,3.6,2.5,18.5,18.5,0,0,1,1,2.3l.4,1.1v.3l-.2.2A3.1,3.1,0,0,1,497.9,58Zm-4.3-3.6c1.8,2.1,2,2.1,3.7,2.4a2,2,0,0,0,2.3-.9l-.3-.8a17.7,17.7,0,0,0-.9-2.2,3.3,3.3,0,0,0-2.8-1.9l-.8.2h-.3Z" fill="#e64c4e"/>
        </g>
        <path d="M1330.8,209.6l-1.2-1.3-2.5-2.9a10.6,10.6,0,0,0-3.8-2.9,3.5,3.5,0,0,0-1.5-.4,2.7,2.7,0,0,0-1.7.6,10.2,10.2,0,0,0-2.6,2.7c-2.6,4.8-5.2,10.6-4.3,17.5a13.1,13.1,0,0,0,3.8,7.6,4.6,4.6,0,0,0,3.2,1.5c3.7.2,7.6.3,11.3-.9l2-.8a19.3,19.3,0,0,1,6.3-1.6c1.2,0,1.7-1.3,1.9-2.4a4.7,4.7,0,0,0-1.3-3.8,7,7,0,0,1-1.4-5.6,59.4,59.4,0,0,0,.7-12v-1.6c-.1-1.6-.3-3.3-.3-4.9q-.3-5.9-.5-11.7t-.5-12a49.7,49.7,0,0,0-.5-5c-.5-3.2-2.4-5.5-5.8-7.1h-1.4a3.3,3.3,0,0,0-.5,3.2c1.4,3.5,1.6,7.2,1.8,10.7.1,1.1.1,2.2.2,3.4.2,2.7.3,5.5.4,8.1a102.5,102.5,0,0,0,.6,10.5,39.2,39.2,0,0,1,.1,6.3c0,.6,0,1.2-.1,1.9a3.2,3.2,0,0,1-1.8,3l-.4.2Zm-1.3,12.7a3.7,3.7,0,0,1-3,1.6l-1,.2-1.5.2a2.9,2.9,0,0,1-2.2-.8,4.1,4.1,0,0,1-.7-4l.3-1.2a9.4,9.4,0,0,1,2.7-5.5l.4-.4.4.5c2.2,2.9,4.2,5.6,4.7,9.1v.4Z" fill="#e64c4e"/>
        <path d="M195.3,103.8a7.5,7.5,0,0,0,5.8,4.7,14.7,14.7,0,0,0,8.6-7.5c.6-1.1,1.1-2.4,1.6-3.5s.9-2.3,1.5-3.4a20.5,20.5,0,0,0,1.7-6.7v-.9a9.9,9.9,0,0,0-2.2-7.6c-2.3-3-5.6-3.5-8.5-1.3a26.9,26.9,0,0,0-3.4,3.3l-.8.9c-1.7,1.9-3.5,3.8-6.4,4.8l-.5.2-.2-.5-.3-.9a5,5,0,0,1-.5-1.8V82.4a33,33,0,0,1,.3-6l.4-2.1c1-5.5,2-11.3,3.6-16.8l.4-1.2a20.5,20.5,0,0,0,.8-3.6,38.8,38.8,0,0,1,2.1-8.1l.4-1.3c.6-1.8,1.1-3.6,1.6-5.4l.8-2.9a5.4,5.4,0,0,0-.9-4.4,3.5,3.5,0,0,0-3.5-1.5l-2.5,2.9c1,3.5.2,6.8-.6,10l-.4,1.5c-2.5,10.6-5.1,22-6.8,33.6-.5,3.3-.8,6-.9,8.5a23.5,23.5,0,0,0,.4,5.4,4.4,4.4,0,0,0,4.8,3.9l1.6-.2,1.7-.2h1l-.4.9A9.7,9.7,0,0,0,195.3,103.8Zm4.8-12.6.9-1.1c1.6-1.9,3.2-3.9,6.1-4.9l.6-.2v.6c.9,4.2-.9,7.2-2.5,10.2l-.6,1-.2.4H204a3,3,0,0,1-2.1-2.1l-.2-.5a14.3,14.3,0,0,0-1.1-1.7l-.6-.9-.2-.3Z" fill="#e64c4e" stroke="#e64c4e" stroke-miterlimit="10"/>
        <path d="M640.5,227.5v-.2c0-5.6-1.6-13.2-2.8-18.6v-.3l-1.3-6.4c-1.1-5.4-2.2-10.9-3.7-16.2a32.8,32.8,0,0,1-.7-3.6,29.6,29.6,0,0,0-.8-3.8,54.2,54.2,0,0,1-2.2-10.4,3.8,3.8,0,0,0-.2-.9c-.6-1.8-3.2-3.1-5.2-2.7a1.2,1.2,0,0,0-.8.6,4.9,4.9,0,0,0-.3,3.6l.4,1.3.3,1,.5,1.7c.5,1.5.9,3.1,1.3,4.7,1.6,6.6,3,12.5,4.3,18.2.7,3.2,1.3,6.6,1.8,9.4a4.7,4.7,0,0,1-.1,1.6c-.1.4-.1.8-.2,1.4v1l-2.3-2.1-2.1-1.8c-1.7-1.5-2.9-2.4-4.2-2.4s-2.6.8-4.5,2.7a9.7,9.7,0,0,0-1.8,2.2c-4.1,8-3.6,17,.6,23.5,2.7,4.1,4.9,5.1,9.1,4a15.3,15.3,0,0,0,4.5-2.4h.1a11.3,11.3,0,0,0,1.8-1.7l1.1-1.1a1.8,1.8,0,0,1,.9-.4h.6l3.3,1.6C640.5,229.4,640.5,229.4,640.5,227.5Zm-9.9-2.9a24.7,24.7,0,0,1-8,2.3h-.4c-2-1.3-1.8-3.2-1.7-4.6s0-7.1,2.5-8.9h.4c1.9.3,2.9,1.4,4,2.8s2.7,5.2,3.4,8.1v.4Z" fill="#e64c4e"/>
        <path d="M689.6,147.4a2.6,2.6,0,0,0,3.2-.5,3,3,0,0,0,.6-3.4c-.5-1.2-1.7-2.4-2.3-3.6l-.8-1.6h0a45,45,0,0,1-.8-17.8c.3-2.8.9-5.6,1.4-8.3s.8-4.3,1.1-6.5c.6-3.8,1.6-8.2,4.8-11.3v-.5l-.2-1.1c-.7-4.3-2.6-6.7-6-7.7a14.5,14.5,0,0,1-4.5-2.7,33.3,33.3,0,0,0-7-3.9,4.5,4.5,0,0,0-4,.1,7.5,7.5,0,0,0-2.6,2c-4.4,5.8-5.4,12.8-5.9,18.8a3.8,3.8,0,0,0,.8,2.1,5.9,5.9,0,0,0,5.6,2.9,26.2,26.2,0,0,0,4.8-1.1l4-1.4,1.9-.7.5-.2.2.5.3.8a4,4,0,0,1,.3,1.6,27.2,27.2,0,0,1-.5,3.5v.3a119.1,119.1,0,0,0-1.8,21.8,47.8,47.8,0,0,0,1.9,12.5A8.7,8.7,0,0,0,689.6,147.4Zm-5.9-57a20.6,20.6,0,0,1-7.3,5h-.6a1.8,1.8,0,0,1-1.2-.5,2.3,2.3,0,0,1-.7-2.1,11.5,11.5,0,0,1,3.4-6.3h.3c2.5-.3,4.3,1.1,6.2,3.1l.4.4Z" fill="#e64c4e" stroke="#e64c4e" stroke-miterlimit="10"/>
        <path d="M64,71.1l-1.3.7a26.9,26.9,0,0,1-3.3,1.8A19.3,19.3,0,0,0,51.6,80a25.3,25.3,0,0,0-3.9,6,22.7,22.7,0,0,0-1.1,12.3,16.8,16.8,0,0,0,3.8,7.8,5.7,5.7,0,0,0,7,1.4c5.3-2.4,8.9-5.8,10.8-10.2a31.2,31.2,0,0,0,2.1-16.6,30.7,30.7,0,0,0-1.6-5.9C68.1,72.7,66.6,71.5,64,71.1Zm.3,14.1c-.5,4.4-1,9-4.5,12.8a11.1,11.1,0,0,1-2.6,2.2,4.3,4.3,0,0,1-1.8.4H54.4l-.2-.2c-5.3-6.2-.6-15.5,5.1-19.4a3.2,3.2,0,0,1,2.6-.5,2.8,2.8,0,0,1,2,1.6v.3a4.2,4.2,0,0,1,.5,2Z" fill="#e64c4e"/>
        <path d="M713.3,205.5c-1.3-.5-2.3,0-3.4.5l-.5.2-.8.2-.7.2h-.4l-1.2-.6a16.5,16.5,0,0,0-2.4-1.2,20.5,20.5,0,0,0-4.3-1h-.5a4.8,4.8,0,0,0-2.9,1.1c-3.7,2.8-4.9,8-4.3,11.6s2.9,8.9,6.8,12.9a20.4,20.4,0,0,0,7.2,5.1,8.8,8.8,0,0,0,9.9-2.7c4.9-6,5.7-16,1.8-22.7A7.7,7.7,0,0,0,713.3,205.5Zm-1.2,16.1a10.5,10.5,0,0,1-2.5,3.3,4.5,4.5,0,0,1-3,1.3,5.9,5.9,0,0,1-3.1-1.1,10.6,10.6,0,0,1-4.8-7.3,4.3,4.3,0,0,1,1.1-3.7,2.4,2.4,0,0,1,2.9-.7l1,.6a6.3,6.3,0,0,0,7.7.8l.5-.3.2.5A7.3,7.3,0,0,1,712.1,221.6Z" fill="#e64c4e"/>
        <path d="M1254.2,204.7c-1.9.3-3.4-.6-4.8-1.4l-.7-.5a10.9,10.9,0,0,0-7.7,5.2,17.5,17.5,0,0,0-2.8,10.3,17.8,17.8,0,0,0,6,13.5c2.2,2,4.3,2.7,6.4,1.9a15.5,15.5,0,0,0,8-6.1c3.4-5.4,4.2-10.8,2.4-15.9C1260,208.5,1257.8,206.3,1254.2,204.7Zm-5.1,19.8h-.7a2.6,2.6,0,0,1-1.7-.6,2.4,2.4,0,0,1-.8-1.7,14.8,14.8,0,0,1,.4-4.1,7.7,7.7,0,0,1,2.6-4h.1c1.3-1.3,1.5-1.3,4.4-2.3l.7-.2v.7C1254.6,217.5,1252.9,221.5,1249.2,224.4Z" fill="#e64c4e"/>
        <path d="M262.3,205.8c-3.1,4.1-4.6,9-6.2,14.5a7.5,7.5,0,0,0,.1,3.7,18.1,18.1,0,0,0,3.2,7c2.1,2.6,3.8,3.1,6.6,1.7a15.7,15.7,0,0,0,5.1-3.5,6.1,6.1,0,0,1,1.4-1.1l.7-.4.3-.2,3.7,3.3a2.8,2.8,0,0,0,1.7-2.7l.2-1.7a32.6,32.6,0,0,0,.2-6.7c-.4-3.1-1.2-6.6-4.6-8.4a8.1,8.1,0,0,1-2.2-2.1l-.3-.4-.8-1.2a5.8,5.8,0,0,0-.9-1.2h-.2c-1.2-1.1-2.3-2.2-3.9-2.2h-.1A4.6,4.6,0,0,0,262.3,205.8Zm4,10.4h.3A2.2,2.2,0,0,1,269,218a4,4,0,0,1-.3,2.8,23.4,23.4,0,0,1-2.8,3.1l-.5.5-.5.2h-1.4v-.4C263,221,263.8,218.5,266.2,216.3Z" fill="#e64c4e"/>
        <path d="M569.8,229.8a3.9,3.9,0,0,1,1.3-.4h.8a7.6,7.6,0,0,1,1.9,1.7,8.2,8.2,0,0,0,1.5,1.4,2.9,2.9,0,0,0,1.2-1.8,23.8,23.8,0,0,0-1.4-15.4l-.6-1.3v-.2c1.4-2.9.8-5.6-1.9-8.6s-3.5-2.6-6.5-3.2a6.3,6.3,0,0,0-6.7,2.6,29.6,29.6,0,0,0-5.9,15.6c-.4,5.6.9,10,4.1,13.8a8.3,8.3,0,0,0,7.8-1.5,31.9,31.9,0,0,1,3.8-2.4Zm-3.9-9.8a6.1,6.1,0,0,1-5.2,3.9h-.5v-.5a11.8,11.8,0,0,1-.2-1.4,10.5,10.5,0,0,1,0-1.4c.2-2.7,1.4-5.2,3.7-7.8s3.7-1.4,6.6.6l.6.4-.6.5A14.8,14.8,0,0,0,565.9,219.9Z" fill="#e64c4e"/>
        <path d="M913.5,209.4c-.3,1.2-.6,2.4-.9,3.6-1,5-.8,11,1.2,15.4a12.1,12.1,0,0,0,4.8,5.3,7,7,0,0,0,7.6.3c3.7-2,5-6.9,6.4-10-.1-3.4-.6-8.5-2-11a11.8,11.8,0,0,0-7.9-5.9l-1.2-.2a8.3,8.3,0,0,1-1.9-.4,4.9,4.9,0,0,0-5.9,1.4Zm8,6.1a2.9,2.9,0,0,1,2.3.2,2.8,2.8,0,0,1,1,1.1v.6c-.1,2.3-1.1,8.8-2.9,9.8l-1,.2-.8-.2c-.6-.3-1.1-3.3-1.2-4S919.7,216.3,921.6,215.4Z" fill="#e64c4e"/>
      </g>
    </g>
  </g>
</svg>
